%TF.GenerationSoftware,KiCad,Pcbnew,9.0.2*%
%TF.CreationDate,2025-07-05T23:34:50+05:30*%
%TF.ProjectId,_autosave-esp32devkitclone,5f617574-6f73-4617-9665-2d6573703332,rev?*%
%TF.SameCoordinates,Original*%
%TF.FileFunction,Plated,1,4,PTH,Mixed*%
%TF.FilePolarity,Positive*%
%FSLAX46Y46*%
G04 Gerber Fmt 4.6, Leading zero omitted, Abs format (unit mm)*
G04 Created by KiCad (PCBNEW 9.0.2) date 2025-07-05 23:34:50*
%MOMM*%
%LPD*%
G01*
G04 APERTURE LIST*
%TA.AperFunction,ViaDrill*%
%ADD10C,0.300000*%
%TD*%
G04 aperture for slot hole*
%TA.AperFunction,ComponentDrill*%
%ADD11C,0.600000*%
%TD*%
G04 aperture for slot hole*
%TA.AperFunction,ComponentDrill*%
%ADD12C,0.650000*%
%TD*%
%TA.AperFunction,ComponentDrill*%
%ADD13C,1.000000*%
%TD*%
G04 APERTURE END LIST*
D10*
X166690000Y-127560000D03*
X167330000Y-100040000D03*
X167760000Y-131090000D03*
X167780000Y-113980000D03*
X168000000Y-109890000D03*
X168640000Y-104660000D03*
X169300000Y-117470000D03*
X169320000Y-91650000D03*
X169400000Y-82570000D03*
X169450000Y-101790000D03*
X169640000Y-104440000D03*
X169760000Y-97220000D03*
X169830000Y-130570000D03*
X170790000Y-109990000D03*
X170890000Y-96840000D03*
X170990000Y-83420000D03*
X171080000Y-86370000D03*
X171190000Y-120720000D03*
X171830000Y-103770000D03*
X172010000Y-130690000D03*
X172120000Y-125370000D03*
X172610000Y-102400000D03*
X172670000Y-94560000D03*
X172790000Y-89530000D03*
X173220000Y-97500000D03*
X173330000Y-87010000D03*
X173340000Y-96080000D03*
X173510000Y-92070000D03*
X173600000Y-88490000D03*
X173620000Y-90970000D03*
X173630000Y-93330000D03*
X173670000Y-85870000D03*
X174140000Y-129460000D03*
X174720000Y-111740000D03*
X174950000Y-117620000D03*
X176750000Y-126800000D03*
X176990000Y-104540000D03*
X177620000Y-108810000D03*
X177640000Y-111020000D03*
X178450000Y-123600000D03*
X178540000Y-83930000D03*
X178840000Y-120080000D03*
X179290000Y-97490000D03*
X180070000Y-123040000D03*
X180210000Y-121890000D03*
X180220000Y-123920000D03*
X180620000Y-127330000D03*
X180710000Y-97520000D03*
X180860000Y-116540000D03*
X181230000Y-123940000D03*
X181780000Y-97610000D03*
X182490000Y-124420000D03*
X182500000Y-123310000D03*
X182820000Y-115870000D03*
X183060000Y-82380000D03*
X183190000Y-97690000D03*
X183390000Y-124020000D03*
X184040000Y-116250000D03*
X184060000Y-127480000D03*
X184530000Y-101180000D03*
X185090000Y-84160000D03*
X185370000Y-103290000D03*
X185790000Y-97700000D03*
X186170000Y-108700000D03*
X186230000Y-106530000D03*
X186750000Y-97440000D03*
X186950000Y-122320000D03*
X187030000Y-101640000D03*
X187610000Y-106370000D03*
X188110000Y-97900000D03*
X188360000Y-126580000D03*
X189180000Y-123870000D03*
X189190000Y-114020000D03*
X189200000Y-97750000D03*
X189230000Y-109710000D03*
X189790000Y-108480000D03*
X189850000Y-129560000D03*
X190870000Y-110150000D03*
X191050000Y-113970000D03*
X191390000Y-130880000D03*
X193140000Y-115810000D03*
X193200000Y-125390000D03*
X193810000Y-92180000D03*
X193890000Y-104930000D03*
X193940000Y-105890000D03*
X193960000Y-83350000D03*
X193980000Y-95890000D03*
X194000000Y-87000000D03*
X194060000Y-88240000D03*
X194230000Y-127060000D03*
X194410000Y-90980000D03*
X194820000Y-109780000D03*
X195290000Y-84720000D03*
X195470000Y-113920000D03*
X196630000Y-87310000D03*
X196750000Y-99850000D03*
X197000000Y-104820000D03*
X197170000Y-98400000D03*
X197280000Y-92180000D03*
X197640000Y-99190000D03*
X198150000Y-92750000D03*
X198290000Y-108440000D03*
X198310000Y-104790000D03*
X198550000Y-106020000D03*
X198880000Y-109760000D03*
X199780000Y-95430000D03*
X202900000Y-105950000D03*
X205510000Y-82470000D03*
D11*
%TO.C,J1*%
X178645000Y-129575000D02*
X178645000Y-128875000D01*
X186995000Y-129575000D02*
X186995000Y-128875000D01*
D12*
X180595000Y-126325000D02*
X180595000Y-126125000D01*
X185045000Y-126325000D02*
X185045000Y-126125000D01*
D13*
%TO.C,J2*%
X161960000Y-84540000D03*
X161960000Y-87080000D03*
X161960000Y-89620000D03*
X161960000Y-92160000D03*
X161960000Y-94700000D03*
X161960000Y-97240000D03*
X161960000Y-99780000D03*
X161960000Y-102320000D03*
X161960000Y-104860000D03*
X161960000Y-107400000D03*
X161960000Y-109940000D03*
X161960000Y-112480000D03*
X161960000Y-115020000D03*
X161960000Y-117560000D03*
X161960000Y-120100000D03*
X161960000Y-122640000D03*
X161960000Y-125180000D03*
X161960000Y-127720000D03*
X161960000Y-130260000D03*
%TO.C,J3*%
X204880000Y-84360000D03*
X204880000Y-86900000D03*
X204880000Y-89440000D03*
X204880000Y-91980000D03*
X204880000Y-94520000D03*
X204880000Y-97060000D03*
X204880000Y-99600000D03*
X204880000Y-102140000D03*
X204880000Y-104680000D03*
X204880000Y-107220000D03*
X204880000Y-109760000D03*
X204880000Y-112300000D03*
X204880000Y-114840000D03*
X204880000Y-117380000D03*
X204880000Y-119920000D03*
X204880000Y-122460000D03*
X204880000Y-125000000D03*
X204880000Y-127540000D03*
X204880000Y-130080000D03*
M02*
