%TF.GenerationSoftware,KiCad,Pcbnew,9.0.2*%
%TF.CreationDate,2025-07-05T23:34:38+05:30*%
%TF.ProjectId,_autosave-esp32devkitclone,5f617574-6f73-4617-9665-2d6573703332,rev?*%
%TF.SameCoordinates,Original*%
%TF.FileFunction,Copper,L3,Inr*%
%TF.FilePolarity,Positive*%
%FSLAX46Y46*%
G04 Gerber Fmt 4.6, Leading zero omitted, Abs format (unit mm)*
G04 Created by KiCad (PCBNEW 9.0.2) date 2025-07-05 23:34:38*
%MOMM*%
%LPD*%
G01*
G04 APERTURE LIST*
%TA.AperFunction,ComponentPad*%
%ADD10R,1.700000X1.700000*%
%TD*%
%TA.AperFunction,ComponentPad*%
%ADD11C,1.700000*%
%TD*%
%TA.AperFunction,HeatsinkPad*%
%ADD12O,1.000000X1.900000*%
%TD*%
%TA.AperFunction,HeatsinkPad*%
%ADD13O,1.050000X1.250000*%
%TD*%
%TA.AperFunction,ViaPad*%
%ADD14C,0.600000*%
%TD*%
%TA.AperFunction,Conductor*%
%ADD15C,0.200000*%
%TD*%
G04 APERTURE END LIST*
D10*
%TO.N,/VDD33*%
%TO.C,J2*%
X161960000Y-84540000D03*
D11*
%TO.N,/EN*%
X161960000Y-87080000D03*
%TO.N,/SENSOR_VP*%
X161960000Y-89620000D03*
%TO.N,/SENSOR_VN*%
X161960000Y-92160000D03*
%TO.N,/IO34*%
X161960000Y-94700000D03*
%TO.N,/IO35*%
X161960000Y-97240000D03*
%TO.N,/IO32*%
X161960000Y-99780000D03*
%TO.N,/IO33*%
X161960000Y-102320000D03*
%TO.N,/IO25*%
X161960000Y-104860000D03*
%TO.N,/IO26*%
X161960000Y-107400000D03*
%TO.N,/IO27*%
X161960000Y-109940000D03*
%TO.N,/IO14*%
X161960000Y-112480000D03*
%TO.N,/IO12*%
X161960000Y-115020000D03*
%TO.N,GND*%
X161960000Y-117560000D03*
%TO.N,/IO13*%
X161960000Y-120100000D03*
%TO.N,/SD2*%
X161960000Y-122640000D03*
%TO.N,/SD3*%
X161960000Y-125180000D03*
%TO.N,/CMD*%
X161960000Y-127720000D03*
%TO.N,/EXT_5V*%
X161960000Y-130260000D03*
%TD*%
D12*
%TO.N,GND*%
%TO.C,J1*%
X178645000Y-129225000D03*
D13*
X180595000Y-126225000D03*
X185045000Y-126225000D03*
D12*
X186995000Y-129225000D03*
%TD*%
D10*
%TO.N,GND*%
%TO.C,J3*%
X204880000Y-84360000D03*
D11*
%TO.N,/IO23*%
X204880000Y-86900000D03*
%TO.N,/IO22*%
X204880000Y-89440000D03*
%TO.N,/TXDO*%
X204880000Y-91980000D03*
%TO.N,/RXDO*%
X204880000Y-94520000D03*
%TO.N,/IO21*%
X204880000Y-97060000D03*
%TO.N,GND*%
X204880000Y-99600000D03*
%TO.N,/IO19*%
X204880000Y-102140000D03*
%TO.N,/IO18*%
X204880000Y-104680000D03*
%TO.N,/IO5*%
X204880000Y-107220000D03*
%TO.N,/IO17*%
X204880000Y-109760000D03*
%TO.N,/IO16*%
X204880000Y-112300000D03*
%TO.N,/IO4*%
X204880000Y-114840000D03*
%TO.N,/IO0*%
X204880000Y-117380000D03*
%TO.N,/IO2*%
X204880000Y-119920000D03*
%TO.N,/IO15*%
X204880000Y-122460000D03*
%TO.N,/SD1*%
X204880000Y-125000000D03*
%TO.N,/SD0*%
X204880000Y-127540000D03*
%TO.N,/CLK*%
X204880000Y-130080000D03*
%TD*%
D14*
%TO.N,/EXT_5V*%
X193890000Y-104930000D03*
X189850000Y-129560000D03*
X187610000Y-106370000D03*
X189790000Y-108480000D03*
%TO.N,GND*%
X197280000Y-92180000D03*
X169300000Y-117470000D03*
X177640000Y-111020000D03*
X180620000Y-127330000D03*
X191390000Y-130880000D03*
X177620000Y-108810000D03*
%TO.N,/VDD33*%
X170790000Y-109990000D03*
X174720000Y-111740000D03*
X174950000Y-117620000D03*
X189230000Y-109710000D03*
X194820000Y-109780000D03*
X169320000Y-91650000D03*
X170990000Y-83420000D03*
X168000000Y-109890000D03*
%TO.N,/EN*%
X196630000Y-87310000D03*
X185090000Y-84160000D03*
X197640000Y-99190000D03*
X198880000Y-109760000D03*
X178540000Y-83930000D03*
X172010000Y-130690000D03*
X171080000Y-86370000D03*
X197000000Y-104820000D03*
X198150000Y-92750000D03*
X199780000Y-95430000D03*
X183060000Y-82380000D03*
%TO.N,Net-(C15-Pad2)*%
X171190000Y-120720000D03*
X169640000Y-104440000D03*
%TO.N,Net-(D1-A)*%
X194230000Y-127060000D03*
X185370000Y-103290000D03*
X193140000Y-115810000D03*
%TO.N,/VBUS*%
X167760000Y-131090000D03*
X198310000Y-104790000D03*
X169450000Y-101790000D03*
X184060000Y-127480000D03*
X166690000Y-127560000D03*
X168640000Y-104660000D03*
%TO.N,/USB_DN*%
X178450000Y-123600000D03*
X183390000Y-124020000D03*
X187030000Y-101640000D03*
X180070000Y-123040000D03*
%TO.N,/USB_DP*%
X182490000Y-124420000D03*
X178840000Y-120080000D03*
X176990000Y-104540000D03*
%TO.N,/SD2*%
X180710000Y-97520000D03*
%TO.N,/CMD*%
X169400000Y-82570000D03*
X183190000Y-97690000D03*
%TO.N,/IO34*%
X173600000Y-88490000D03*
%TO.N,/IO14*%
X173220000Y-97500000D03*
X167330000Y-100040000D03*
%TO.N,/IO25*%
X173630000Y-93330000D03*
%TO.N,/SENSOR_VN*%
X173330000Y-87010000D03*
%TO.N,/IO35*%
X172790000Y-89530000D03*
%TO.N,/IO13*%
X179290000Y-97490000D03*
%TO.N,/IO33*%
X173510000Y-92070000D03*
%TO.N,/IO27*%
X173340000Y-96080000D03*
%TO.N,/IO12*%
X172610000Y-102400000D03*
X167780000Y-113980000D03*
%TO.N,/SENSOR_VP*%
X173670000Y-85870000D03*
%TO.N,/SD3*%
X181780000Y-97610000D03*
%TO.N,/IO32*%
X173620000Y-90970000D03*
%TO.N,/IO26*%
X172670000Y-94560000D03*
%TO.N,/IO22*%
X195290000Y-84720000D03*
%TO.N,/IO19*%
X194410000Y-90980000D03*
X196750000Y-99850000D03*
%TO.N,/SD0*%
X185790000Y-97700000D03*
%TO.N,/RXDO*%
X194000000Y-87000000D03*
X198550000Y-106020000D03*
%TO.N,/IO2*%
X205510000Y-82470000D03*
X189200000Y-97750000D03*
%TO.N,/IO15*%
X188110000Y-97900000D03*
%TO.N,/IO21*%
X194060000Y-88240000D03*
%TO.N,/IO23*%
X193960000Y-83350000D03*
%TO.N,/SD1*%
X186750000Y-97440000D03*
%TO.N,/CLK*%
X188360000Y-126580000D03*
X186230000Y-106530000D03*
X184530000Y-101180000D03*
%TO.N,/IO16*%
X193980000Y-95890000D03*
X193940000Y-105890000D03*
%TO.N,/IO18*%
X193810000Y-92180000D03*
X202900000Y-105950000D03*
%TO.N,Net-(Q1-B)*%
X176750000Y-126800000D03*
X193200000Y-125390000D03*
%TO.N,/RTS*%
X172120000Y-125370000D03*
X169760000Y-97220000D03*
X184040000Y-116250000D03*
X180210000Y-121890000D03*
%TO.N,/DTR*%
X186950000Y-122320000D03*
X180860000Y-116540000D03*
%TO.N,Net-(Q2-B)*%
X189190000Y-114020000D03*
X170890000Y-96840000D03*
X189180000Y-123870000D03*
X171830000Y-103770000D03*
X186170000Y-108700000D03*
%TO.N,/RXD*%
X197170000Y-98400000D03*
X182820000Y-115870000D03*
%TO.N,/TXD*%
X198290000Y-108440000D03*
X195470000Y-113920000D03*
%TO.N,Net-(U1-~{SUSPEND})*%
X190870000Y-110150000D03*
X182500000Y-123310000D03*
%TO.N,Net-(U1-~{RST})*%
X181230000Y-123940000D03*
X174140000Y-129460000D03*
%TO.N,Net-(U1-VBUS)*%
X180220000Y-123920000D03*
X169830000Y-130570000D03*
X191050000Y-113970000D03*
%TD*%
D15*
%TO.N,/EXT_5V*%
X189790000Y-108480000D02*
X189850000Y-108540000D01*
X189850000Y-108540000D02*
X189850000Y-129560000D01*
%TO.N,GND*%
X183020000Y-129140000D02*
X186910000Y-129140000D01*
X180595000Y-127305000D02*
X180620000Y-127330000D01*
X180595000Y-127275000D02*
X178645000Y-129225000D01*
X186995000Y-129225000D02*
X188650000Y-130880000D01*
X188650000Y-130880000D02*
X191390000Y-130880000D01*
X182935000Y-129225000D02*
X183020000Y-129140000D01*
X186910000Y-129140000D02*
X186995000Y-129225000D01*
X180595000Y-127275000D02*
X180595000Y-127305000D01*
X178645000Y-129225000D02*
X182935000Y-129225000D01*
%TO.N,/VDD33*%
X162400000Y-84100000D02*
X161960000Y-84540000D01*
X169330000Y-84100000D02*
X162400000Y-84100000D01*
X168100000Y-109990000D02*
X168000000Y-109890000D01*
X170790000Y-109990000D02*
X168100000Y-109990000D01*
X169320000Y-84110000D02*
X169330000Y-84100000D01*
X169320000Y-84110000D02*
X170300000Y-84110000D01*
X169320000Y-91650000D02*
X169320000Y-84110000D01*
X170300000Y-84110000D02*
X170990000Y-83420000D01*
%TO.N,/VBUS*%
X193470000Y-104380000D02*
X193710000Y-104140000D01*
X176680000Y-101790000D02*
X179270000Y-104380000D01*
X169450000Y-101790000D02*
X176680000Y-101790000D01*
X193710000Y-104140000D02*
X197660000Y-104140000D01*
X179270000Y-104380000D02*
X193470000Y-104380000D01*
X197660000Y-104140000D02*
X198310000Y-104790000D01*
%TO.N,/SD2*%
X178160000Y-79750000D02*
X178470000Y-80060000D01*
X169200000Y-83430000D02*
X169910000Y-83430000D01*
X160770000Y-82420000D02*
X168490000Y-82420000D01*
X172750000Y-82190000D02*
X175190000Y-79750000D01*
X170780000Y-82260000D02*
X172750000Y-82260000D01*
X168490000Y-82420000D02*
X168490000Y-82820000D01*
X160640000Y-82550000D02*
X160770000Y-82420000D01*
X179200000Y-95360000D02*
X180710000Y-96870000D01*
X161960000Y-122640000D02*
X160650000Y-122640000D01*
X168490000Y-82820000D02*
X169150000Y-83480000D01*
X175190000Y-79750000D02*
X178160000Y-79750000D01*
X170350000Y-82690000D02*
X170780000Y-82260000D01*
X169910000Y-83130000D02*
X170350000Y-82690000D01*
X179200000Y-80790000D02*
X179200000Y-92790000D01*
X169910000Y-83430000D02*
X169910000Y-83130000D01*
X178470000Y-80060000D02*
X179200000Y-80790000D01*
X160630000Y-82560000D02*
X160640000Y-82550000D01*
X169150000Y-83480000D02*
X169200000Y-83430000D01*
X160650000Y-122640000D02*
X160630000Y-122660000D01*
X160630000Y-122660000D02*
X160630000Y-82560000D01*
X172750000Y-82260000D02*
X172750000Y-82190000D01*
X179200000Y-92790000D02*
X179200000Y-95360000D01*
X180710000Y-96870000D02*
X180710000Y-97520000D01*
%TO.N,/IO14*%
X172490000Y-100040000D02*
X173210000Y-99320000D01*
X167330000Y-100040000D02*
X172490000Y-100040000D01*
X173210000Y-97510000D02*
X173220000Y-97500000D01*
X173210000Y-99320000D02*
X173210000Y-97510000D01*
%TO.N,/IO27*%
X166610000Y-110080000D02*
X166610000Y-97320000D01*
X173300000Y-96120000D02*
X173340000Y-96080000D01*
X166470000Y-109940000D02*
X166610000Y-110080000D01*
X161960000Y-109940000D02*
X166470000Y-109940000D01*
X166610000Y-97320000D02*
X168660000Y-95270000D01*
X172200000Y-95270000D02*
X173050000Y-96120000D01*
X173050000Y-96120000D02*
X173300000Y-96120000D01*
X168660000Y-95270000D02*
X172200000Y-95270000D01*
%TO.N,/IO12*%
X171670000Y-113980000D02*
X172050000Y-113600000D01*
X167780000Y-113980000D02*
X171670000Y-113980000D01*
X172610000Y-113040000D02*
X172610000Y-102400000D01*
X172050000Y-113600000D02*
X172610000Y-113040000D01*
%TO.N,/IO26*%
X167810000Y-95270000D02*
X168530000Y-94550000D01*
X161960000Y-107400000D02*
X162050000Y-107310000D01*
X172660000Y-94550000D02*
X172670000Y-94560000D01*
X166060000Y-107310000D02*
X166060000Y-97020000D01*
X166060000Y-97020000D02*
X167810000Y-95270000D01*
X168560000Y-94550000D02*
X172660000Y-94550000D01*
X162050000Y-107310000D02*
X166060000Y-107310000D01*
X168530000Y-94550000D02*
X168560000Y-94550000D01*
%TO.N,/IO22*%
X196030000Y-85460000D02*
X195290000Y-84720000D01*
X196030000Y-89410000D02*
X196030000Y-85460000D01*
X196060000Y-89440000D02*
X196030000Y-89410000D01*
X204880000Y-89440000D02*
X196060000Y-89440000D01*
%TO.N,/SD0*%
X183920000Y-81680000D02*
X183780000Y-81820000D01*
X183780000Y-81820000D02*
X183780000Y-84080000D01*
X206320000Y-81700000D02*
X206240000Y-81620000D01*
X183780000Y-84080000D02*
X183780000Y-88830000D01*
X206300000Y-127540000D02*
X206320000Y-127560000D01*
X206240000Y-81620000D02*
X183980000Y-81620000D01*
X183980000Y-81620000D02*
X183920000Y-81680000D01*
X185750000Y-97660000D02*
X185790000Y-97700000D01*
X204880000Y-127540000D02*
X206300000Y-127540000D01*
X206320000Y-127560000D02*
X206320000Y-81700000D01*
X183780000Y-88830000D02*
X185750000Y-90800000D01*
X185750000Y-90800000D02*
X185750000Y-97660000D01*
%TO.N,/RXDO*%
X195850000Y-94520000D02*
X195680000Y-94350000D01*
X195280000Y-93950000D02*
X195280000Y-87030000D01*
X194030000Y-87030000D02*
X194000000Y-87000000D01*
X198550000Y-106020000D02*
X199058554Y-105511446D01*
X204880000Y-94520000D02*
X202760000Y-94520000D01*
X202631447Y-105511446D02*
X202631447Y-94648553D01*
X195680000Y-94350000D02*
X195280000Y-93950000D01*
X202760000Y-94520000D02*
X195850000Y-94520000D01*
X195280000Y-87030000D02*
X194030000Y-87030000D01*
X199058554Y-105511446D02*
X202631447Y-105511446D01*
X202631447Y-94648553D02*
X202760000Y-94520000D01*
%TO.N,/IO23*%
X198520000Y-84060000D02*
X198260000Y-83800000D01*
X197810000Y-83350000D02*
X193960000Y-83350000D01*
X198520000Y-87030000D02*
X198520000Y-84060000D01*
X198260000Y-83800000D02*
X197810000Y-83350000D01*
X204750000Y-87030000D02*
X198520000Y-87030000D01*
X204880000Y-86900000D02*
X204750000Y-87030000D01*
%TO.N,/CLK*%
X188360000Y-108660000D02*
X186230000Y-106530000D01*
X188360000Y-126580000D02*
X188360000Y-108660000D01*
%TO.N,/RTS*%
X172430000Y-125060000D02*
X172120000Y-125370000D01*
X178480000Y-121890000D02*
X177010000Y-123360000D01*
X180210000Y-121890000D02*
X178480000Y-121890000D01*
X177010000Y-123360000D02*
X175310000Y-125060000D01*
X172610000Y-125060000D02*
X172430000Y-125060000D01*
X175310000Y-125060000D02*
X172610000Y-125060000D01*
%TO.N,Net-(Q2-B)*%
X189180000Y-114030000D02*
X189190000Y-114020000D01*
X189180000Y-123870000D02*
X189180000Y-114030000D01*
%TO.N,Net-(U1-~{RST})*%
X180240000Y-124870000D02*
X179510000Y-124870000D01*
X181230000Y-123940000D02*
X180700000Y-124470000D01*
X180640000Y-124470000D02*
X180240000Y-124870000D01*
X179290000Y-125090000D02*
X177500000Y-125090000D01*
X180700000Y-124470000D02*
X180640000Y-124470000D01*
X177500000Y-125090000D02*
X174140000Y-128450000D01*
X179510000Y-124870000D02*
X179290000Y-125090000D01*
X174140000Y-128450000D02*
X174140000Y-129460000D01*
%TD*%
M02*
