%TF.GenerationSoftware,KiCad,Pcbnew,9.0.2*%
%TF.CreationDate,2025-07-05T23:34:38+05:30*%
%TF.ProjectId,_autosave-esp32devkitclone,5f617574-6f73-4617-9665-2d6573703332,rev?*%
%TF.SameCoordinates,Original*%
%TF.FileFunction,Copper,L1,Top*%
%TF.FilePolarity,Positive*%
%FSLAX46Y46*%
G04 Gerber Fmt 4.6, Leading zero omitted, Abs format (unit mm)*
G04 Created by KiCad (PCBNEW 9.0.2) date 2025-07-05 23:34:38*
%MOMM*%
%LPD*%
G01*
G04 APERTURE LIST*
G04 Aperture macros list*
%AMRoundRect*
0 Rectangle with rounded corners*
0 $1 Rounding radius*
0 $2 $3 $4 $5 $6 $7 $8 $9 X,Y pos of 4 corners*
0 Add a 4 corners polygon primitive as box body*
4,1,4,$2,$3,$4,$5,$6,$7,$8,$9,$2,$3,0*
0 Add four circle primitives for the rounded corners*
1,1,$1+$1,$2,$3*
1,1,$1+$1,$4,$5*
1,1,$1+$1,$6,$7*
1,1,$1+$1,$8,$9*
0 Add four rect primitives between the rounded corners*
20,1,$1+$1,$2,$3,$4,$5,0*
20,1,$1+$1,$4,$5,$6,$7,0*
20,1,$1+$1,$6,$7,$8,$9,0*
20,1,$1+$1,$8,$9,$2,$3,0*%
G04 Aperture macros list end*
%ADD10C,0.300000*%
%TA.AperFunction,NonConductor*%
%ADD11C,0.300000*%
%TD*%
%TA.AperFunction,NonConductor*%
%ADD12C,0.200000*%
%TD*%
%TA.AperFunction,ComponentPad*%
%ADD13R,1.700000X1.700000*%
%TD*%
%TA.AperFunction,ComponentPad*%
%ADD14C,1.700000*%
%TD*%
%TA.AperFunction,SMDPad,CuDef*%
%ADD15R,1.300000X0.600000*%
%TD*%
%TA.AperFunction,SMDPad,CuDef*%
%ADD16RoundRect,0.075000X-0.125000X-0.075000X0.125000X-0.075000X0.125000X0.075000X-0.125000X0.075000X0*%
%TD*%
%TA.AperFunction,SMDPad,CuDef*%
%ADD17RoundRect,0.218750X-0.218750X-0.256250X0.218750X-0.256250X0.218750X0.256250X-0.218750X0.256250X0*%
%TD*%
%TA.AperFunction,SMDPad,CuDef*%
%ADD18R,1.550000X1.300000*%
%TD*%
%TA.AperFunction,SMDPad,CuDef*%
%ADD19RoundRect,0.100000X-0.130000X-0.100000X0.130000X-0.100000X0.130000X0.100000X-0.130000X0.100000X0*%
%TD*%
%TA.AperFunction,SMDPad,CuDef*%
%ADD20RoundRect,0.100000X-0.100000X-0.575000X0.100000X-0.575000X0.100000X0.575000X-0.100000X0.575000X0*%
%TD*%
%TA.AperFunction,HeatsinkPad*%
%ADD21O,1.000000X1.900000*%
%TD*%
%TA.AperFunction,SMDPad,CuDef*%
%ADD22R,0.875000X1.900000*%
%TD*%
%TA.AperFunction,HeatsinkPad*%
%ADD23O,1.050000X1.250000*%
%TD*%
%TA.AperFunction,SMDPad,CuDef*%
%ADD24RoundRect,0.250000X-1.200000X-0.700000X1.200000X-0.700000X1.200000X0.700000X-1.200000X0.700000X0*%
%TD*%
%TA.AperFunction,SMDPad,CuDef*%
%ADD25RoundRect,0.150000X0.150000X0.200000X-0.150000X0.200000X-0.150000X-0.200000X0.150000X-0.200000X0*%
%TD*%
%TA.AperFunction,SMDPad,CuDef*%
%ADD26R,2.000000X0.900000*%
%TD*%
%TA.AperFunction,SMDPad,CuDef*%
%ADD27R,0.900000X2.000000*%
%TD*%
%TA.AperFunction,SMDPad,CuDef*%
%ADD28R,5.000000X5.000000*%
%TD*%
%TA.AperFunction,SMDPad,CuDef*%
%ADD29RoundRect,0.062500X-0.425000X-0.062500X0.425000X-0.062500X0.425000X0.062500X-0.425000X0.062500X0*%
%TD*%
%TA.AperFunction,SMDPad,CuDef*%
%ADD30RoundRect,0.062500X-0.062500X-0.425000X0.062500X-0.425000X0.062500X0.425000X-0.062500X0.425000X0*%
%TD*%
%TA.AperFunction,HeatsinkPad*%
%ADD31R,2.700000X2.700000*%
%TD*%
%TA.AperFunction,SMDPad,CuDef*%
%ADD32RoundRect,0.375000X0.625000X0.375000X-0.625000X0.375000X-0.625000X-0.375000X0.625000X-0.375000X0*%
%TD*%
%TA.AperFunction,SMDPad,CuDef*%
%ADD33RoundRect,0.500000X0.500000X1.400000X-0.500000X1.400000X-0.500000X-1.400000X0.500000X-1.400000X0*%
%TD*%
%TA.AperFunction,SMDPad,CuDef*%
%ADD34RoundRect,0.112500X-0.187500X-0.112500X0.187500X-0.112500X0.187500X0.112500X-0.187500X0.112500X0*%
%TD*%
%TA.AperFunction,ViaPad*%
%ADD35C,0.600000*%
%TD*%
%TA.AperFunction,Conductor*%
%ADD36C,0.200000*%
%TD*%
G04 APERTURE END LIST*
D10*
D11*
X179256429Y-66378328D02*
X180185001Y-66378328D01*
X180185001Y-66378328D02*
X179685001Y-66949757D01*
X179685001Y-66949757D02*
X179899286Y-66949757D01*
X179899286Y-66949757D02*
X180042144Y-67021185D01*
X180042144Y-67021185D02*
X180113572Y-67092614D01*
X180113572Y-67092614D02*
X180185001Y-67235471D01*
X180185001Y-67235471D02*
X180185001Y-67592614D01*
X180185001Y-67592614D02*
X180113572Y-67735471D01*
X180113572Y-67735471D02*
X180042144Y-67806900D01*
X180042144Y-67806900D02*
X179899286Y-67878328D01*
X179899286Y-67878328D02*
X179470715Y-67878328D01*
X179470715Y-67878328D02*
X179327858Y-67806900D01*
X179327858Y-67806900D02*
X179256429Y-67735471D01*
X181113572Y-66378328D02*
X181256429Y-66378328D01*
X181256429Y-66378328D02*
X181399286Y-66449757D01*
X181399286Y-66449757D02*
X181470715Y-66521185D01*
X181470715Y-66521185D02*
X181542143Y-66664042D01*
X181542143Y-66664042D02*
X181613572Y-66949757D01*
X181613572Y-66949757D02*
X181613572Y-67306900D01*
X181613572Y-67306900D02*
X181542143Y-67592614D01*
X181542143Y-67592614D02*
X181470715Y-67735471D01*
X181470715Y-67735471D02*
X181399286Y-67806900D01*
X181399286Y-67806900D02*
X181256429Y-67878328D01*
X181256429Y-67878328D02*
X181113572Y-67878328D01*
X181113572Y-67878328D02*
X180970715Y-67806900D01*
X180970715Y-67806900D02*
X180899286Y-67735471D01*
X180899286Y-67735471D02*
X180827857Y-67592614D01*
X180827857Y-67592614D02*
X180756429Y-67306900D01*
X180756429Y-67306900D02*
X180756429Y-66949757D01*
X180756429Y-66949757D02*
X180827857Y-66664042D01*
X180827857Y-66664042D02*
X180899286Y-66521185D01*
X180899286Y-66521185D02*
X180970715Y-66449757D01*
X180970715Y-66449757D02*
X181113572Y-66378328D01*
X182256428Y-67735471D02*
X182327857Y-67806900D01*
X182327857Y-67806900D02*
X182256428Y-67878328D01*
X182256428Y-67878328D02*
X182185000Y-67806900D01*
X182185000Y-67806900D02*
X182256428Y-67735471D01*
X182256428Y-67735471D02*
X182256428Y-67878328D01*
X182827857Y-66378328D02*
X183827857Y-66378328D01*
X183827857Y-66378328D02*
X183185000Y-67878328D01*
X184256428Y-66378328D02*
X185185000Y-66378328D01*
X185185000Y-66378328D02*
X184685000Y-66949757D01*
X184685000Y-66949757D02*
X184899285Y-66949757D01*
X184899285Y-66949757D02*
X185042143Y-67021185D01*
X185042143Y-67021185D02*
X185113571Y-67092614D01*
X185113571Y-67092614D02*
X185185000Y-67235471D01*
X185185000Y-67235471D02*
X185185000Y-67592614D01*
X185185000Y-67592614D02*
X185113571Y-67735471D01*
X185113571Y-67735471D02*
X185042143Y-67806900D01*
X185042143Y-67806900D02*
X184899285Y-67878328D01*
X184899285Y-67878328D02*
X184470714Y-67878328D01*
X184470714Y-67878328D02*
X184327857Y-67806900D01*
X184327857Y-67806900D02*
X184256428Y-67735471D01*
X186470714Y-66878328D02*
X186470714Y-67878328D01*
X186113571Y-66306900D02*
X185756428Y-67378328D01*
X185756428Y-67378328D02*
X186684999Y-67378328D01*
X187113570Y-66378328D02*
X188042142Y-66378328D01*
X188042142Y-66378328D02*
X187542142Y-66949757D01*
X187542142Y-66949757D02*
X187756427Y-66949757D01*
X187756427Y-66949757D02*
X187899285Y-67021185D01*
X187899285Y-67021185D02*
X187970713Y-67092614D01*
X187970713Y-67092614D02*
X188042142Y-67235471D01*
X188042142Y-67235471D02*
X188042142Y-67592614D01*
X188042142Y-67592614D02*
X187970713Y-67735471D01*
X187970713Y-67735471D02*
X187899285Y-67806900D01*
X187899285Y-67806900D02*
X187756427Y-67878328D01*
X187756427Y-67878328D02*
X187327856Y-67878328D01*
X187327856Y-67878328D02*
X187184999Y-67806900D01*
X187184999Y-67806900D02*
X187113570Y-67735471D01*
D12*
X158860000Y-80350000D02*
X158860000Y-68413580D01*
X208510000Y-68413580D02*
X208510000Y-80190000D01*
X158860000Y-69000000D02*
X208510000Y-69000000D01*
X158860000Y-69000000D02*
X159986504Y-68413579D01*
X158860000Y-69000000D02*
X159986504Y-69586421D01*
X208510000Y-69000000D02*
X207383496Y-69586421D01*
X208510000Y-69000000D02*
X207383496Y-68413579D01*
D10*
D11*
X227718328Y-106461427D02*
X227718328Y-107175713D01*
X227718328Y-107175713D02*
X228432614Y-107247141D01*
X228432614Y-107247141D02*
X228361185Y-107175713D01*
X228361185Y-107175713D02*
X228289757Y-107032856D01*
X228289757Y-107032856D02*
X228289757Y-106675713D01*
X228289757Y-106675713D02*
X228361185Y-106532856D01*
X228361185Y-106532856D02*
X228432614Y-106461427D01*
X228432614Y-106461427D02*
X228575471Y-106389998D01*
X228575471Y-106389998D02*
X228932614Y-106389998D01*
X228932614Y-106389998D02*
X229075471Y-106461427D01*
X229075471Y-106461427D02*
X229146900Y-106532856D01*
X229146900Y-106532856D02*
X229218328Y-106675713D01*
X229218328Y-106675713D02*
X229218328Y-107032856D01*
X229218328Y-107032856D02*
X229146900Y-107175713D01*
X229146900Y-107175713D02*
X229075471Y-107247141D01*
X227718328Y-105104285D02*
X227718328Y-105389999D01*
X227718328Y-105389999D02*
X227789757Y-105532856D01*
X227789757Y-105532856D02*
X227861185Y-105604285D01*
X227861185Y-105604285D02*
X228075471Y-105747142D01*
X228075471Y-105747142D02*
X228361185Y-105818570D01*
X228361185Y-105818570D02*
X228932614Y-105818570D01*
X228932614Y-105818570D02*
X229075471Y-105747142D01*
X229075471Y-105747142D02*
X229146900Y-105675713D01*
X229146900Y-105675713D02*
X229218328Y-105532856D01*
X229218328Y-105532856D02*
X229218328Y-105247142D01*
X229218328Y-105247142D02*
X229146900Y-105104285D01*
X229146900Y-105104285D02*
X229075471Y-105032856D01*
X229075471Y-105032856D02*
X228932614Y-104961427D01*
X228932614Y-104961427D02*
X228575471Y-104961427D01*
X228575471Y-104961427D02*
X228432614Y-105032856D01*
X228432614Y-105032856D02*
X228361185Y-105104285D01*
X228361185Y-105104285D02*
X228289757Y-105247142D01*
X228289757Y-105247142D02*
X228289757Y-105532856D01*
X228289757Y-105532856D02*
X228361185Y-105675713D01*
X228361185Y-105675713D02*
X228432614Y-105747142D01*
X228432614Y-105747142D02*
X228575471Y-105818570D01*
X229075471Y-104318571D02*
X229146900Y-104247142D01*
X229146900Y-104247142D02*
X229218328Y-104318571D01*
X229218328Y-104318571D02*
X229146900Y-104389999D01*
X229146900Y-104389999D02*
X229075471Y-104318571D01*
X229075471Y-104318571D02*
X229218328Y-104318571D01*
X228361185Y-103389999D02*
X228289757Y-103532856D01*
X228289757Y-103532856D02*
X228218328Y-103604285D01*
X228218328Y-103604285D02*
X228075471Y-103675713D01*
X228075471Y-103675713D02*
X228004042Y-103675713D01*
X228004042Y-103675713D02*
X227861185Y-103604285D01*
X227861185Y-103604285D02*
X227789757Y-103532856D01*
X227789757Y-103532856D02*
X227718328Y-103389999D01*
X227718328Y-103389999D02*
X227718328Y-103104285D01*
X227718328Y-103104285D02*
X227789757Y-102961428D01*
X227789757Y-102961428D02*
X227861185Y-102889999D01*
X227861185Y-102889999D02*
X228004042Y-102818570D01*
X228004042Y-102818570D02*
X228075471Y-102818570D01*
X228075471Y-102818570D02*
X228218328Y-102889999D01*
X228218328Y-102889999D02*
X228289757Y-102961428D01*
X228289757Y-102961428D02*
X228361185Y-103104285D01*
X228361185Y-103104285D02*
X228361185Y-103389999D01*
X228361185Y-103389999D02*
X228432614Y-103532856D01*
X228432614Y-103532856D02*
X228504042Y-103604285D01*
X228504042Y-103604285D02*
X228646900Y-103675713D01*
X228646900Y-103675713D02*
X228932614Y-103675713D01*
X228932614Y-103675713D02*
X229075471Y-103604285D01*
X229075471Y-103604285D02*
X229146900Y-103532856D01*
X229146900Y-103532856D02*
X229218328Y-103389999D01*
X229218328Y-103389999D02*
X229218328Y-103104285D01*
X229218328Y-103104285D02*
X229146900Y-102961428D01*
X229146900Y-102961428D02*
X229075471Y-102889999D01*
X229075471Y-102889999D02*
X228932614Y-102818570D01*
X228932614Y-102818570D02*
X228646900Y-102818570D01*
X228646900Y-102818570D02*
X228504042Y-102889999D01*
X228504042Y-102889999D02*
X228432614Y-102961428D01*
X228432614Y-102961428D02*
X228361185Y-103104285D01*
X229218328Y-102104285D02*
X229218328Y-101818571D01*
X229218328Y-101818571D02*
X229146900Y-101675714D01*
X229146900Y-101675714D02*
X229075471Y-101604285D01*
X229075471Y-101604285D02*
X228861185Y-101461428D01*
X228861185Y-101461428D02*
X228575471Y-101389999D01*
X228575471Y-101389999D02*
X228004042Y-101389999D01*
X228004042Y-101389999D02*
X227861185Y-101461428D01*
X227861185Y-101461428D02*
X227789757Y-101532857D01*
X227789757Y-101532857D02*
X227718328Y-101675714D01*
X227718328Y-101675714D02*
X227718328Y-101961428D01*
X227718328Y-101961428D02*
X227789757Y-102104285D01*
X227789757Y-102104285D02*
X227861185Y-102175714D01*
X227861185Y-102175714D02*
X228004042Y-102247142D01*
X228004042Y-102247142D02*
X228361185Y-102247142D01*
X228361185Y-102247142D02*
X228504042Y-102175714D01*
X228504042Y-102175714D02*
X228575471Y-102104285D01*
X228575471Y-102104285D02*
X228646900Y-101961428D01*
X228646900Y-101961428D02*
X228646900Y-101675714D01*
X228646900Y-101675714D02*
X228575471Y-101532857D01*
X228575471Y-101532857D02*
X228504042Y-101461428D01*
X228504042Y-101461428D02*
X228361185Y-101389999D01*
X227718328Y-100104286D02*
X227718328Y-100390000D01*
X227718328Y-100390000D02*
X227789757Y-100532857D01*
X227789757Y-100532857D02*
X227861185Y-100604286D01*
X227861185Y-100604286D02*
X228075471Y-100747143D01*
X228075471Y-100747143D02*
X228361185Y-100818571D01*
X228361185Y-100818571D02*
X228932614Y-100818571D01*
X228932614Y-100818571D02*
X229075471Y-100747143D01*
X229075471Y-100747143D02*
X229146900Y-100675714D01*
X229146900Y-100675714D02*
X229218328Y-100532857D01*
X229218328Y-100532857D02*
X229218328Y-100247143D01*
X229218328Y-100247143D02*
X229146900Y-100104286D01*
X229146900Y-100104286D02*
X229075471Y-100032857D01*
X229075471Y-100032857D02*
X228932614Y-99961428D01*
X228932614Y-99961428D02*
X228575471Y-99961428D01*
X228575471Y-99961428D02*
X228432614Y-100032857D01*
X228432614Y-100032857D02*
X228361185Y-100104286D01*
X228361185Y-100104286D02*
X228289757Y-100247143D01*
X228289757Y-100247143D02*
X228289757Y-100532857D01*
X228289757Y-100532857D02*
X228361185Y-100675714D01*
X228361185Y-100675714D02*
X228432614Y-100747143D01*
X228432614Y-100747143D02*
X228575471Y-100818571D01*
X227718328Y-99032857D02*
X227718328Y-98890000D01*
X227718328Y-98890000D02*
X227789757Y-98747143D01*
X227789757Y-98747143D02*
X227861185Y-98675715D01*
X227861185Y-98675715D02*
X228004042Y-98604286D01*
X228004042Y-98604286D02*
X228289757Y-98532857D01*
X228289757Y-98532857D02*
X228646900Y-98532857D01*
X228646900Y-98532857D02*
X228932614Y-98604286D01*
X228932614Y-98604286D02*
X229075471Y-98675715D01*
X229075471Y-98675715D02*
X229146900Y-98747143D01*
X229146900Y-98747143D02*
X229218328Y-98890000D01*
X229218328Y-98890000D02*
X229218328Y-99032857D01*
X229218328Y-99032857D02*
X229146900Y-99175715D01*
X229146900Y-99175715D02*
X229075471Y-99247143D01*
X229075471Y-99247143D02*
X228932614Y-99318572D01*
X228932614Y-99318572D02*
X228646900Y-99390000D01*
X228646900Y-99390000D02*
X228289757Y-99390000D01*
X228289757Y-99390000D02*
X228004042Y-99318572D01*
X228004042Y-99318572D02*
X227861185Y-99247143D01*
X227861185Y-99247143D02*
X227789757Y-99175715D01*
X227789757Y-99175715D02*
X227718328Y-99032857D01*
D12*
X210660000Y-73160000D02*
X230926420Y-73160000D01*
X230926420Y-132620000D02*
X211140000Y-132620000D01*
X230340000Y-73160000D02*
X230340000Y-132620000D01*
X230340000Y-73160000D02*
X230926421Y-74286504D01*
X230340000Y-73160000D02*
X229753579Y-74286504D01*
X230340000Y-132620000D02*
X229753579Y-131493496D01*
X230340000Y-132620000D02*
X230926421Y-131493496D01*
D13*
%TO.P,J2,1,Pin_1*%
%TO.N,/VDD33*%
X161960000Y-84540000D03*
D14*
%TO.P,J2,2,Pin_2*%
%TO.N,/EN*%
X161960000Y-87080000D03*
%TO.P,J2,3,Pin_3*%
%TO.N,/SENSOR_VP*%
X161960000Y-89620000D03*
%TO.P,J2,4,Pin_4*%
%TO.N,/SENSOR_VN*%
X161960000Y-92160000D03*
%TO.P,J2,5,Pin_5*%
%TO.N,/IO34*%
X161960000Y-94700000D03*
%TO.P,J2,6,Pin_6*%
%TO.N,/IO35*%
X161960000Y-97240000D03*
%TO.P,J2,7,Pin_7*%
%TO.N,/IO32*%
X161960000Y-99780000D03*
%TO.P,J2,8,Pin_8*%
%TO.N,/IO33*%
X161960000Y-102320000D03*
%TO.P,J2,9,Pin_9*%
%TO.N,/IO25*%
X161960000Y-104860000D03*
%TO.P,J2,10,Pin_10*%
%TO.N,/IO26*%
X161960000Y-107400000D03*
%TO.P,J2,11,Pin_11*%
%TO.N,/IO27*%
X161960000Y-109940000D03*
%TO.P,J2,12,Pin_12*%
%TO.N,/IO14*%
X161960000Y-112480000D03*
%TO.P,J2,13,Pin_13*%
%TO.N,/IO12*%
X161960000Y-115020000D03*
%TO.P,J2,14,Pin_14*%
%TO.N,GND*%
X161960000Y-117560000D03*
%TO.P,J2,15,Pin_15*%
%TO.N,/IO13*%
X161960000Y-120100000D03*
%TO.P,J2,16,Pin_16*%
%TO.N,/SD2*%
X161960000Y-122640000D03*
%TO.P,J2,17,Pin_17*%
%TO.N,/SD3*%
X161960000Y-125180000D03*
%TO.P,J2,18,Pin_18*%
%TO.N,/CMD*%
X161960000Y-127720000D03*
%TO.P,J2,19,Pin_19*%
%TO.N,/EXT_5V*%
X161960000Y-130260000D03*
%TD*%
D15*
%TO.P,Q2,1,B*%
%TO.N,Net-(Q2-B)*%
X197190000Y-125180000D03*
%TO.P,Q2,2,E*%
%TO.N,/IO0*%
X197190000Y-127080000D03*
%TO.P,Q2,3,C*%
%TO.N,/DTR*%
X199290000Y-126130000D03*
%TD*%
D16*
%TO.P,R21,1*%
%TO.N,/DTR*%
X191835000Y-125370000D03*
%TO.P,R21,2*%
%TO.N,Net-(Q1-B)*%
X192335000Y-125370000D03*
%TD*%
%TO.P,R17,1*%
%TO.N,/TXDO*%
X196905000Y-95160000D03*
%TO.P,R17,2*%
%TO.N,/RXD*%
X197405000Y-95160000D03*
%TD*%
D17*
%TO.P,D1,1,K*%
%TO.N,GND*%
X182605000Y-103080000D03*
%TO.P,D1,2,A*%
%TO.N,Net-(D1-A)*%
X184180000Y-103080000D03*
%TD*%
D16*
%TO.P,C15,1*%
%TO.N,GND*%
X169865000Y-90920000D03*
%TO.P,C15,2*%
%TO.N,Net-(C15-Pad2)*%
X170365000Y-90920000D03*
%TD*%
%TO.P,R25,1*%
%TO.N,/VBUS*%
X167665000Y-127540000D03*
%TO.P,R25,2*%
%TO.N,Net-(U1-VBUS)*%
X168165000Y-127540000D03*
%TD*%
D18*
%TO.P,SW1,1,1*%
%TO.N,GND*%
X169450000Y-116280000D03*
X177400000Y-116280000D03*
%TO.P,SW1,2,2*%
%TO.N,Net-(C15-Pad2)*%
X169450000Y-120780000D03*
X177400000Y-120780000D03*
%TD*%
D16*
%TO.P,C14,1*%
%TO.N,GND*%
X199220000Y-117020000D03*
%TO.P,C14,2*%
%TO.N,Net-(C14-Pad2)*%
X199720000Y-117020000D03*
%TD*%
D19*
%TO.P,C21,1*%
%TO.N,/VDD33*%
X168780000Y-111720000D03*
%TO.P,C21,2*%
%TO.N,GND*%
X169420000Y-111720000D03*
%TD*%
D20*
%TO.P,J1,1,VBUS*%
%TO.N,/VBUS*%
X184120000Y-126550000D03*
%TO.P,J1,2,D-*%
%TO.N,/USB_DN*%
X183470000Y-126550000D03*
%TO.P,J1,3,D+*%
%TO.N,/USB_DP*%
X182820000Y-126550000D03*
%TO.P,J1,4,ID*%
%TO.N,unconnected-(J1-ID-Pad4)*%
X182170000Y-126550000D03*
%TO.P,J1,5,GND*%
%TO.N,GND*%
X181520000Y-126550000D03*
D21*
%TO.P,J1,6,Shield*%
X178645000Y-129225000D03*
D22*
X179082500Y-129225000D03*
D23*
X180595000Y-126225000D03*
D24*
X182820000Y-129225000D03*
D23*
X185045000Y-126225000D03*
D22*
X186557500Y-129225000D03*
D21*
X186995000Y-129225000D03*
%TD*%
D18*
%TO.P,SW2,1,1*%
%TO.N,GND*%
X188350000Y-116710000D03*
X196300000Y-116710000D03*
%TO.P,SW2,2,2*%
%TO.N,Net-(C14-Pad2)*%
X188350000Y-121210000D03*
X196300000Y-121210000D03*
%TD*%
D13*
%TO.P,J3,1,Pin_1*%
%TO.N,GND*%
X204880000Y-84360000D03*
D14*
%TO.P,J3,2,Pin_2*%
%TO.N,/IO23*%
X204880000Y-86900000D03*
%TO.P,J3,3,Pin_3*%
%TO.N,/IO22*%
X204880000Y-89440000D03*
%TO.P,J3,4,Pin_4*%
%TO.N,/TXDO*%
X204880000Y-91980000D03*
%TO.P,J3,5,Pin_5*%
%TO.N,/RXDO*%
X204880000Y-94520000D03*
%TO.P,J3,6,Pin_6*%
%TO.N,/IO21*%
X204880000Y-97060000D03*
%TO.P,J3,7,Pin_7*%
%TO.N,GND*%
X204880000Y-99600000D03*
%TO.P,J3,8,Pin_8*%
%TO.N,/IO19*%
X204880000Y-102140000D03*
%TO.P,J3,9,Pin_9*%
%TO.N,/IO18*%
X204880000Y-104680000D03*
%TO.P,J3,10,Pin_10*%
%TO.N,/IO5*%
X204880000Y-107220000D03*
%TO.P,J3,11,Pin_11*%
%TO.N,/IO17*%
X204880000Y-109760000D03*
%TO.P,J3,12,Pin_12*%
%TO.N,/IO16*%
X204880000Y-112300000D03*
%TO.P,J3,13,Pin_13*%
%TO.N,/IO4*%
X204880000Y-114840000D03*
%TO.P,J3,14,Pin_14*%
%TO.N,/IO0*%
X204880000Y-117380000D03*
%TO.P,J3,15,Pin_15*%
%TO.N,/IO2*%
X204880000Y-119920000D03*
%TO.P,J3,16,Pin_16*%
%TO.N,/IO15*%
X204880000Y-122460000D03*
%TO.P,J3,17,Pin_17*%
%TO.N,/SD1*%
X204880000Y-125000000D03*
%TO.P,J3,18,Pin_18*%
%TO.N,/SD0*%
X204880000Y-127540000D03*
%TO.P,J3,19,Pin_19*%
%TO.N,/CLK*%
X204880000Y-130080000D03*
%TD*%
D25*
%TO.P,D4,1,A1*%
%TO.N,GND*%
X188210000Y-102890000D03*
%TO.P,D4,2,A2*%
%TO.N,/USB_DN*%
X189610000Y-102890000D03*
%TD*%
D16*
%TO.P,R24,1*%
%TO.N,/VDD33*%
X173350000Y-130540000D03*
%TO.P,R24,2*%
%TO.N,Net-(U1-~{RST})*%
X173850000Y-130540000D03*
%TD*%
D19*
%TO.P,C3,1*%
%TO.N,/VDD33*%
X191785000Y-128710000D03*
%TO.P,C3,2*%
%TO.N,GND*%
X192425000Y-128710000D03*
%TD*%
D25*
%TO.P,D6,1,A1*%
%TO.N,/VBUS*%
X168870000Y-103060000D03*
%TO.P,D6,2,A2*%
%TO.N,GND*%
X170270000Y-103060000D03*
%TD*%
D16*
%TO.P,R22,1*%
%TO.N,/RTS*%
X170000000Y-96140000D03*
%TO.P,R22,2*%
%TO.N,Net-(Q2-B)*%
X170500000Y-96140000D03*
%TD*%
%TO.P,R26,1*%
%TO.N,Net-(U1-VBUS)*%
X191355000Y-112260000D03*
%TO.P,R26,2*%
%TO.N,GND*%
X191855000Y-112260000D03*
%TD*%
D19*
%TO.P,C1,1*%
%TO.N,/EXT_5V*%
X167400000Y-124750000D03*
%TO.P,C1,2*%
%TO.N,GND*%
X168040000Y-124750000D03*
%TD*%
D26*
%TO.P,MOD1,1,GND*%
%TO.N,GND*%
X175280000Y-81780000D03*
%TO.P,MOD1,2,VDD*%
%TO.N,/VDD33*%
X175280000Y-83050000D03*
%TO.P,MOD1,3,EN*%
%TO.N,/EN*%
X175280000Y-84320000D03*
%TO.P,MOD1,4,SENSOR_VP*%
%TO.N,/SENSOR_VP*%
X175280000Y-85590000D03*
%TO.P,MOD1,5,SENSOR_VN*%
%TO.N,/SENSOR_VN*%
X175280000Y-86860000D03*
%TO.P,MOD1,6,IO34*%
%TO.N,/IO34*%
X175280000Y-88130000D03*
%TO.P,MOD1,7,IO35*%
%TO.N,/IO35*%
X175280000Y-89400000D03*
%TO.P,MOD1,8,IO32*%
%TO.N,/IO32*%
X175280000Y-90670000D03*
%TO.P,MOD1,9,IO33*%
%TO.N,/IO33*%
X175280000Y-91940000D03*
%TO.P,MOD1,10,IO25*%
%TO.N,/IO25*%
X175280000Y-93210000D03*
%TO.P,MOD1,11,IO26*%
%TO.N,/IO26*%
X175280000Y-94480000D03*
%TO.P,MOD1,12,IO27*%
%TO.N,/IO27*%
X175280000Y-95750000D03*
%TO.P,MOD1,13,IO14*%
%TO.N,/IO14*%
X175280000Y-97020000D03*
%TO.P,MOD1,14,IO12*%
%TO.N,/IO12*%
X175280000Y-98290000D03*
D27*
%TO.P,MOD1,15,GND*%
%TO.N,GND*%
X178065000Y-99290000D03*
%TO.P,MOD1,16,IO13*%
%TO.N,/IO13*%
X179335000Y-99290000D03*
%TO.P,MOD1,17,SHD/SD2*%
%TO.N,/SD2*%
X180605000Y-99290000D03*
%TO.P,MOD1,18,SWP/SD3*%
%TO.N,/SD3*%
X181875000Y-99290000D03*
%TO.P,MOD1,19,SCS/CMD*%
%TO.N,/CMD*%
X183145000Y-99290000D03*
%TO.P,MOD1,20,SCK/CLK*%
%TO.N,/CLK*%
X184415000Y-99290000D03*
%TO.P,MOD1,21,SDO/SD0*%
%TO.N,/SD0*%
X185685000Y-99290000D03*
%TO.P,MOD1,22,SDI/SD1*%
%TO.N,/SD1*%
X186955000Y-99290000D03*
%TO.P,MOD1,23,IO15*%
%TO.N,/IO15*%
X188225000Y-99290000D03*
%TO.P,MOD1,24,IO2*%
%TO.N,/IO2*%
X189495000Y-99290000D03*
D26*
%TO.P,MOD1,25,IO0*%
%TO.N,/IO0*%
X192280000Y-98290000D03*
%TO.P,MOD1,26,IO4*%
%TO.N,/IO4*%
X192280000Y-97020000D03*
%TO.P,MOD1,27,IO16*%
%TO.N,/IO16*%
X192280000Y-95750000D03*
%TO.P,MOD1,28,IO17*%
%TO.N,/IO17*%
X192280000Y-94480000D03*
%TO.P,MOD1,29,IO5*%
%TO.N,/IO5*%
X192280000Y-93210000D03*
%TO.P,MOD1,30,IO18*%
%TO.N,/IO18*%
X192280000Y-91940000D03*
%TO.P,MOD1,31,IO19*%
%TO.N,/IO19*%
X192280000Y-90670000D03*
%TO.P,MOD1,32,NC*%
%TO.N,unconnected-(MOD1-NC-Pad32)*%
X192280000Y-89400000D03*
%TO.P,MOD1,33,IO21*%
%TO.N,/IO21*%
X192280000Y-88130000D03*
%TO.P,MOD1,34,RXD0/IO3*%
%TO.N,/RXDO*%
X192280000Y-86860000D03*
%TO.P,MOD1,35,TXD0/IO1*%
%TO.N,/TXDO*%
X192280000Y-85590000D03*
%TO.P,MOD1,36,IO22*%
%TO.N,/IO22*%
X192280000Y-84320000D03*
%TO.P,MOD1,37,IO23*%
%TO.N,/IO23*%
X192280000Y-83050000D03*
%TO.P,MOD1,38,GND*%
%TO.N,GND*%
X192280000Y-81780000D03*
D28*
%TO.P,MOD1,39,GND*%
X182780000Y-88280000D03*
%TD*%
D16*
%TO.P,R11,1*%
%TO.N,/VDD33*%
X197460000Y-109800000D03*
%TO.P,R11,2*%
%TO.N,/EN*%
X197960000Y-109800000D03*
%TD*%
D29*
%TO.P,U1,1,~{DCD}*%
%TO.N,/CDC*%
X180155000Y-118240000D03*
%TO.P,U1,2,~{RI}/CLK*%
%TO.N,/RI*%
X180155000Y-118740000D03*
%TO.P,U1,3,GND*%
%TO.N,GND*%
X180155000Y-119240000D03*
%TO.P,U1,4,D+*%
%TO.N,/USB_DP*%
X180155000Y-119740000D03*
%TO.P,U1,5,D-*%
%TO.N,/USB_DN*%
X180155000Y-120240000D03*
%TO.P,U1,6,VDD*%
%TO.N,/VDD33*%
X180155000Y-120740000D03*
%TO.P,U1,7,VREGIN*%
X180155000Y-121240000D03*
D30*
%TO.P,U1,8,VBUS*%
%TO.N,Net-(U1-VBUS)*%
X181017500Y-122102500D03*
%TO.P,U1,9,~{RST}*%
%TO.N,Net-(U1-~{RST})*%
X181517500Y-122102500D03*
%TO.P,U1,10,NC*%
%TO.N,unconnected-(U1-NC-Pad10)*%
X182017500Y-122102500D03*
%TO.P,U1,11,~{SUSPEND}*%
%TO.N,Net-(U1-~{SUSPEND})*%
X182517500Y-122102500D03*
%TO.P,U1,12,SUSPEND*%
%TO.N,unconnected-(U1-SUSPEND-Pad12)*%
X183017500Y-122102500D03*
%TO.P,U1,13,CHREN*%
%TO.N,unconnected-(U1-CHREN-Pad13)*%
X183517500Y-122102500D03*
%TO.P,U1,14,CHR1*%
%TO.N,unconnected-(U1-CHR1-Pad14)*%
X184017500Y-122102500D03*
D29*
%TO.P,U1,15,CHR0*%
%TO.N,unconnected-(U1-CHR0-Pad15)*%
X184880000Y-121240000D03*
%TO.P,U1,16,~{WAKEUP}/GPIO.3*%
%TO.N,unconnected-(U1-~{WAKEUP}{slash}GPIO.3-Pad16)*%
X184880000Y-120740000D03*
%TO.P,U1,17,RS485/GPIO.2*%
%TO.N,unconnected-(U1-RS485{slash}GPIO.2-Pad17)*%
X184880000Y-120240000D03*
%TO.P,U1,18,~{RXT}/GPIO.1*%
%TO.N,unconnected-(U1-~{RXT}{slash}GPIO.1-Pad18)*%
X184880000Y-119740000D03*
%TO.P,U1,19,~{TXT}/GPIO.0*%
%TO.N,unconnected-(U1-~{TXT}{slash}GPIO.0-Pad19)*%
X184880000Y-119240000D03*
%TO.P,U1,20,GPIO.6*%
%TO.N,unconnected-(U1-GPIO.6-Pad20)*%
X184880000Y-118740000D03*
%TO.P,U1,21,GPIO.5*%
%TO.N,unconnected-(U1-GPIO.5-Pad21)*%
X184880000Y-118240000D03*
D30*
%TO.P,U1,22,GPIO.4*%
%TO.N,unconnected-(U1-GPIO.4-Pad22)*%
X184017500Y-117377500D03*
%TO.P,U1,23,~{CTS}*%
%TO.N,/CTS*%
X183517500Y-117377500D03*
%TO.P,U1,24,~{RTS}*%
%TO.N,/RTS*%
X183017500Y-117377500D03*
%TO.P,U1,25,RXD*%
%TO.N,/RXD*%
X182517500Y-117377500D03*
%TO.P,U1,26,TXD*%
%TO.N,/TXD*%
X182017500Y-117377500D03*
%TO.P,U1,27,~{DSR}*%
%TO.N,/DSR*%
X181517500Y-117377500D03*
%TO.P,U1,28,~{DTR}*%
%TO.N,/DTR*%
X181017500Y-117377500D03*
D31*
%TO.P,U1,29,GND*%
%TO.N,GND*%
X182517500Y-119740000D03*
%TD*%
D16*
%TO.P,C9,1*%
%TO.N,/EN*%
X196740000Y-91600000D03*
%TO.P,C9,2*%
%TO.N,GND*%
X197240000Y-91600000D03*
%TD*%
%TO.P,C19,1*%
%TO.N,/VDD33*%
X175530000Y-111660000D03*
%TO.P,C19,2*%
%TO.N,GND*%
X176030000Y-111660000D03*
%TD*%
%TO.P,R18,1*%
%TO.N,/RXDO*%
X197700000Y-107080000D03*
%TO.P,R18,2*%
%TO.N,/TXD*%
X198200000Y-107080000D03*
%TD*%
D32*
%TO.P,U2,1,GND*%
%TO.N,GND*%
X187780000Y-113060000D03*
%TO.P,U2,2,VO*%
%TO.N,/VDD33*%
X187780000Y-110760000D03*
D33*
X181480000Y-110760000D03*
D32*
%TO.P,U2,3,VI*%
%TO.N,/EXT_5V*%
X187780000Y-108460000D03*
%TD*%
D34*
%TO.P,D3,1,K*%
%TO.N,/EXT_5V*%
X196390000Y-103090000D03*
%TO.P,D3,2,A*%
%TO.N,/VBUS*%
X198490000Y-103090000D03*
%TD*%
D15*
%TO.P,Q1,1,B*%
%TO.N,Net-(Q1-B)*%
X170170000Y-125410000D03*
%TO.P,Q1,2,E*%
%TO.N,/RTS*%
X170170000Y-127310000D03*
%TO.P,Q1,3,C*%
%TO.N,/EN*%
X172270000Y-126360000D03*
%TD*%
D16*
%TO.P,C22,1*%
%TO.N,/VDD33*%
X168675000Y-107950000D03*
%TO.P,C22,2*%
%TO.N,GND*%
X169175000Y-107950000D03*
%TD*%
%TO.P,R23,1*%
%TO.N,Net-(U1-~{SUSPEND})*%
X191030000Y-108270000D03*
%TO.P,R23,2*%
%TO.N,GND*%
X191530000Y-108270000D03*
%TD*%
%TO.P,C20,1*%
%TO.N,/VDD33*%
X176115000Y-108680000D03*
%TO.P,C20,2*%
%TO.N,GND*%
X176615000Y-108680000D03*
%TD*%
D25*
%TO.P,D5,1,A1*%
%TO.N,GND*%
X175560000Y-103130000D03*
%TO.P,D5,2,A2*%
%TO.N,/USB_DP*%
X176960000Y-103130000D03*
%TD*%
D16*
%TO.P,R2,1*%
%TO.N,/EXT_5V*%
X195740000Y-130560000D03*
%TO.P,R2,2*%
%TO.N,Net-(D1-A)*%
X196240000Y-130560000D03*
%TD*%
D35*
%TO.N,/EXT_5V*%
X193890000Y-104930000D03*
X189850000Y-129560000D03*
X187610000Y-106370000D03*
X189790000Y-108480000D03*
%TO.N,GND*%
X197280000Y-92180000D03*
X169300000Y-117470000D03*
X177640000Y-111020000D03*
X180620000Y-127330000D03*
X191390000Y-130880000D03*
X177620000Y-108810000D03*
%TO.N,/VDD33*%
X170790000Y-109990000D03*
X174720000Y-111740000D03*
X174950000Y-117620000D03*
X189230000Y-109710000D03*
X194820000Y-109780000D03*
X169320000Y-91650000D03*
X170990000Y-83420000D03*
X168000000Y-109890000D03*
%TO.N,/EN*%
X196630000Y-87310000D03*
X185090000Y-84160000D03*
X197640000Y-99190000D03*
X198880000Y-109760000D03*
X178540000Y-83930000D03*
X172010000Y-130690000D03*
X171080000Y-86370000D03*
X197000000Y-104820000D03*
X198150000Y-92750000D03*
X199780000Y-95430000D03*
X183060000Y-82380000D03*
%TO.N,Net-(C15-Pad2)*%
X171190000Y-120720000D03*
X169640000Y-104440000D03*
%TO.N,Net-(D1-A)*%
X194230000Y-127060000D03*
X185370000Y-103290000D03*
X193140000Y-115810000D03*
%TO.N,/VBUS*%
X167760000Y-131090000D03*
X198310000Y-104790000D03*
X169450000Y-101790000D03*
X184060000Y-127480000D03*
X166690000Y-127560000D03*
X168640000Y-104660000D03*
%TO.N,/USB_DN*%
X178450000Y-123600000D03*
X183390000Y-124020000D03*
X187030000Y-101640000D03*
X180070000Y-123040000D03*
%TO.N,/USB_DP*%
X182490000Y-124420000D03*
X178840000Y-120080000D03*
X176990000Y-104540000D03*
%TO.N,/SD2*%
X180710000Y-97520000D03*
%TO.N,/CMD*%
X169400000Y-82570000D03*
X183190000Y-97690000D03*
%TO.N,/IO34*%
X173600000Y-88490000D03*
%TO.N,/IO14*%
X173220000Y-97500000D03*
X167330000Y-100040000D03*
%TO.N,/IO25*%
X173630000Y-93330000D03*
%TO.N,/SENSOR_VN*%
X173330000Y-87010000D03*
%TO.N,/IO35*%
X172790000Y-89530000D03*
%TO.N,/IO13*%
X179290000Y-97490000D03*
%TO.N,/IO33*%
X173510000Y-92070000D03*
%TO.N,/IO27*%
X173340000Y-96080000D03*
%TO.N,/IO12*%
X172610000Y-102400000D03*
X167780000Y-113980000D03*
%TO.N,/SENSOR_VP*%
X173670000Y-85870000D03*
%TO.N,/SD3*%
X181780000Y-97610000D03*
%TO.N,/IO32*%
X173620000Y-90970000D03*
%TO.N,/IO26*%
X172670000Y-94560000D03*
%TO.N,/IO22*%
X195290000Y-84720000D03*
%TO.N,/IO19*%
X194410000Y-90980000D03*
X196750000Y-99850000D03*
%TO.N,/SD0*%
X185790000Y-97700000D03*
%TO.N,/RXDO*%
X194000000Y-87000000D03*
X198550000Y-106020000D03*
%TO.N,/IO2*%
X205510000Y-82470000D03*
X189200000Y-97750000D03*
%TO.N,/IO15*%
X188110000Y-97900000D03*
%TO.N,/IO21*%
X194060000Y-88240000D03*
%TO.N,/IO23*%
X193960000Y-83350000D03*
%TO.N,/SD1*%
X186750000Y-97440000D03*
%TO.N,/CLK*%
X188360000Y-126580000D03*
X186230000Y-106530000D03*
X184530000Y-101180000D03*
%TO.N,/IO16*%
X193980000Y-95890000D03*
X193940000Y-105890000D03*
%TO.N,/IO18*%
X193810000Y-92180000D03*
X202900000Y-105950000D03*
%TO.N,Net-(Q1-B)*%
X176750000Y-126800000D03*
X193200000Y-125390000D03*
%TO.N,/RTS*%
X172120000Y-125370000D03*
X169760000Y-97220000D03*
X184040000Y-116250000D03*
X180210000Y-121890000D03*
%TO.N,/DTR*%
X186950000Y-122320000D03*
X180860000Y-116540000D03*
%TO.N,Net-(Q2-B)*%
X189190000Y-114020000D03*
X170890000Y-96840000D03*
X189180000Y-123870000D03*
X171830000Y-103770000D03*
X186170000Y-108700000D03*
%TO.N,/RXD*%
X197170000Y-98400000D03*
X182820000Y-115870000D03*
%TO.N,/TXD*%
X198290000Y-108440000D03*
X195470000Y-113920000D03*
%TO.N,Net-(U1-~{SUSPEND})*%
X190870000Y-110150000D03*
X182500000Y-123310000D03*
%TO.N,Net-(U1-~{RST})*%
X181230000Y-123940000D03*
X174140000Y-129460000D03*
%TO.N,Net-(U1-VBUS)*%
X180220000Y-123920000D03*
X169830000Y-130570000D03*
X191050000Y-113970000D03*
%TD*%
D36*
%TO.N,/EXT_5V*%
X187610000Y-106370000D02*
X187610000Y-108290000D01*
X166080000Y-128960000D02*
X166080000Y-124640000D01*
X190660000Y-131200000D02*
X190660000Y-131740000D01*
X189850000Y-129560000D02*
X189850000Y-130390000D01*
X166080000Y-124640000D02*
X167290000Y-124640000D01*
X195740000Y-130560000D02*
X195740000Y-131950710D01*
X161900000Y-131820000D02*
X161900000Y-130320000D01*
X161960000Y-130260000D02*
X164780000Y-130260000D01*
X190580000Y-131820000D02*
X161900000Y-131820000D01*
X167290000Y-124640000D02*
X167400000Y-124750000D01*
X187780000Y-108460000D02*
X189770000Y-108460000D01*
X164780000Y-130260000D02*
X166080000Y-128960000D01*
X195740000Y-131950710D02*
X195629995Y-132060715D01*
X189770000Y-108460000D02*
X189790000Y-108480000D01*
X190660000Y-131740000D02*
X190580000Y-131820000D01*
X187610000Y-108290000D02*
X187780000Y-108460000D01*
X195730000Y-103090000D02*
X193890000Y-104930000D01*
X189850000Y-130390000D02*
X190660000Y-131200000D01*
X195629995Y-132060715D02*
X195389280Y-131820000D01*
X195389280Y-131820000D02*
X190580000Y-131820000D01*
X196390000Y-103090000D02*
X195730000Y-103090000D01*
X161900000Y-130320000D02*
X161960000Y-130260000D01*
%TO.N,GND*%
X181520000Y-128380000D02*
X181520000Y-126550000D01*
X170270000Y-104740000D02*
X170270000Y-103060000D01*
X176030000Y-112510000D02*
X176030000Y-111660000D01*
X196410000Y-116600000D02*
X196300000Y-116710000D01*
X177000000Y-111660000D02*
X177640000Y-111020000D01*
X175490000Y-103060000D02*
X175560000Y-103130000D01*
X182630000Y-104250000D02*
X188290000Y-104250000D01*
X169450000Y-115290000D02*
X169700000Y-115040000D01*
X170660000Y-82790000D02*
X169865000Y-83585000D01*
X177620000Y-108810000D02*
X176745000Y-108810000D01*
X176190000Y-112670000D02*
X176030000Y-112510000D01*
X182517500Y-119877500D02*
X182880000Y-120240000D01*
X169300000Y-117470000D02*
X169200000Y-117570000D01*
X192280000Y-81780000D02*
X205150000Y-81780000D01*
X182517500Y-119740000D02*
X182517500Y-119877500D01*
X180155000Y-119240000D02*
X182017500Y-119240000D01*
X173020000Y-103060000D02*
X175490000Y-103060000D01*
X173040000Y-81740000D02*
X171990000Y-82790000D01*
X169175000Y-105835000D02*
X170270000Y-104740000D01*
X181410000Y-128490000D02*
X181520000Y-128380000D01*
X188210000Y-104170000D02*
X188210000Y-102890000D01*
X169700000Y-112670000D02*
X176190000Y-112670000D01*
X176745000Y-108810000D02*
X176615000Y-108680000D01*
X197240000Y-92140000D02*
X197280000Y-92180000D01*
X205210000Y-81840000D02*
X204880000Y-82170000D01*
X192990000Y-129275000D02*
X192425000Y-128710000D01*
X182605000Y-103080000D02*
X180990000Y-103080000D01*
X181130000Y-81550000D02*
X180900000Y-81780000D01*
X169175000Y-107950000D02*
X169175000Y-105835000D01*
X169700000Y-115040000D02*
X169700000Y-112670000D01*
X171990000Y-82790000D02*
X170660000Y-82790000D01*
X191855000Y-111300000D02*
X189540000Y-111300000D01*
X198910000Y-116710000D02*
X199220000Y-117020000D01*
X191855000Y-112260000D02*
X196350000Y-112260000D01*
X182605000Y-104225000D02*
X182630000Y-104250000D01*
X181335000Y-81755000D02*
X192255000Y-81755000D01*
X180900000Y-81780000D02*
X175280000Y-81780000D01*
X192255000Y-81755000D02*
X192280000Y-81780000D01*
X169420000Y-111720000D02*
X169420000Y-108195000D01*
X191570000Y-130700000D02*
X192990000Y-130700000D01*
X180155000Y-119240000D02*
X178860000Y-119240000D01*
X191390000Y-130880000D02*
X191570000Y-130700000D01*
X205150000Y-81780000D02*
X205210000Y-81840000D01*
X168040000Y-123210000D02*
X168040000Y-124750000D01*
X188290000Y-104250000D02*
X188210000Y-104170000D01*
X182820000Y-129225000D02*
X186557500Y-129225000D01*
X178065000Y-92995000D02*
X182780000Y-88280000D01*
X189540000Y-111300000D02*
X187780000Y-113060000D01*
X192150000Y-107650000D02*
X191530000Y-108270000D01*
X180990000Y-103080000D02*
X178065000Y-100155000D01*
X196350000Y-112260000D02*
X196410000Y-112320000D01*
X175280000Y-81780000D02*
X175240000Y-81740000D01*
X178860000Y-119240000D02*
X177400000Y-117780000D01*
X182820000Y-129225000D02*
X182145000Y-129225000D01*
X190050000Y-104720000D02*
X192150000Y-104720000D01*
X169420000Y-108195000D02*
X169175000Y-107950000D01*
X188210000Y-104180000D02*
X189400000Y-105370000D01*
X188210000Y-102890000D02*
X188210000Y-104180000D01*
X178065000Y-100155000D02*
X178065000Y-99290000D01*
X192150000Y-104720000D02*
X192150000Y-107650000D01*
X187780000Y-113060000D02*
X187780000Y-116140000D01*
X167320000Y-117570000D02*
X167320000Y-122210000D01*
X167320000Y-122210000D02*
X168180000Y-123070000D01*
X168180000Y-123070000D02*
X168040000Y-123210000D01*
X187780000Y-116140000D02*
X188350000Y-116710000D01*
X169450000Y-116280000D02*
X169450000Y-115290000D01*
X182780000Y-83200000D02*
X181335000Y-81755000D01*
X169700000Y-112670000D02*
X169700000Y-112000000D01*
X175240000Y-81740000D02*
X173040000Y-81740000D01*
X189400000Y-105370000D02*
X190050000Y-104720000D01*
X197240000Y-91600000D02*
X197240000Y-92140000D01*
X177400000Y-117780000D02*
X177400000Y-116280000D01*
X196300000Y-116710000D02*
X198910000Y-116710000D01*
X169865000Y-83585000D02*
X169865000Y-90920000D01*
X182780000Y-88280000D02*
X182780000Y-83200000D01*
X169300000Y-116430000D02*
X169450000Y-116280000D01*
X169300000Y-117470000D02*
X169300000Y-116430000D01*
X169700000Y-112000000D02*
X169420000Y-111720000D01*
X204880000Y-82170000D02*
X204880000Y-84360000D01*
X191530000Y-110440000D02*
X191990000Y-110900000D01*
X182017500Y-119240000D02*
X182517500Y-119740000D01*
X176790000Y-99290000D02*
X178065000Y-99290000D01*
X177400000Y-116280000D02*
X169450000Y-116280000D01*
X197830000Y-84360000D02*
X197240000Y-84950000D01*
X182145000Y-129225000D02*
X181410000Y-128490000D01*
X176030000Y-111660000D02*
X177000000Y-111660000D01*
X191990000Y-110900000D02*
X191855000Y-111035000D01*
X191530000Y-108270000D02*
X191530000Y-110440000D01*
X169200000Y-117570000D02*
X167320000Y-117570000D01*
X191855000Y-111300000D02*
X191855000Y-112260000D01*
X197240000Y-84950000D02*
X197240000Y-91600000D01*
X181335000Y-81755000D02*
X181130000Y-81550000D01*
X192990000Y-130700000D02*
X192990000Y-129275000D01*
X170270000Y-103060000D02*
X173020000Y-103060000D01*
X182605000Y-103080000D02*
X182605000Y-104225000D01*
X204880000Y-84360000D02*
X197830000Y-84360000D01*
X178065000Y-99290000D02*
X178065000Y-92995000D01*
X196410000Y-112320000D02*
X196410000Y-116600000D01*
X173020000Y-103060000D02*
X176790000Y-99290000D01*
X191855000Y-111035000D02*
X191855000Y-111300000D01*
%TO.N,/VDD33*%
X174210000Y-128770000D02*
X174160000Y-128820000D01*
X188870000Y-131010000D02*
X188640000Y-131240000D01*
X176590000Y-124310000D02*
X174640000Y-122360000D01*
X187780000Y-110760000D02*
X181480000Y-110760000D01*
X179195000Y-125205000D02*
X175630000Y-128770000D01*
X171090000Y-110290000D02*
X170790000Y-109990000D01*
X180530000Y-110760000D02*
X180060000Y-110290000D01*
X176115000Y-110185000D02*
X176010000Y-110290000D01*
X172190000Y-83420000D02*
X172560000Y-83050000D01*
X188180000Y-110760000D02*
X187780000Y-110760000D01*
X176115000Y-108680000D02*
X176115000Y-110185000D01*
X189230000Y-109710000D02*
X188180000Y-110760000D01*
X190550000Y-128710000D02*
X190460000Y-128800000D01*
X191785000Y-128710000D02*
X190550000Y-128710000D01*
X168110000Y-111730000D02*
X168120000Y-111720000D01*
X180155000Y-120740000D02*
X180155000Y-121240000D01*
X170990000Y-83420000D02*
X172190000Y-83420000D01*
X179120000Y-125130000D02*
X179195000Y-125205000D01*
X174640000Y-122360000D02*
X174640000Y-117930000D01*
X175530000Y-110310000D02*
X175510000Y-110290000D01*
X197460000Y-109800000D02*
X194840000Y-109800000D01*
X179120000Y-124310000D02*
X179120000Y-125130000D01*
X174160000Y-128820000D02*
X173030000Y-128820000D01*
X188640000Y-131240000D02*
X173290000Y-131240000D01*
X175630000Y-128770000D02*
X174210000Y-128770000D01*
X168000000Y-109890000D02*
X167950000Y-109840000D01*
X168000000Y-111620000D02*
X168110000Y-111730000D01*
X179120000Y-121550000D02*
X179120000Y-124310000D01*
X173030000Y-128820000D02*
X173030000Y-130220000D01*
X180060000Y-110290000D02*
X176010000Y-110290000D01*
X174720000Y-111740000D02*
X175450000Y-111740000D01*
X174640000Y-117930000D02*
X174950000Y-117620000D01*
X168585000Y-107860000D02*
X168675000Y-107950000D01*
X179120000Y-124310000D02*
X176590000Y-124310000D01*
X172560000Y-83050000D02*
X175280000Y-83050000D01*
X175510000Y-110290000D02*
X171090000Y-110290000D01*
X176010000Y-110290000D02*
X175510000Y-110290000D01*
X188870000Y-128840000D02*
X188870000Y-131010000D01*
X168120000Y-111720000D02*
X168780000Y-111720000D01*
X194840000Y-109800000D02*
X194820000Y-109780000D01*
X173030000Y-130220000D02*
X173350000Y-130540000D01*
X167950000Y-93010000D02*
X169310000Y-91650000D01*
X190460000Y-128800000D02*
X188910000Y-128800000D01*
X167950000Y-107860000D02*
X167950000Y-93010000D01*
X168000000Y-109890000D02*
X168000000Y-111620000D01*
X180155000Y-121240000D02*
X179430000Y-121240000D01*
X188910000Y-128800000D02*
X188870000Y-128840000D01*
X173290000Y-131240000D02*
X173230000Y-131300000D01*
X169310000Y-91650000D02*
X169320000Y-91650000D01*
X175530000Y-111660000D02*
X175530000Y-110310000D01*
X179430000Y-121240000D02*
X179120000Y-121550000D01*
X173230000Y-131300000D02*
X173230000Y-130660000D01*
X181480000Y-110760000D02*
X180530000Y-110760000D01*
X175450000Y-111740000D02*
X175530000Y-111660000D01*
X167950000Y-107860000D02*
X168585000Y-107860000D01*
X173230000Y-130660000D02*
X173350000Y-130540000D01*
X167950000Y-109840000D02*
X167950000Y-107860000D01*
%TO.N,/EN*%
X198150000Y-92750000D02*
X197840000Y-93060000D01*
X198110000Y-109650000D02*
X198110000Y-109280000D01*
X173130000Y-84320000D02*
X171080000Y-86370000D01*
X172270000Y-126360000D02*
X172010000Y-126620000D01*
X197160000Y-108790000D02*
X197000000Y-108630000D01*
X196700000Y-93060000D02*
X196400000Y-92760000D01*
X198880000Y-109760000D02*
X198000000Y-109760000D01*
X172010000Y-126620000D02*
X172010000Y-130690000D01*
X196740000Y-91600000D02*
X196630000Y-91490000D01*
X196630000Y-91490000D02*
X196630000Y-87310000D01*
X198110000Y-109280000D02*
X197650000Y-109280000D01*
X197640000Y-99190000D02*
X197640000Y-98870000D01*
X197930000Y-97970000D02*
X197900000Y-97940000D01*
X197900000Y-97940000D02*
X197900000Y-97310000D01*
X196400000Y-91610000D02*
X196730000Y-91610000D01*
X197900000Y-97310000D02*
X199780000Y-95430000D01*
X198000000Y-109760000D02*
X197960000Y-109800000D01*
X178540000Y-83930000D02*
X175670000Y-83930000D01*
X175280000Y-84320000D02*
X173130000Y-84320000D01*
X175670000Y-83930000D02*
X175280000Y-84320000D01*
X197840000Y-93060000D02*
X196700000Y-93060000D01*
X197000000Y-108630000D02*
X197000000Y-104820000D01*
X197640000Y-98870000D02*
X197930000Y-98580000D01*
X184840000Y-84160000D02*
X183060000Y-82380000D01*
X197960000Y-109800000D02*
X198110000Y-109650000D01*
X197930000Y-98580000D02*
X197930000Y-97970000D01*
X185090000Y-84160000D02*
X184840000Y-84160000D01*
X197650000Y-109280000D02*
X197160000Y-108790000D01*
X196730000Y-91610000D02*
X196740000Y-91600000D01*
X196400000Y-92760000D02*
X196400000Y-91610000D01*
%TO.N,Net-(C14-Pad2)*%
X199230000Y-121210000D02*
X196300000Y-121210000D01*
X199720000Y-117020000D02*
X199720000Y-121100000D01*
X199720000Y-121100000D02*
X199420000Y-121400000D01*
X196300000Y-121210000D02*
X188350000Y-121210000D01*
X199420000Y-121400000D02*
X199230000Y-121210000D01*
%TO.N,Net-(C15-Pad2)*%
X169680000Y-102630000D02*
X169640000Y-102670000D01*
X171010000Y-102340000D02*
X170350000Y-102340000D01*
X170350000Y-102340000D02*
X169970000Y-102340000D01*
X170365000Y-90920000D02*
X171760000Y-90920000D01*
X171190000Y-120720000D02*
X169510000Y-120720000D01*
X175900000Y-116990000D02*
X177400000Y-118490000D01*
X173200000Y-120720000D02*
X174060000Y-119860000D01*
X169510000Y-120720000D02*
X169450000Y-120780000D01*
X169970000Y-102340000D02*
X169680000Y-102630000D01*
X171780000Y-90900000D02*
X171780000Y-101570000D01*
X177400000Y-118490000D02*
X177400000Y-120780000D01*
X174060000Y-116990000D02*
X175900000Y-116990000D01*
X171780000Y-101570000D02*
X171750000Y-101600000D01*
X169640000Y-102670000D02*
X169640000Y-104440000D01*
X171190000Y-120720000D02*
X173200000Y-120720000D01*
X174060000Y-119860000D02*
X174060000Y-116990000D01*
X171760000Y-90920000D02*
X171780000Y-90900000D01*
X171750000Y-101600000D02*
X171010000Y-102340000D01*
%TO.N,Net-(D1-A)*%
X185370000Y-103290000D02*
X184390000Y-103290000D01*
X196240000Y-129070000D02*
X194230000Y-127060000D01*
X184390000Y-103290000D02*
X184180000Y-103080000D01*
X196240000Y-130560000D02*
X196240000Y-129070000D01*
%TO.N,/VBUS*%
X166710000Y-127540000D02*
X166690000Y-127560000D01*
X167665000Y-127895000D02*
X167665000Y-127540000D01*
X168640000Y-104660000D02*
X168640000Y-103290000D01*
X167665000Y-127540000D02*
X166710000Y-127540000D01*
X198310000Y-103270000D02*
X198490000Y-103090000D01*
X184120000Y-126550000D02*
X184120000Y-127420000D01*
X168640000Y-103290000D02*
X168870000Y-103060000D01*
X168870000Y-102370000D02*
X169450000Y-101790000D01*
X184120000Y-127420000D02*
X184060000Y-127480000D01*
X198310000Y-104790000D02*
X198310000Y-103270000D01*
X167760000Y-131090000D02*
X167760000Y-128160000D01*
X167580000Y-127980000D02*
X167665000Y-127895000D01*
X167760000Y-128160000D02*
X167580000Y-127980000D01*
X168870000Y-103060000D02*
X168870000Y-102370000D01*
%TO.N,/USB_DN*%
X189470000Y-101640000D02*
X187030000Y-101640000D01*
X183390000Y-124020000D02*
X183390000Y-125200000D01*
X183470000Y-125280000D02*
X183470000Y-126550000D01*
X180155000Y-120240000D02*
X179580000Y-120240000D01*
X189610000Y-102890000D02*
X189700000Y-102800000D01*
X189700000Y-102800000D02*
X189700000Y-101410000D01*
X179202157Y-120902157D02*
X178450000Y-121654314D01*
X179230000Y-120590000D02*
X179202157Y-120617843D01*
X179580000Y-120240000D02*
X179230000Y-120590000D01*
X183390000Y-125200000D02*
X183470000Y-125280000D01*
X189700000Y-101410000D02*
X189470000Y-101640000D01*
X178450000Y-121654314D02*
X178450000Y-123600000D01*
X179202157Y-120617843D02*
X179202157Y-120902157D01*
%TO.N,/USB_DP*%
X178860000Y-120100000D02*
X178840000Y-120080000D01*
X180155000Y-119740000D02*
X179470000Y-119740000D01*
X176990000Y-103160000D02*
X176960000Y-103130000D01*
X176990000Y-104540000D02*
X176990000Y-103160000D01*
X182690000Y-124810000D02*
X182690000Y-126420000D01*
X182690000Y-126420000D02*
X182820000Y-126550000D01*
X182600000Y-124420000D02*
X182840000Y-124660000D01*
X182840000Y-124660000D02*
X182690000Y-124810000D01*
X179470000Y-119740000D02*
X179110000Y-120100000D01*
X179110000Y-120100000D02*
X178860000Y-120100000D01*
X182490000Y-124420000D02*
X182600000Y-124420000D01*
%TO.N,/SD2*%
X180710000Y-97520000D02*
X180710000Y-99185000D01*
X180710000Y-99185000D02*
X180605000Y-99290000D01*
%TO.N,/CMD*%
X160570000Y-82330000D02*
X169160000Y-82330000D01*
X183190000Y-97690000D02*
X183190000Y-99245000D01*
X161960000Y-127720000D02*
X161880000Y-127800000D01*
X169160000Y-82330000D02*
X169400000Y-82570000D01*
X161880000Y-127800000D02*
X160600000Y-127800000D01*
X160600000Y-127800000D02*
X160600000Y-82360000D01*
X183190000Y-99245000D02*
X183145000Y-99290000D01*
X160600000Y-82360000D02*
X160570000Y-82330000D01*
%TO.N,/IO34*%
X173600000Y-88490000D02*
X174920000Y-88490000D01*
X174920000Y-88490000D02*
X175280000Y-88130000D01*
%TO.N,/IO14*%
X161960000Y-112480000D02*
X167120000Y-112480000D01*
X167130000Y-100240000D02*
X167330000Y-100040000D01*
X174800000Y-97500000D02*
X175280000Y-97020000D01*
X173220000Y-97500000D02*
X174800000Y-97500000D01*
X167120000Y-112480000D02*
X167130000Y-112490000D01*
X167130000Y-112490000D02*
X167130000Y-100240000D01*
%TO.N,/IO25*%
X175160000Y-93330000D02*
X175280000Y-93210000D01*
X173630000Y-93330000D02*
X175160000Y-93330000D01*
%TO.N,/SENSOR_VN*%
X173330000Y-87010000D02*
X175130000Y-87010000D01*
X175130000Y-87010000D02*
X175280000Y-86860000D01*
%TO.N,/IO35*%
X175150000Y-89530000D02*
X175280000Y-89400000D01*
X172790000Y-89530000D02*
X175150000Y-89530000D01*
%TO.N,/IO13*%
X179290000Y-97490000D02*
X179290000Y-99245000D01*
X179290000Y-99245000D02*
X179335000Y-99290000D01*
%TO.N,/IO33*%
X175150000Y-92070000D02*
X175280000Y-91940000D01*
X173510000Y-92070000D02*
X175150000Y-92070000D01*
%TO.N,/IO27*%
X173340000Y-96080000D02*
X174950000Y-96080000D01*
X174950000Y-96080000D02*
X175280000Y-95750000D01*
%TO.N,/IO12*%
X166740000Y-115020000D02*
X167780000Y-113980000D01*
X161960000Y-115020000D02*
X166740000Y-115020000D01*
X172610000Y-100960000D02*
X175280000Y-98290000D01*
X172610000Y-102400000D02*
X172610000Y-100960000D01*
%TO.N,/SENSOR_VP*%
X175000000Y-85870000D02*
X175280000Y-85590000D01*
X173670000Y-85870000D02*
X175000000Y-85870000D01*
%TO.N,/SD3*%
X181780000Y-99195000D02*
X181875000Y-99290000D01*
X181780000Y-97610000D02*
X181780000Y-99195000D01*
%TO.N,/IO32*%
X173620000Y-90970000D02*
X174980000Y-90970000D01*
X174980000Y-90970000D02*
X175280000Y-90670000D01*
%TO.N,/IO26*%
X175200000Y-94560000D02*
X175280000Y-94480000D01*
X172670000Y-94560000D02*
X175200000Y-94560000D01*
%TO.N,/IO22*%
X195290000Y-84720000D02*
X192680000Y-84720000D01*
X192680000Y-84720000D02*
X192280000Y-84320000D01*
%TO.N,/IO19*%
X192590000Y-90980000D02*
X192280000Y-90670000D01*
X201820000Y-101860000D02*
X199810000Y-99850000D01*
X202100000Y-102140000D02*
X201820000Y-101860000D01*
X199810000Y-99850000D02*
X196750000Y-99850000D01*
X194410000Y-90980000D02*
X192590000Y-90980000D01*
X204880000Y-102140000D02*
X202100000Y-102140000D01*
%TO.N,/SD0*%
X185790000Y-99185000D02*
X185685000Y-99290000D01*
X185790000Y-97700000D02*
X185790000Y-99185000D01*
%TO.N,/RXDO*%
X197700000Y-107080000D02*
X197700000Y-106870000D01*
X192420000Y-87000000D02*
X192280000Y-86860000D01*
X194000000Y-87000000D02*
X192420000Y-87000000D01*
X197700000Y-106870000D02*
X198550000Y-106020000D01*
%TO.N,/IO2*%
X189200000Y-97750000D02*
X189200000Y-98995000D01*
X206120000Y-119900000D02*
X206270000Y-119750000D01*
X206100000Y-119920000D02*
X206120000Y-119900000D01*
X189200000Y-98995000D02*
X189495000Y-99290000D01*
X206270000Y-81800000D02*
X205600000Y-82470000D01*
X204880000Y-119920000D02*
X206100000Y-119920000D01*
X206270000Y-119750000D02*
X206270000Y-81800000D01*
X205600000Y-82470000D02*
X205510000Y-82470000D01*
%TO.N,/IO15*%
X188110000Y-99175000D02*
X188225000Y-99290000D01*
X188110000Y-97900000D02*
X188110000Y-99175000D01*
%TO.N,/IO21*%
X194060000Y-88240000D02*
X192390000Y-88240000D01*
X192390000Y-88240000D02*
X192280000Y-88130000D01*
%TO.N,/IO4*%
X193250000Y-106450000D02*
X193250000Y-99870000D01*
X204770000Y-114950000D02*
X201470000Y-114950000D01*
X193870000Y-99250000D02*
X193870000Y-97300000D01*
X201470000Y-112000000D02*
X200260000Y-110790000D01*
X193250000Y-99870000D02*
X193870000Y-99250000D01*
X193870000Y-97300000D02*
X193590000Y-97020000D01*
X193450000Y-110790000D02*
X193450000Y-106650000D01*
X200260000Y-110790000D02*
X193450000Y-110790000D01*
X193590000Y-97020000D02*
X192280000Y-97020000D01*
X204880000Y-114840000D02*
X204770000Y-114950000D01*
X201470000Y-114950000D02*
X201470000Y-112000000D01*
X193450000Y-106650000D02*
X193250000Y-106450000D01*
%TO.N,/TXDO*%
X196905000Y-95160000D02*
X196070000Y-95160000D01*
X200230000Y-94490000D02*
X202740000Y-91980000D01*
X202740000Y-91980000D02*
X204880000Y-91980000D01*
X196905000Y-95160000D02*
X196905000Y-94535000D01*
X196950000Y-94490000D02*
X200230000Y-94490000D01*
X192390000Y-85700000D02*
X192280000Y-85590000D01*
X196905000Y-94535000D02*
X196950000Y-94490000D01*
X195730000Y-94820000D02*
X195730000Y-85740000D01*
X195730000Y-85740000D02*
X195770000Y-85700000D01*
X195770000Y-85700000D02*
X192390000Y-85700000D01*
X196070000Y-95160000D02*
X195730000Y-94820000D01*
%TO.N,/IO23*%
X193960000Y-83350000D02*
X192580000Y-83350000D01*
X192580000Y-83350000D02*
X192280000Y-83050000D01*
%TO.N,/IO17*%
X194320000Y-94630000D02*
X192430000Y-94630000D01*
X199260000Y-109200000D02*
X199260000Y-102050000D01*
X194610000Y-101820000D02*
X194610000Y-94920000D01*
X204880000Y-109760000D02*
X201050000Y-109760000D01*
X200490000Y-109200000D02*
X199260000Y-109200000D01*
X194610000Y-94920000D02*
X194320000Y-94630000D01*
X201050000Y-109760000D02*
X200490000Y-109200000D01*
X199260000Y-102050000D02*
X199020000Y-101810000D01*
X199010000Y-101820000D02*
X194610000Y-101820000D01*
X199020000Y-101810000D02*
X199010000Y-101820000D01*
X192430000Y-94630000D02*
X192280000Y-94480000D01*
%TO.N,/SD1*%
X186750000Y-99085000D02*
X186955000Y-99290000D01*
X186750000Y-97440000D02*
X186750000Y-99085000D01*
%TO.N,/CLK*%
X184530000Y-99405000D02*
X184415000Y-99290000D01*
X184530000Y-101180000D02*
X184530000Y-99405000D01*
%TO.N,/IO16*%
X193980000Y-95890000D02*
X192420000Y-95890000D01*
X204880000Y-112300000D02*
X202360000Y-112300000D01*
X193990000Y-110390000D02*
X193990000Y-105940000D01*
X202300000Y-112240000D02*
X200420000Y-110360000D01*
X199300000Y-110390000D02*
X193990000Y-110390000D01*
X192420000Y-95890000D02*
X192280000Y-95750000D01*
X202360000Y-112300000D02*
X202300000Y-112240000D01*
X200420000Y-110360000D02*
X200420000Y-110030000D01*
X193990000Y-105940000D02*
X193940000Y-105890000D01*
X199660000Y-110030000D02*
X199300000Y-110390000D01*
X200420000Y-110030000D02*
X199660000Y-110030000D01*
%TO.N,/IO0*%
X203230000Y-117500000D02*
X203230000Y-127510000D01*
X195080000Y-111240000D02*
X192760000Y-111240000D01*
X203350000Y-117380000D02*
X203230000Y-117500000D01*
X202730000Y-116760000D02*
X200890000Y-116760000D01*
X195220000Y-111380000D02*
X195080000Y-111240000D01*
X203230000Y-127510000D02*
X197620000Y-127510000D01*
X192760000Y-98770000D02*
X192280000Y-98290000D01*
X204880000Y-117380000D02*
X203350000Y-117380000D01*
X200890000Y-112550000D02*
X199720000Y-111380000D01*
X197620000Y-127510000D02*
X197190000Y-127080000D01*
X200890000Y-116760000D02*
X200890000Y-112550000D01*
X192760000Y-111240000D02*
X192760000Y-98770000D01*
X199720000Y-111380000D02*
X195220000Y-111380000D01*
X203350000Y-117380000D02*
X202730000Y-116760000D01*
%TO.N,/IO18*%
X193810000Y-92180000D02*
X193570000Y-91940000D01*
X193570000Y-91940000D02*
X192280000Y-91940000D01*
X204170000Y-104680000D02*
X202900000Y-105950000D01*
X204880000Y-104680000D02*
X204170000Y-104680000D01*
%TO.N,/IO5*%
X194380000Y-93210000D02*
X192280000Y-93210000D01*
X204880000Y-107220000D02*
X203960000Y-107220000D01*
X199570000Y-101220000D02*
X195310000Y-101220000D01*
X199930000Y-101580000D02*
X199570000Y-101220000D01*
X203960000Y-107220000D02*
X202400000Y-108780000D01*
X202280000Y-108660000D02*
X199930000Y-108660000D01*
X195310000Y-94140000D02*
X194380000Y-93210000D01*
X202400000Y-108780000D02*
X202280000Y-108660000D01*
X199930000Y-108660000D02*
X199930000Y-101580000D01*
X195310000Y-101220000D02*
X195310000Y-94140000D01*
%TO.N,Net-(Q1-B)*%
X192355000Y-125390000D02*
X192335000Y-125370000D01*
X193200000Y-125390000D02*
X192355000Y-125390000D01*
X170170000Y-124550000D02*
X170170000Y-125410000D01*
X176750000Y-125530000D02*
X175430000Y-124210000D01*
X175430000Y-124210000D02*
X170510000Y-124210000D01*
X176750000Y-126800000D02*
X176750000Y-125530000D01*
X170510000Y-124210000D02*
X170170000Y-124550000D01*
%TO.N,/RTS*%
X171300000Y-125610000D02*
X171300000Y-126340000D01*
X172120000Y-125370000D02*
X171540000Y-125370000D01*
X183017500Y-117377500D02*
X183017500Y-116682500D01*
X169760000Y-96380000D02*
X170000000Y-96140000D01*
X171540000Y-125370000D02*
X171300000Y-125610000D01*
X170330000Y-127310000D02*
X170170000Y-127310000D01*
X183017500Y-116682500D02*
X183070000Y-116630000D01*
X169760000Y-97220000D02*
X169760000Y-96380000D01*
X183070000Y-116630000D02*
X183450000Y-116250000D01*
X183450000Y-116250000D02*
X184040000Y-116250000D01*
X171300000Y-126340000D02*
X170330000Y-127310000D01*
%TO.N,/DTR*%
X181017500Y-117377500D02*
X181017500Y-116697500D01*
X196040000Y-126320000D02*
X196230000Y-126130000D01*
X186950000Y-122320000D02*
X187680000Y-123050000D01*
X181017500Y-116697500D02*
X180860000Y-116540000D01*
X187680000Y-123050000D02*
X187680000Y-124560000D01*
X191800000Y-126320000D02*
X196040000Y-126320000D01*
X191025000Y-124560000D02*
X191835000Y-125370000D01*
X187680000Y-124560000D02*
X191025000Y-124560000D01*
X191835000Y-125370000D02*
X191800000Y-125405000D01*
X191800000Y-125405000D02*
X191800000Y-126320000D01*
X196230000Y-126130000D02*
X199290000Y-126130000D01*
%TO.N,Net-(Q2-B)*%
X194300000Y-125180000D02*
X193160000Y-124040000D01*
X182040000Y-106100000D02*
X172970000Y-106100000D01*
X186170000Y-108700000D02*
X184640000Y-108700000D01*
X172520000Y-104460000D02*
X171830000Y-103770000D01*
X192990000Y-123870000D02*
X189180000Y-123870000D01*
X184640000Y-108700000D02*
X182040000Y-106100000D01*
X172970000Y-106100000D02*
X172520000Y-105650000D01*
X197190000Y-125180000D02*
X194300000Y-125180000D01*
X170890000Y-96840000D02*
X170890000Y-96530000D01*
X172520000Y-105650000D02*
X172520000Y-104460000D01*
X170890000Y-96530000D02*
X170500000Y-96140000D01*
X193160000Y-124040000D02*
X192990000Y-123870000D01*
%TO.N,/RXD*%
X182720000Y-115870000D02*
X182820000Y-115870000D01*
X197520000Y-95420000D02*
X197520000Y-95275000D01*
X197170000Y-98400000D02*
X197170000Y-97030000D01*
X182540000Y-116050000D02*
X182720000Y-115870000D01*
X198150000Y-96050000D02*
X197520000Y-95420000D01*
X182517500Y-116072500D02*
X182540000Y-116050000D01*
X197520000Y-95275000D02*
X197405000Y-95160000D01*
X197170000Y-97030000D02*
X198150000Y-96050000D01*
X182517500Y-117377500D02*
X182517500Y-116072500D01*
%TO.N,/TXD*%
X186750000Y-119030000D02*
X186880000Y-119160000D01*
X191650000Y-119160000D02*
X191750000Y-119060000D01*
X186880000Y-119160000D02*
X191650000Y-119160000D01*
X186750000Y-116970000D02*
X186750000Y-119030000D01*
X198290000Y-107170000D02*
X198200000Y-107080000D01*
X182017500Y-115042500D02*
X182050000Y-115010000D01*
X186750000Y-116590000D02*
X186750000Y-116970000D01*
X186530000Y-116370000D02*
X186750000Y-116590000D01*
X186510000Y-116350000D02*
X186530000Y-116370000D01*
X192510000Y-114840000D02*
X194550000Y-114840000D01*
X186220000Y-115010000D02*
X186510000Y-115300000D01*
X182050000Y-115010000D02*
X186220000Y-115010000D01*
X186510000Y-115300000D02*
X186510000Y-116350000D01*
X194550000Y-114840000D02*
X195470000Y-113920000D01*
X191750000Y-115600000D02*
X192510000Y-114840000D01*
X198290000Y-108440000D02*
X198290000Y-107170000D01*
X182017500Y-117377500D02*
X182017500Y-115042500D01*
X191750000Y-119060000D02*
X191750000Y-115600000D01*
%TO.N,Net-(U1-~{SUSPEND})*%
X190870000Y-108430000D02*
X191030000Y-108270000D01*
X182517500Y-123292500D02*
X182500000Y-123310000D01*
X190870000Y-110150000D02*
X190870000Y-108430000D01*
X182517500Y-122102500D02*
X182517500Y-123292500D01*
%TO.N,Net-(U1-~{RST})*%
X174140000Y-129460000D02*
X174140000Y-130250000D01*
X174140000Y-130250000D02*
X173850000Y-130540000D01*
X181517500Y-122102500D02*
X181517500Y-123471029D01*
X181517500Y-123652500D02*
X181230000Y-123940000D01*
X181517500Y-123471029D02*
X181517500Y-123652500D01*
%TO.N,Net-(U1-VBUS)*%
X181017500Y-122102500D02*
X181017500Y-123122500D01*
X191050000Y-112565000D02*
X191355000Y-112260000D01*
X191050000Y-113970000D02*
X191050000Y-112565000D01*
X168780000Y-130570000D02*
X168750000Y-130600000D01*
X168750000Y-130600000D02*
X168165000Y-130015000D01*
X181017500Y-123122500D02*
X180220000Y-123920000D01*
X169830000Y-130570000D02*
X168780000Y-130570000D01*
X168165000Y-130015000D02*
X168165000Y-127540000D01*
%TD*%
M02*
