%TF.GenerationSoftware,KiCad,Pcbnew,9.0.2*%
%TF.CreationDate,2025-07-05T23:34:38+05:30*%
%TF.ProjectId,_autosave-esp32devkitclone,5f617574-6f73-4617-9665-2d6573703332,rev?*%
%TF.SameCoordinates,Original*%
%TF.FileFunction,Soldermask,Bot*%
%TF.FilePolarity,Negative*%
%FSLAX46Y46*%
G04 Gerber Fmt 4.6, Leading zero omitted, Abs format (unit mm)*
G04 Created by KiCad (PCBNEW 9.0.2) date 2025-07-05 23:34:38*
%MOMM*%
%LPD*%
G01*
G04 APERTURE LIST*
%ADD10R,1.700000X1.700000*%
%ADD11C,1.700000*%
%ADD12O,1.000000X1.900000*%
%ADD13O,1.050000X1.250000*%
G04 APERTURE END LIST*
D10*
%TO.C,J2*%
X161960000Y-84540000D03*
D11*
X161960000Y-87080000D03*
X161960000Y-89620000D03*
X161960000Y-92160000D03*
X161960000Y-94700000D03*
X161960000Y-97240000D03*
X161960000Y-99780000D03*
X161960000Y-102320000D03*
X161960000Y-104860000D03*
X161960000Y-107400000D03*
X161960000Y-109940000D03*
X161960000Y-112480000D03*
X161960000Y-115020000D03*
X161960000Y-117560000D03*
X161960000Y-120100000D03*
X161960000Y-122640000D03*
X161960000Y-125180000D03*
X161960000Y-127720000D03*
X161960000Y-130260000D03*
%TD*%
D12*
%TO.C,J1*%
X178645000Y-129225000D03*
D13*
X180595000Y-126225000D03*
X185045000Y-126225000D03*
D12*
X186995000Y-129225000D03*
%TD*%
D10*
%TO.C,J3*%
X204880000Y-84360000D03*
D11*
X204880000Y-86900000D03*
X204880000Y-89440000D03*
X204880000Y-91980000D03*
X204880000Y-94520000D03*
X204880000Y-97060000D03*
X204880000Y-99600000D03*
X204880000Y-102140000D03*
X204880000Y-104680000D03*
X204880000Y-107220000D03*
X204880000Y-109760000D03*
X204880000Y-112300000D03*
X204880000Y-114840000D03*
X204880000Y-117380000D03*
X204880000Y-119920000D03*
X204880000Y-122460000D03*
X204880000Y-125000000D03*
X204880000Y-127540000D03*
X204880000Y-130080000D03*
%TD*%
M02*
