%TF.GenerationSoftware,KiCad,Pcbnew,9.0.2*%
%TF.CreationDate,2025-07-05T23:34:38+05:30*%
%TF.ProjectId,_autosave-esp32devkitclone,5f617574-6f73-4617-9665-2d6573703332,rev?*%
%TF.SameCoordinates,Original*%
%TF.FileFunction,Legend,Bot*%
%TF.FilePolarity,Positive*%
%FSLAX46Y46*%
G04 Gerber Fmt 4.6, Leading zero omitted, Abs format (unit mm)*
G04 Created by KiCad (PCBNEW 9.0.2) date 2025-07-05 23:34:38*
%MOMM*%
%LPD*%
G01*
G04 APERTURE LIST*
%ADD10C,0.100000*%
G04 APERTURE END LIST*
D10*
X166896115Y-95212419D02*
X166896115Y-94212419D01*
X166229449Y-94212419D02*
X166038973Y-94212419D01*
X166038973Y-94212419D02*
X165943735Y-94260038D01*
X165943735Y-94260038D02*
X165848497Y-94355276D01*
X165848497Y-94355276D02*
X165800878Y-94545752D01*
X165800878Y-94545752D02*
X165800878Y-94879085D01*
X165800878Y-94879085D02*
X165848497Y-95069561D01*
X165848497Y-95069561D02*
X165943735Y-95164800D01*
X165943735Y-95164800D02*
X166038973Y-95212419D01*
X166038973Y-95212419D02*
X166229449Y-95212419D01*
X166229449Y-95212419D02*
X166324687Y-95164800D01*
X166324687Y-95164800D02*
X166419925Y-95069561D01*
X166419925Y-95069561D02*
X166467544Y-94879085D01*
X166467544Y-94879085D02*
X166467544Y-94545752D01*
X166467544Y-94545752D02*
X166419925Y-94355276D01*
X166419925Y-94355276D02*
X166324687Y-94260038D01*
X166324687Y-94260038D02*
X166229449Y-94212419D01*
X165467544Y-94212419D02*
X164848497Y-94212419D01*
X164848497Y-94212419D02*
X165181830Y-94593371D01*
X165181830Y-94593371D02*
X165038973Y-94593371D01*
X165038973Y-94593371D02*
X164943735Y-94640990D01*
X164943735Y-94640990D02*
X164896116Y-94688609D01*
X164896116Y-94688609D02*
X164848497Y-94783847D01*
X164848497Y-94783847D02*
X164848497Y-95021942D01*
X164848497Y-95021942D02*
X164896116Y-95117180D01*
X164896116Y-95117180D02*
X164943735Y-95164800D01*
X164943735Y-95164800D02*
X165038973Y-95212419D01*
X165038973Y-95212419D02*
X165324687Y-95212419D01*
X165324687Y-95212419D02*
X165419925Y-95164800D01*
X165419925Y-95164800D02*
X165467544Y-95117180D01*
X163991354Y-94545752D02*
X163991354Y-95212419D01*
X164229449Y-94164800D02*
X164467544Y-94879085D01*
X164467544Y-94879085D02*
X163848497Y-94879085D01*
X166976115Y-102852419D02*
X166976115Y-101852419D01*
X166309449Y-101852419D02*
X166118973Y-101852419D01*
X166118973Y-101852419D02*
X166023735Y-101900038D01*
X166023735Y-101900038D02*
X165928497Y-101995276D01*
X165928497Y-101995276D02*
X165880878Y-102185752D01*
X165880878Y-102185752D02*
X165880878Y-102519085D01*
X165880878Y-102519085D02*
X165928497Y-102709561D01*
X165928497Y-102709561D02*
X166023735Y-102804800D01*
X166023735Y-102804800D02*
X166118973Y-102852419D01*
X166118973Y-102852419D02*
X166309449Y-102852419D01*
X166309449Y-102852419D02*
X166404687Y-102804800D01*
X166404687Y-102804800D02*
X166499925Y-102709561D01*
X166499925Y-102709561D02*
X166547544Y-102519085D01*
X166547544Y-102519085D02*
X166547544Y-102185752D01*
X166547544Y-102185752D02*
X166499925Y-101995276D01*
X166499925Y-101995276D02*
X166404687Y-101900038D01*
X166404687Y-101900038D02*
X166309449Y-101852419D01*
X165547544Y-101852419D02*
X164928497Y-101852419D01*
X164928497Y-101852419D02*
X165261830Y-102233371D01*
X165261830Y-102233371D02*
X165118973Y-102233371D01*
X165118973Y-102233371D02*
X165023735Y-102280990D01*
X165023735Y-102280990D02*
X164976116Y-102328609D01*
X164976116Y-102328609D02*
X164928497Y-102423847D01*
X164928497Y-102423847D02*
X164928497Y-102661942D01*
X164928497Y-102661942D02*
X164976116Y-102757180D01*
X164976116Y-102757180D02*
X165023735Y-102804800D01*
X165023735Y-102804800D02*
X165118973Y-102852419D01*
X165118973Y-102852419D02*
X165404687Y-102852419D01*
X165404687Y-102852419D02*
X165499925Y-102804800D01*
X165499925Y-102804800D02*
X165547544Y-102757180D01*
X164595163Y-101852419D02*
X163976116Y-101852419D01*
X163976116Y-101852419D02*
X164309449Y-102233371D01*
X164309449Y-102233371D02*
X164166592Y-102233371D01*
X164166592Y-102233371D02*
X164071354Y-102280990D01*
X164071354Y-102280990D02*
X164023735Y-102328609D01*
X164023735Y-102328609D02*
X163976116Y-102423847D01*
X163976116Y-102423847D02*
X163976116Y-102661942D01*
X163976116Y-102661942D02*
X164023735Y-102757180D01*
X164023735Y-102757180D02*
X164071354Y-102804800D01*
X164071354Y-102804800D02*
X164166592Y-102852419D01*
X164166592Y-102852419D02*
X164452306Y-102852419D01*
X164452306Y-102852419D02*
X164547544Y-102804800D01*
X164547544Y-102804800D02*
X164595163Y-102757180D01*
X168826115Y-130298609D02*
X168492782Y-130298609D01*
X168349925Y-130822419D02*
X168826115Y-130822419D01*
X168826115Y-130822419D02*
X168826115Y-129822419D01*
X168826115Y-129822419D02*
X168349925Y-129822419D01*
X168016591Y-129822419D02*
X167349925Y-130822419D01*
X167349925Y-129822419D02*
X168016591Y-130822419D01*
X167111829Y-129822419D02*
X166540401Y-129822419D01*
X166826115Y-130822419D02*
X166826115Y-129822419D01*
X166445163Y-130917657D02*
X165683258Y-130917657D01*
X164968972Y-129822419D02*
X165445162Y-129822419D01*
X165445162Y-129822419D02*
X165492781Y-130298609D01*
X165492781Y-130298609D02*
X165445162Y-130250990D01*
X165445162Y-130250990D02*
X165349924Y-130203371D01*
X165349924Y-130203371D02*
X165111829Y-130203371D01*
X165111829Y-130203371D02*
X165016591Y-130250990D01*
X165016591Y-130250990D02*
X164968972Y-130298609D01*
X164968972Y-130298609D02*
X164921353Y-130393847D01*
X164921353Y-130393847D02*
X164921353Y-130631942D01*
X164921353Y-130631942D02*
X164968972Y-130727180D01*
X164968972Y-130727180D02*
X165016591Y-130774800D01*
X165016591Y-130774800D02*
X165111829Y-130822419D01*
X165111829Y-130822419D02*
X165349924Y-130822419D01*
X165349924Y-130822419D02*
X165445162Y-130774800D01*
X165445162Y-130774800D02*
X165492781Y-130727180D01*
X164635638Y-129822419D02*
X164302305Y-130822419D01*
X164302305Y-130822419D02*
X163968972Y-129822419D01*
X202332306Y-99020038D02*
X202427544Y-98972419D01*
X202427544Y-98972419D02*
X202570401Y-98972419D01*
X202570401Y-98972419D02*
X202713258Y-99020038D01*
X202713258Y-99020038D02*
X202808496Y-99115276D01*
X202808496Y-99115276D02*
X202856115Y-99210514D01*
X202856115Y-99210514D02*
X202903734Y-99400990D01*
X202903734Y-99400990D02*
X202903734Y-99543847D01*
X202903734Y-99543847D02*
X202856115Y-99734323D01*
X202856115Y-99734323D02*
X202808496Y-99829561D01*
X202808496Y-99829561D02*
X202713258Y-99924800D01*
X202713258Y-99924800D02*
X202570401Y-99972419D01*
X202570401Y-99972419D02*
X202475163Y-99972419D01*
X202475163Y-99972419D02*
X202332306Y-99924800D01*
X202332306Y-99924800D02*
X202284687Y-99877180D01*
X202284687Y-99877180D02*
X202284687Y-99543847D01*
X202284687Y-99543847D02*
X202475163Y-99543847D01*
X201856115Y-99972419D02*
X201856115Y-98972419D01*
X201856115Y-98972419D02*
X201284687Y-99972419D01*
X201284687Y-99972419D02*
X201284687Y-98972419D01*
X200808496Y-99972419D02*
X200808496Y-98972419D01*
X200808496Y-98972419D02*
X200570401Y-98972419D01*
X200570401Y-98972419D02*
X200427544Y-99020038D01*
X200427544Y-99020038D02*
X200332306Y-99115276D01*
X200332306Y-99115276D02*
X200284687Y-99210514D01*
X200284687Y-99210514D02*
X200237068Y-99400990D01*
X200237068Y-99400990D02*
X200237068Y-99543847D01*
X200237068Y-99543847D02*
X200284687Y-99734323D01*
X200284687Y-99734323D02*
X200332306Y-99829561D01*
X200332306Y-99829561D02*
X200427544Y-99924800D01*
X200427544Y-99924800D02*
X200570401Y-99972419D01*
X200570401Y-99972419D02*
X200808496Y-99972419D01*
X202906115Y-110372419D02*
X202906115Y-109372419D01*
X202239449Y-109372419D02*
X202048973Y-109372419D01*
X202048973Y-109372419D02*
X201953735Y-109420038D01*
X201953735Y-109420038D02*
X201858497Y-109515276D01*
X201858497Y-109515276D02*
X201810878Y-109705752D01*
X201810878Y-109705752D02*
X201810878Y-110039085D01*
X201810878Y-110039085D02*
X201858497Y-110229561D01*
X201858497Y-110229561D02*
X201953735Y-110324800D01*
X201953735Y-110324800D02*
X202048973Y-110372419D01*
X202048973Y-110372419D02*
X202239449Y-110372419D01*
X202239449Y-110372419D02*
X202334687Y-110324800D01*
X202334687Y-110324800D02*
X202429925Y-110229561D01*
X202429925Y-110229561D02*
X202477544Y-110039085D01*
X202477544Y-110039085D02*
X202477544Y-109705752D01*
X202477544Y-109705752D02*
X202429925Y-109515276D01*
X202429925Y-109515276D02*
X202334687Y-109420038D01*
X202334687Y-109420038D02*
X202239449Y-109372419D01*
X200858497Y-110372419D02*
X201429925Y-110372419D01*
X201144211Y-110372419D02*
X201144211Y-109372419D01*
X201144211Y-109372419D02*
X201239449Y-109515276D01*
X201239449Y-109515276D02*
X201334687Y-109610514D01*
X201334687Y-109610514D02*
X201429925Y-109658133D01*
X200525163Y-109372419D02*
X199858497Y-109372419D01*
X199858497Y-109372419D02*
X200287068Y-110372419D01*
X166473734Y-123184800D02*
X166330877Y-123232419D01*
X166330877Y-123232419D02*
X166092782Y-123232419D01*
X166092782Y-123232419D02*
X165997544Y-123184800D01*
X165997544Y-123184800D02*
X165949925Y-123137180D01*
X165949925Y-123137180D02*
X165902306Y-123041942D01*
X165902306Y-123041942D02*
X165902306Y-122946704D01*
X165902306Y-122946704D02*
X165949925Y-122851466D01*
X165949925Y-122851466D02*
X165997544Y-122803847D01*
X165997544Y-122803847D02*
X166092782Y-122756228D01*
X166092782Y-122756228D02*
X166283258Y-122708609D01*
X166283258Y-122708609D02*
X166378496Y-122660990D01*
X166378496Y-122660990D02*
X166426115Y-122613371D01*
X166426115Y-122613371D02*
X166473734Y-122518133D01*
X166473734Y-122518133D02*
X166473734Y-122422895D01*
X166473734Y-122422895D02*
X166426115Y-122327657D01*
X166426115Y-122327657D02*
X166378496Y-122280038D01*
X166378496Y-122280038D02*
X166283258Y-122232419D01*
X166283258Y-122232419D02*
X166045163Y-122232419D01*
X166045163Y-122232419D02*
X165902306Y-122280038D01*
X165473734Y-123232419D02*
X165473734Y-122232419D01*
X165473734Y-122232419D02*
X165235639Y-122232419D01*
X165235639Y-122232419D02*
X165092782Y-122280038D01*
X165092782Y-122280038D02*
X164997544Y-122375276D01*
X164997544Y-122375276D02*
X164949925Y-122470514D01*
X164949925Y-122470514D02*
X164902306Y-122660990D01*
X164902306Y-122660990D02*
X164902306Y-122803847D01*
X164902306Y-122803847D02*
X164949925Y-122994323D01*
X164949925Y-122994323D02*
X164997544Y-123089561D01*
X164997544Y-123089561D02*
X165092782Y-123184800D01*
X165092782Y-123184800D02*
X165235639Y-123232419D01*
X165235639Y-123232419D02*
X165473734Y-123232419D01*
X164521353Y-122327657D02*
X164473734Y-122280038D01*
X164473734Y-122280038D02*
X164378496Y-122232419D01*
X164378496Y-122232419D02*
X164140401Y-122232419D01*
X164140401Y-122232419D02*
X164045163Y-122280038D01*
X164045163Y-122280038D02*
X163997544Y-122327657D01*
X163997544Y-122327657D02*
X163949925Y-122422895D01*
X163949925Y-122422895D02*
X163949925Y-122518133D01*
X163949925Y-122518133D02*
X163997544Y-122660990D01*
X163997544Y-122660990D02*
X164568972Y-123232419D01*
X164568972Y-123232419D02*
X163949925Y-123232419D01*
X166966115Y-115462419D02*
X166966115Y-114462419D01*
X166299449Y-114462419D02*
X166108973Y-114462419D01*
X166108973Y-114462419D02*
X166013735Y-114510038D01*
X166013735Y-114510038D02*
X165918497Y-114605276D01*
X165918497Y-114605276D02*
X165870878Y-114795752D01*
X165870878Y-114795752D02*
X165870878Y-115129085D01*
X165870878Y-115129085D02*
X165918497Y-115319561D01*
X165918497Y-115319561D02*
X166013735Y-115414800D01*
X166013735Y-115414800D02*
X166108973Y-115462419D01*
X166108973Y-115462419D02*
X166299449Y-115462419D01*
X166299449Y-115462419D02*
X166394687Y-115414800D01*
X166394687Y-115414800D02*
X166489925Y-115319561D01*
X166489925Y-115319561D02*
X166537544Y-115129085D01*
X166537544Y-115129085D02*
X166537544Y-114795752D01*
X166537544Y-114795752D02*
X166489925Y-114605276D01*
X166489925Y-114605276D02*
X166394687Y-114510038D01*
X166394687Y-114510038D02*
X166299449Y-114462419D01*
X164918497Y-115462419D02*
X165489925Y-115462419D01*
X165204211Y-115462419D02*
X165204211Y-114462419D01*
X165204211Y-114462419D02*
X165299449Y-114605276D01*
X165299449Y-114605276D02*
X165394687Y-114700514D01*
X165394687Y-114700514D02*
X165489925Y-114748133D01*
X164537544Y-114557657D02*
X164489925Y-114510038D01*
X164489925Y-114510038D02*
X164394687Y-114462419D01*
X164394687Y-114462419D02*
X164156592Y-114462419D01*
X164156592Y-114462419D02*
X164061354Y-114510038D01*
X164061354Y-114510038D02*
X164013735Y-114557657D01*
X164013735Y-114557657D02*
X163966116Y-114652895D01*
X163966116Y-114652895D02*
X163966116Y-114748133D01*
X163966116Y-114748133D02*
X164013735Y-114890990D01*
X164013735Y-114890990D02*
X164585163Y-115462419D01*
X164585163Y-115462419D02*
X163966116Y-115462419D01*
X202274687Y-130577180D02*
X202322306Y-130624800D01*
X202322306Y-130624800D02*
X202465163Y-130672419D01*
X202465163Y-130672419D02*
X202560401Y-130672419D01*
X202560401Y-130672419D02*
X202703258Y-130624800D01*
X202703258Y-130624800D02*
X202798496Y-130529561D01*
X202798496Y-130529561D02*
X202846115Y-130434323D01*
X202846115Y-130434323D02*
X202893734Y-130243847D01*
X202893734Y-130243847D02*
X202893734Y-130100990D01*
X202893734Y-130100990D02*
X202846115Y-129910514D01*
X202846115Y-129910514D02*
X202798496Y-129815276D01*
X202798496Y-129815276D02*
X202703258Y-129720038D01*
X202703258Y-129720038D02*
X202560401Y-129672419D01*
X202560401Y-129672419D02*
X202465163Y-129672419D01*
X202465163Y-129672419D02*
X202322306Y-129720038D01*
X202322306Y-129720038D02*
X202274687Y-129767657D01*
X201369925Y-130672419D02*
X201846115Y-130672419D01*
X201846115Y-130672419D02*
X201846115Y-129672419D01*
X201036591Y-130672419D02*
X201036591Y-129672419D01*
X200465163Y-130672419D02*
X200893734Y-130100990D01*
X200465163Y-129672419D02*
X201036591Y-130243847D01*
X166072306Y-117140038D02*
X166167544Y-117092419D01*
X166167544Y-117092419D02*
X166310401Y-117092419D01*
X166310401Y-117092419D02*
X166453258Y-117140038D01*
X166453258Y-117140038D02*
X166548496Y-117235276D01*
X166548496Y-117235276D02*
X166596115Y-117330514D01*
X166596115Y-117330514D02*
X166643734Y-117520990D01*
X166643734Y-117520990D02*
X166643734Y-117663847D01*
X166643734Y-117663847D02*
X166596115Y-117854323D01*
X166596115Y-117854323D02*
X166548496Y-117949561D01*
X166548496Y-117949561D02*
X166453258Y-118044800D01*
X166453258Y-118044800D02*
X166310401Y-118092419D01*
X166310401Y-118092419D02*
X166215163Y-118092419D01*
X166215163Y-118092419D02*
X166072306Y-118044800D01*
X166072306Y-118044800D02*
X166024687Y-117997180D01*
X166024687Y-117997180D02*
X166024687Y-117663847D01*
X166024687Y-117663847D02*
X166215163Y-117663847D01*
X165596115Y-118092419D02*
X165596115Y-117092419D01*
X165596115Y-117092419D02*
X165024687Y-118092419D01*
X165024687Y-118092419D02*
X165024687Y-117092419D01*
X164548496Y-118092419D02*
X164548496Y-117092419D01*
X164548496Y-117092419D02*
X164310401Y-117092419D01*
X164310401Y-117092419D02*
X164167544Y-117140038D01*
X164167544Y-117140038D02*
X164072306Y-117235276D01*
X164072306Y-117235276D02*
X164024687Y-117330514D01*
X164024687Y-117330514D02*
X163977068Y-117520990D01*
X163977068Y-117520990D02*
X163977068Y-117663847D01*
X163977068Y-117663847D02*
X164024687Y-117854323D01*
X164024687Y-117854323D02*
X164072306Y-117949561D01*
X164072306Y-117949561D02*
X164167544Y-118044800D01*
X164167544Y-118044800D02*
X164310401Y-118092419D01*
X164310401Y-118092419D02*
X164548496Y-118092419D01*
X202866115Y-122952419D02*
X202866115Y-121952419D01*
X202199449Y-121952419D02*
X202008973Y-121952419D01*
X202008973Y-121952419D02*
X201913735Y-122000038D01*
X201913735Y-122000038D02*
X201818497Y-122095276D01*
X201818497Y-122095276D02*
X201770878Y-122285752D01*
X201770878Y-122285752D02*
X201770878Y-122619085D01*
X201770878Y-122619085D02*
X201818497Y-122809561D01*
X201818497Y-122809561D02*
X201913735Y-122904800D01*
X201913735Y-122904800D02*
X202008973Y-122952419D01*
X202008973Y-122952419D02*
X202199449Y-122952419D01*
X202199449Y-122952419D02*
X202294687Y-122904800D01*
X202294687Y-122904800D02*
X202389925Y-122809561D01*
X202389925Y-122809561D02*
X202437544Y-122619085D01*
X202437544Y-122619085D02*
X202437544Y-122285752D01*
X202437544Y-122285752D02*
X202389925Y-122095276D01*
X202389925Y-122095276D02*
X202294687Y-122000038D01*
X202294687Y-122000038D02*
X202199449Y-121952419D01*
X200818497Y-122952419D02*
X201389925Y-122952419D01*
X201104211Y-122952419D02*
X201104211Y-121952419D01*
X201104211Y-121952419D02*
X201199449Y-122095276D01*
X201199449Y-122095276D02*
X201294687Y-122190514D01*
X201294687Y-122190514D02*
X201389925Y-122238133D01*
X199913735Y-121952419D02*
X200389925Y-121952419D01*
X200389925Y-121952419D02*
X200437544Y-122428609D01*
X200437544Y-122428609D02*
X200389925Y-122380990D01*
X200389925Y-122380990D02*
X200294687Y-122333371D01*
X200294687Y-122333371D02*
X200056592Y-122333371D01*
X200056592Y-122333371D02*
X199961354Y-122380990D01*
X199961354Y-122380990D02*
X199913735Y-122428609D01*
X199913735Y-122428609D02*
X199866116Y-122523847D01*
X199866116Y-122523847D02*
X199866116Y-122761942D01*
X199866116Y-122761942D02*
X199913735Y-122857180D01*
X199913735Y-122857180D02*
X199961354Y-122904800D01*
X199961354Y-122904800D02*
X200056592Y-122952419D01*
X200056592Y-122952419D02*
X200294687Y-122952419D01*
X200294687Y-122952419D02*
X200389925Y-122904800D01*
X200389925Y-122904800D02*
X200437544Y-122857180D01*
X166976115Y-100292419D02*
X166976115Y-99292419D01*
X166309449Y-99292419D02*
X166118973Y-99292419D01*
X166118973Y-99292419D02*
X166023735Y-99340038D01*
X166023735Y-99340038D02*
X165928497Y-99435276D01*
X165928497Y-99435276D02*
X165880878Y-99625752D01*
X165880878Y-99625752D02*
X165880878Y-99959085D01*
X165880878Y-99959085D02*
X165928497Y-100149561D01*
X165928497Y-100149561D02*
X166023735Y-100244800D01*
X166023735Y-100244800D02*
X166118973Y-100292419D01*
X166118973Y-100292419D02*
X166309449Y-100292419D01*
X166309449Y-100292419D02*
X166404687Y-100244800D01*
X166404687Y-100244800D02*
X166499925Y-100149561D01*
X166499925Y-100149561D02*
X166547544Y-99959085D01*
X166547544Y-99959085D02*
X166547544Y-99625752D01*
X166547544Y-99625752D02*
X166499925Y-99435276D01*
X166499925Y-99435276D02*
X166404687Y-99340038D01*
X166404687Y-99340038D02*
X166309449Y-99292419D01*
X165547544Y-99292419D02*
X164928497Y-99292419D01*
X164928497Y-99292419D02*
X165261830Y-99673371D01*
X165261830Y-99673371D02*
X165118973Y-99673371D01*
X165118973Y-99673371D02*
X165023735Y-99720990D01*
X165023735Y-99720990D02*
X164976116Y-99768609D01*
X164976116Y-99768609D02*
X164928497Y-99863847D01*
X164928497Y-99863847D02*
X164928497Y-100101942D01*
X164928497Y-100101942D02*
X164976116Y-100197180D01*
X164976116Y-100197180D02*
X165023735Y-100244800D01*
X165023735Y-100244800D02*
X165118973Y-100292419D01*
X165118973Y-100292419D02*
X165404687Y-100292419D01*
X165404687Y-100292419D02*
X165499925Y-100244800D01*
X165499925Y-100244800D02*
X165547544Y-100197180D01*
X164547544Y-99387657D02*
X164499925Y-99340038D01*
X164499925Y-99340038D02*
X164404687Y-99292419D01*
X164404687Y-99292419D02*
X164166592Y-99292419D01*
X164166592Y-99292419D02*
X164071354Y-99340038D01*
X164071354Y-99340038D02*
X164023735Y-99387657D01*
X164023735Y-99387657D02*
X163976116Y-99482895D01*
X163976116Y-99482895D02*
X163976116Y-99578133D01*
X163976116Y-99578133D02*
X164023735Y-99720990D01*
X164023735Y-99720990D02*
X164595163Y-100292419D01*
X164595163Y-100292419D02*
X163976116Y-100292419D01*
X202806115Y-115332419D02*
X202806115Y-114332419D01*
X202139449Y-114332419D02*
X201948973Y-114332419D01*
X201948973Y-114332419D02*
X201853735Y-114380038D01*
X201853735Y-114380038D02*
X201758497Y-114475276D01*
X201758497Y-114475276D02*
X201710878Y-114665752D01*
X201710878Y-114665752D02*
X201710878Y-114999085D01*
X201710878Y-114999085D02*
X201758497Y-115189561D01*
X201758497Y-115189561D02*
X201853735Y-115284800D01*
X201853735Y-115284800D02*
X201948973Y-115332419D01*
X201948973Y-115332419D02*
X202139449Y-115332419D01*
X202139449Y-115332419D02*
X202234687Y-115284800D01*
X202234687Y-115284800D02*
X202329925Y-115189561D01*
X202329925Y-115189561D02*
X202377544Y-114999085D01*
X202377544Y-114999085D02*
X202377544Y-114665752D01*
X202377544Y-114665752D02*
X202329925Y-114475276D01*
X202329925Y-114475276D02*
X202234687Y-114380038D01*
X202234687Y-114380038D02*
X202139449Y-114332419D01*
X200853735Y-114665752D02*
X200853735Y-115332419D01*
X201091830Y-114284800D02*
X201329925Y-114999085D01*
X201329925Y-114999085D02*
X200710878Y-114999085D01*
X202826115Y-117922419D02*
X202826115Y-116922419D01*
X202159449Y-116922419D02*
X201968973Y-116922419D01*
X201968973Y-116922419D02*
X201873735Y-116970038D01*
X201873735Y-116970038D02*
X201778497Y-117065276D01*
X201778497Y-117065276D02*
X201730878Y-117255752D01*
X201730878Y-117255752D02*
X201730878Y-117589085D01*
X201730878Y-117589085D02*
X201778497Y-117779561D01*
X201778497Y-117779561D02*
X201873735Y-117874800D01*
X201873735Y-117874800D02*
X201968973Y-117922419D01*
X201968973Y-117922419D02*
X202159449Y-117922419D01*
X202159449Y-117922419D02*
X202254687Y-117874800D01*
X202254687Y-117874800D02*
X202349925Y-117779561D01*
X202349925Y-117779561D02*
X202397544Y-117589085D01*
X202397544Y-117589085D02*
X202397544Y-117255752D01*
X202397544Y-117255752D02*
X202349925Y-117065276D01*
X202349925Y-117065276D02*
X202254687Y-116970038D01*
X202254687Y-116970038D02*
X202159449Y-116922419D01*
X201111830Y-116922419D02*
X201016592Y-116922419D01*
X201016592Y-116922419D02*
X200921354Y-116970038D01*
X200921354Y-116970038D02*
X200873735Y-117017657D01*
X200873735Y-117017657D02*
X200826116Y-117112895D01*
X200826116Y-117112895D02*
X200778497Y-117303371D01*
X200778497Y-117303371D02*
X200778497Y-117541466D01*
X200778497Y-117541466D02*
X200826116Y-117731942D01*
X200826116Y-117731942D02*
X200873735Y-117827180D01*
X200873735Y-117827180D02*
X200921354Y-117874800D01*
X200921354Y-117874800D02*
X201016592Y-117922419D01*
X201016592Y-117922419D02*
X201111830Y-117922419D01*
X201111830Y-117922419D02*
X201207068Y-117874800D01*
X201207068Y-117874800D02*
X201254687Y-117827180D01*
X201254687Y-117827180D02*
X201302306Y-117731942D01*
X201302306Y-117731942D02*
X201349925Y-117541466D01*
X201349925Y-117541466D02*
X201349925Y-117303371D01*
X201349925Y-117303371D02*
X201302306Y-117112895D01*
X201302306Y-117112895D02*
X201254687Y-117017657D01*
X201254687Y-117017657D02*
X201207068Y-116970038D01*
X201207068Y-116970038D02*
X201111830Y-116922419D01*
X202846115Y-97602419D02*
X202846115Y-96602419D01*
X202179449Y-96602419D02*
X201988973Y-96602419D01*
X201988973Y-96602419D02*
X201893735Y-96650038D01*
X201893735Y-96650038D02*
X201798497Y-96745276D01*
X201798497Y-96745276D02*
X201750878Y-96935752D01*
X201750878Y-96935752D02*
X201750878Y-97269085D01*
X201750878Y-97269085D02*
X201798497Y-97459561D01*
X201798497Y-97459561D02*
X201893735Y-97554800D01*
X201893735Y-97554800D02*
X201988973Y-97602419D01*
X201988973Y-97602419D02*
X202179449Y-97602419D01*
X202179449Y-97602419D02*
X202274687Y-97554800D01*
X202274687Y-97554800D02*
X202369925Y-97459561D01*
X202369925Y-97459561D02*
X202417544Y-97269085D01*
X202417544Y-97269085D02*
X202417544Y-96935752D01*
X202417544Y-96935752D02*
X202369925Y-96745276D01*
X202369925Y-96745276D02*
X202274687Y-96650038D01*
X202274687Y-96650038D02*
X202179449Y-96602419D01*
X201369925Y-96697657D02*
X201322306Y-96650038D01*
X201322306Y-96650038D02*
X201227068Y-96602419D01*
X201227068Y-96602419D02*
X200988973Y-96602419D01*
X200988973Y-96602419D02*
X200893735Y-96650038D01*
X200893735Y-96650038D02*
X200846116Y-96697657D01*
X200846116Y-96697657D02*
X200798497Y-96792895D01*
X200798497Y-96792895D02*
X200798497Y-96888133D01*
X200798497Y-96888133D02*
X200846116Y-97030990D01*
X200846116Y-97030990D02*
X201417544Y-97602419D01*
X201417544Y-97602419D02*
X200798497Y-97602419D01*
X199846116Y-97602419D02*
X200417544Y-97602419D01*
X200131830Y-97602419D02*
X200131830Y-96602419D01*
X200131830Y-96602419D02*
X200227068Y-96745276D01*
X200227068Y-96745276D02*
X200322306Y-96840514D01*
X200322306Y-96840514D02*
X200417544Y-96888133D01*
X172013734Y-89964800D02*
X171870877Y-90012419D01*
X171870877Y-90012419D02*
X171632782Y-90012419D01*
X171632782Y-90012419D02*
X171537544Y-89964800D01*
X171537544Y-89964800D02*
X171489925Y-89917180D01*
X171489925Y-89917180D02*
X171442306Y-89821942D01*
X171442306Y-89821942D02*
X171442306Y-89726704D01*
X171442306Y-89726704D02*
X171489925Y-89631466D01*
X171489925Y-89631466D02*
X171537544Y-89583847D01*
X171537544Y-89583847D02*
X171632782Y-89536228D01*
X171632782Y-89536228D02*
X171823258Y-89488609D01*
X171823258Y-89488609D02*
X171918496Y-89440990D01*
X171918496Y-89440990D02*
X171966115Y-89393371D01*
X171966115Y-89393371D02*
X172013734Y-89298133D01*
X172013734Y-89298133D02*
X172013734Y-89202895D01*
X172013734Y-89202895D02*
X171966115Y-89107657D01*
X171966115Y-89107657D02*
X171918496Y-89060038D01*
X171918496Y-89060038D02*
X171823258Y-89012419D01*
X171823258Y-89012419D02*
X171585163Y-89012419D01*
X171585163Y-89012419D02*
X171442306Y-89060038D01*
X171013734Y-89488609D02*
X170680401Y-89488609D01*
X170537544Y-90012419D02*
X171013734Y-90012419D01*
X171013734Y-90012419D02*
X171013734Y-89012419D01*
X171013734Y-89012419D02*
X170537544Y-89012419D01*
X170108972Y-90012419D02*
X170108972Y-89012419D01*
X170108972Y-89012419D02*
X169537544Y-90012419D01*
X169537544Y-90012419D02*
X169537544Y-89012419D01*
X169108972Y-89964800D02*
X168966115Y-90012419D01*
X168966115Y-90012419D02*
X168728020Y-90012419D01*
X168728020Y-90012419D02*
X168632782Y-89964800D01*
X168632782Y-89964800D02*
X168585163Y-89917180D01*
X168585163Y-89917180D02*
X168537544Y-89821942D01*
X168537544Y-89821942D02*
X168537544Y-89726704D01*
X168537544Y-89726704D02*
X168585163Y-89631466D01*
X168585163Y-89631466D02*
X168632782Y-89583847D01*
X168632782Y-89583847D02*
X168728020Y-89536228D01*
X168728020Y-89536228D02*
X168918496Y-89488609D01*
X168918496Y-89488609D02*
X169013734Y-89440990D01*
X169013734Y-89440990D02*
X169061353Y-89393371D01*
X169061353Y-89393371D02*
X169108972Y-89298133D01*
X169108972Y-89298133D02*
X169108972Y-89202895D01*
X169108972Y-89202895D02*
X169061353Y-89107657D01*
X169061353Y-89107657D02*
X169013734Y-89060038D01*
X169013734Y-89060038D02*
X168918496Y-89012419D01*
X168918496Y-89012419D02*
X168680401Y-89012419D01*
X168680401Y-89012419D02*
X168537544Y-89060038D01*
X167918496Y-89012419D02*
X167728020Y-89012419D01*
X167728020Y-89012419D02*
X167632782Y-89060038D01*
X167632782Y-89060038D02*
X167537544Y-89155276D01*
X167537544Y-89155276D02*
X167489925Y-89345752D01*
X167489925Y-89345752D02*
X167489925Y-89679085D01*
X167489925Y-89679085D02*
X167537544Y-89869561D01*
X167537544Y-89869561D02*
X167632782Y-89964800D01*
X167632782Y-89964800D02*
X167728020Y-90012419D01*
X167728020Y-90012419D02*
X167918496Y-90012419D01*
X167918496Y-90012419D02*
X168013734Y-89964800D01*
X168013734Y-89964800D02*
X168108972Y-89869561D01*
X168108972Y-89869561D02*
X168156591Y-89679085D01*
X168156591Y-89679085D02*
X168156591Y-89345752D01*
X168156591Y-89345752D02*
X168108972Y-89155276D01*
X168108972Y-89155276D02*
X168013734Y-89060038D01*
X168013734Y-89060038D02*
X167918496Y-89012419D01*
X166489925Y-90012419D02*
X166823258Y-89536228D01*
X167061353Y-90012419D02*
X167061353Y-89012419D01*
X167061353Y-89012419D02*
X166680401Y-89012419D01*
X166680401Y-89012419D02*
X166585163Y-89060038D01*
X166585163Y-89060038D02*
X166537544Y-89107657D01*
X166537544Y-89107657D02*
X166489925Y-89202895D01*
X166489925Y-89202895D02*
X166489925Y-89345752D01*
X166489925Y-89345752D02*
X166537544Y-89440990D01*
X166537544Y-89440990D02*
X166585163Y-89488609D01*
X166585163Y-89488609D02*
X166680401Y-89536228D01*
X166680401Y-89536228D02*
X167061353Y-89536228D01*
X166299449Y-90107657D02*
X165537544Y-90107657D01*
X165442305Y-89012419D02*
X165108972Y-90012419D01*
X165108972Y-90012419D02*
X164775639Y-89012419D01*
X164442305Y-90012419D02*
X164442305Y-89012419D01*
X164442305Y-89012419D02*
X164061353Y-89012419D01*
X164061353Y-89012419D02*
X163966115Y-89060038D01*
X163966115Y-89060038D02*
X163918496Y-89107657D01*
X163918496Y-89107657D02*
X163870877Y-89202895D01*
X163870877Y-89202895D02*
X163870877Y-89345752D01*
X163870877Y-89345752D02*
X163918496Y-89440990D01*
X163918496Y-89440990D02*
X163966115Y-89488609D01*
X163966115Y-89488609D02*
X164061353Y-89536228D01*
X164061353Y-89536228D02*
X164442305Y-89536228D01*
X166976115Y-110522419D02*
X166976115Y-109522419D01*
X166309449Y-109522419D02*
X166118973Y-109522419D01*
X166118973Y-109522419D02*
X166023735Y-109570038D01*
X166023735Y-109570038D02*
X165928497Y-109665276D01*
X165928497Y-109665276D02*
X165880878Y-109855752D01*
X165880878Y-109855752D02*
X165880878Y-110189085D01*
X165880878Y-110189085D02*
X165928497Y-110379561D01*
X165928497Y-110379561D02*
X166023735Y-110474800D01*
X166023735Y-110474800D02*
X166118973Y-110522419D01*
X166118973Y-110522419D02*
X166309449Y-110522419D01*
X166309449Y-110522419D02*
X166404687Y-110474800D01*
X166404687Y-110474800D02*
X166499925Y-110379561D01*
X166499925Y-110379561D02*
X166547544Y-110189085D01*
X166547544Y-110189085D02*
X166547544Y-109855752D01*
X166547544Y-109855752D02*
X166499925Y-109665276D01*
X166499925Y-109665276D02*
X166404687Y-109570038D01*
X166404687Y-109570038D02*
X166309449Y-109522419D01*
X165499925Y-109617657D02*
X165452306Y-109570038D01*
X165452306Y-109570038D02*
X165357068Y-109522419D01*
X165357068Y-109522419D02*
X165118973Y-109522419D01*
X165118973Y-109522419D02*
X165023735Y-109570038D01*
X165023735Y-109570038D02*
X164976116Y-109617657D01*
X164976116Y-109617657D02*
X164928497Y-109712895D01*
X164928497Y-109712895D02*
X164928497Y-109808133D01*
X164928497Y-109808133D02*
X164976116Y-109950990D01*
X164976116Y-109950990D02*
X165547544Y-110522419D01*
X165547544Y-110522419D02*
X164928497Y-110522419D01*
X164595163Y-109522419D02*
X163928497Y-109522419D01*
X163928497Y-109522419D02*
X164357068Y-110522419D01*
X165746115Y-87078609D02*
X165412782Y-87078609D01*
X165269925Y-87602419D02*
X165746115Y-87602419D01*
X165746115Y-87602419D02*
X165746115Y-86602419D01*
X165746115Y-86602419D02*
X165269925Y-86602419D01*
X164841353Y-87602419D02*
X164841353Y-86602419D01*
X164841353Y-86602419D02*
X164269925Y-87602419D01*
X164269925Y-87602419D02*
X164269925Y-86602419D01*
X202826115Y-120392419D02*
X202826115Y-119392419D01*
X202159449Y-119392419D02*
X201968973Y-119392419D01*
X201968973Y-119392419D02*
X201873735Y-119440038D01*
X201873735Y-119440038D02*
X201778497Y-119535276D01*
X201778497Y-119535276D02*
X201730878Y-119725752D01*
X201730878Y-119725752D02*
X201730878Y-120059085D01*
X201730878Y-120059085D02*
X201778497Y-120249561D01*
X201778497Y-120249561D02*
X201873735Y-120344800D01*
X201873735Y-120344800D02*
X201968973Y-120392419D01*
X201968973Y-120392419D02*
X202159449Y-120392419D01*
X202159449Y-120392419D02*
X202254687Y-120344800D01*
X202254687Y-120344800D02*
X202349925Y-120249561D01*
X202349925Y-120249561D02*
X202397544Y-120059085D01*
X202397544Y-120059085D02*
X202397544Y-119725752D01*
X202397544Y-119725752D02*
X202349925Y-119535276D01*
X202349925Y-119535276D02*
X202254687Y-119440038D01*
X202254687Y-119440038D02*
X202159449Y-119392419D01*
X201349925Y-119487657D02*
X201302306Y-119440038D01*
X201302306Y-119440038D02*
X201207068Y-119392419D01*
X201207068Y-119392419D02*
X200968973Y-119392419D01*
X200968973Y-119392419D02*
X200873735Y-119440038D01*
X200873735Y-119440038D02*
X200826116Y-119487657D01*
X200826116Y-119487657D02*
X200778497Y-119582895D01*
X200778497Y-119582895D02*
X200778497Y-119678133D01*
X200778497Y-119678133D02*
X200826116Y-119820990D01*
X200826116Y-119820990D02*
X201397544Y-120392419D01*
X201397544Y-120392419D02*
X200778497Y-120392419D01*
X166936115Y-120702419D02*
X166936115Y-119702419D01*
X166269449Y-119702419D02*
X166078973Y-119702419D01*
X166078973Y-119702419D02*
X165983735Y-119750038D01*
X165983735Y-119750038D02*
X165888497Y-119845276D01*
X165888497Y-119845276D02*
X165840878Y-120035752D01*
X165840878Y-120035752D02*
X165840878Y-120369085D01*
X165840878Y-120369085D02*
X165888497Y-120559561D01*
X165888497Y-120559561D02*
X165983735Y-120654800D01*
X165983735Y-120654800D02*
X166078973Y-120702419D01*
X166078973Y-120702419D02*
X166269449Y-120702419D01*
X166269449Y-120702419D02*
X166364687Y-120654800D01*
X166364687Y-120654800D02*
X166459925Y-120559561D01*
X166459925Y-120559561D02*
X166507544Y-120369085D01*
X166507544Y-120369085D02*
X166507544Y-120035752D01*
X166507544Y-120035752D02*
X166459925Y-119845276D01*
X166459925Y-119845276D02*
X166364687Y-119750038D01*
X166364687Y-119750038D02*
X166269449Y-119702419D01*
X164888497Y-120702419D02*
X165459925Y-120702419D01*
X165174211Y-120702419D02*
X165174211Y-119702419D01*
X165174211Y-119702419D02*
X165269449Y-119845276D01*
X165269449Y-119845276D02*
X165364687Y-119940514D01*
X165364687Y-119940514D02*
X165459925Y-119988133D01*
X164555163Y-119702419D02*
X163936116Y-119702419D01*
X163936116Y-119702419D02*
X164269449Y-120083371D01*
X164269449Y-120083371D02*
X164126592Y-120083371D01*
X164126592Y-120083371D02*
X164031354Y-120130990D01*
X164031354Y-120130990D02*
X163983735Y-120178609D01*
X163983735Y-120178609D02*
X163936116Y-120273847D01*
X163936116Y-120273847D02*
X163936116Y-120511942D01*
X163936116Y-120511942D02*
X163983735Y-120607180D01*
X163983735Y-120607180D02*
X164031354Y-120654800D01*
X164031354Y-120654800D02*
X164126592Y-120702419D01*
X164126592Y-120702419D02*
X164412306Y-120702419D01*
X164412306Y-120702419D02*
X164507544Y-120654800D01*
X164507544Y-120654800D02*
X164555163Y-120607180D01*
X167508972Y-84112419D02*
X167175639Y-85112419D01*
X167175639Y-85112419D02*
X166842306Y-84112419D01*
X166508972Y-85112419D02*
X166508972Y-84112419D01*
X166508972Y-84112419D02*
X166270877Y-84112419D01*
X166270877Y-84112419D02*
X166128020Y-84160038D01*
X166128020Y-84160038D02*
X166032782Y-84255276D01*
X166032782Y-84255276D02*
X165985163Y-84350514D01*
X165985163Y-84350514D02*
X165937544Y-84540990D01*
X165937544Y-84540990D02*
X165937544Y-84683847D01*
X165937544Y-84683847D02*
X165985163Y-84874323D01*
X165985163Y-84874323D02*
X166032782Y-84969561D01*
X166032782Y-84969561D02*
X166128020Y-85064800D01*
X166128020Y-85064800D02*
X166270877Y-85112419D01*
X166270877Y-85112419D02*
X166508972Y-85112419D01*
X165604210Y-84112419D02*
X164985163Y-84112419D01*
X164985163Y-84112419D02*
X165318496Y-84493371D01*
X165318496Y-84493371D02*
X165175639Y-84493371D01*
X165175639Y-84493371D02*
X165080401Y-84540990D01*
X165080401Y-84540990D02*
X165032782Y-84588609D01*
X165032782Y-84588609D02*
X164985163Y-84683847D01*
X164985163Y-84683847D02*
X164985163Y-84921942D01*
X164985163Y-84921942D02*
X165032782Y-85017180D01*
X165032782Y-85017180D02*
X165080401Y-85064800D01*
X165080401Y-85064800D02*
X165175639Y-85112419D01*
X165175639Y-85112419D02*
X165461353Y-85112419D01*
X165461353Y-85112419D02*
X165556591Y-85064800D01*
X165556591Y-85064800D02*
X165604210Y-85017180D01*
X164651829Y-84112419D02*
X164032782Y-84112419D01*
X164032782Y-84112419D02*
X164366115Y-84493371D01*
X164366115Y-84493371D02*
X164223258Y-84493371D01*
X164223258Y-84493371D02*
X164128020Y-84540990D01*
X164128020Y-84540990D02*
X164080401Y-84588609D01*
X164080401Y-84588609D02*
X164032782Y-84683847D01*
X164032782Y-84683847D02*
X164032782Y-84921942D01*
X164032782Y-84921942D02*
X164080401Y-85017180D01*
X164080401Y-85017180D02*
X164128020Y-85064800D01*
X164128020Y-85064800D02*
X164223258Y-85112419D01*
X164223258Y-85112419D02*
X164508972Y-85112419D01*
X164508972Y-85112419D02*
X164604210Y-85064800D01*
X164604210Y-85064800D02*
X164651829Y-85017180D01*
X166886115Y-107822419D02*
X166886115Y-106822419D01*
X166219449Y-106822419D02*
X166028973Y-106822419D01*
X166028973Y-106822419D02*
X165933735Y-106870038D01*
X165933735Y-106870038D02*
X165838497Y-106965276D01*
X165838497Y-106965276D02*
X165790878Y-107155752D01*
X165790878Y-107155752D02*
X165790878Y-107489085D01*
X165790878Y-107489085D02*
X165838497Y-107679561D01*
X165838497Y-107679561D02*
X165933735Y-107774800D01*
X165933735Y-107774800D02*
X166028973Y-107822419D01*
X166028973Y-107822419D02*
X166219449Y-107822419D01*
X166219449Y-107822419D02*
X166314687Y-107774800D01*
X166314687Y-107774800D02*
X166409925Y-107679561D01*
X166409925Y-107679561D02*
X166457544Y-107489085D01*
X166457544Y-107489085D02*
X166457544Y-107155752D01*
X166457544Y-107155752D02*
X166409925Y-106965276D01*
X166409925Y-106965276D02*
X166314687Y-106870038D01*
X166314687Y-106870038D02*
X166219449Y-106822419D01*
X165409925Y-106917657D02*
X165362306Y-106870038D01*
X165362306Y-106870038D02*
X165267068Y-106822419D01*
X165267068Y-106822419D02*
X165028973Y-106822419D01*
X165028973Y-106822419D02*
X164933735Y-106870038D01*
X164933735Y-106870038D02*
X164886116Y-106917657D01*
X164886116Y-106917657D02*
X164838497Y-107012895D01*
X164838497Y-107012895D02*
X164838497Y-107108133D01*
X164838497Y-107108133D02*
X164886116Y-107250990D01*
X164886116Y-107250990D02*
X165457544Y-107822419D01*
X165457544Y-107822419D02*
X164838497Y-107822419D01*
X163981354Y-106822419D02*
X164171830Y-106822419D01*
X164171830Y-106822419D02*
X164267068Y-106870038D01*
X164267068Y-106870038D02*
X164314687Y-106917657D01*
X164314687Y-106917657D02*
X164409925Y-107060514D01*
X164409925Y-107060514D02*
X164457544Y-107250990D01*
X164457544Y-107250990D02*
X164457544Y-107631942D01*
X164457544Y-107631942D02*
X164409925Y-107727180D01*
X164409925Y-107727180D02*
X164362306Y-107774800D01*
X164362306Y-107774800D02*
X164267068Y-107822419D01*
X164267068Y-107822419D02*
X164076592Y-107822419D01*
X164076592Y-107822419D02*
X163981354Y-107774800D01*
X163981354Y-107774800D02*
X163933735Y-107727180D01*
X163933735Y-107727180D02*
X163886116Y-107631942D01*
X163886116Y-107631942D02*
X163886116Y-107393847D01*
X163886116Y-107393847D02*
X163933735Y-107298609D01*
X163933735Y-107298609D02*
X163981354Y-107250990D01*
X163981354Y-107250990D02*
X164076592Y-107203371D01*
X164076592Y-107203371D02*
X164267068Y-107203371D01*
X164267068Y-107203371D02*
X164362306Y-107250990D01*
X164362306Y-107250990D02*
X164409925Y-107298609D01*
X164409925Y-107298609D02*
X164457544Y-107393847D01*
X172123734Y-92504800D02*
X171980877Y-92552419D01*
X171980877Y-92552419D02*
X171742782Y-92552419D01*
X171742782Y-92552419D02*
X171647544Y-92504800D01*
X171647544Y-92504800D02*
X171599925Y-92457180D01*
X171599925Y-92457180D02*
X171552306Y-92361942D01*
X171552306Y-92361942D02*
X171552306Y-92266704D01*
X171552306Y-92266704D02*
X171599925Y-92171466D01*
X171599925Y-92171466D02*
X171647544Y-92123847D01*
X171647544Y-92123847D02*
X171742782Y-92076228D01*
X171742782Y-92076228D02*
X171933258Y-92028609D01*
X171933258Y-92028609D02*
X172028496Y-91980990D01*
X172028496Y-91980990D02*
X172076115Y-91933371D01*
X172076115Y-91933371D02*
X172123734Y-91838133D01*
X172123734Y-91838133D02*
X172123734Y-91742895D01*
X172123734Y-91742895D02*
X172076115Y-91647657D01*
X172076115Y-91647657D02*
X172028496Y-91600038D01*
X172028496Y-91600038D02*
X171933258Y-91552419D01*
X171933258Y-91552419D02*
X171695163Y-91552419D01*
X171695163Y-91552419D02*
X171552306Y-91600038D01*
X171123734Y-92028609D02*
X170790401Y-92028609D01*
X170647544Y-92552419D02*
X171123734Y-92552419D01*
X171123734Y-92552419D02*
X171123734Y-91552419D01*
X171123734Y-91552419D02*
X170647544Y-91552419D01*
X170218972Y-92552419D02*
X170218972Y-91552419D01*
X170218972Y-91552419D02*
X169647544Y-92552419D01*
X169647544Y-92552419D02*
X169647544Y-91552419D01*
X169218972Y-92504800D02*
X169076115Y-92552419D01*
X169076115Y-92552419D02*
X168838020Y-92552419D01*
X168838020Y-92552419D02*
X168742782Y-92504800D01*
X168742782Y-92504800D02*
X168695163Y-92457180D01*
X168695163Y-92457180D02*
X168647544Y-92361942D01*
X168647544Y-92361942D02*
X168647544Y-92266704D01*
X168647544Y-92266704D02*
X168695163Y-92171466D01*
X168695163Y-92171466D02*
X168742782Y-92123847D01*
X168742782Y-92123847D02*
X168838020Y-92076228D01*
X168838020Y-92076228D02*
X169028496Y-92028609D01*
X169028496Y-92028609D02*
X169123734Y-91980990D01*
X169123734Y-91980990D02*
X169171353Y-91933371D01*
X169171353Y-91933371D02*
X169218972Y-91838133D01*
X169218972Y-91838133D02*
X169218972Y-91742895D01*
X169218972Y-91742895D02*
X169171353Y-91647657D01*
X169171353Y-91647657D02*
X169123734Y-91600038D01*
X169123734Y-91600038D02*
X169028496Y-91552419D01*
X169028496Y-91552419D02*
X168790401Y-91552419D01*
X168790401Y-91552419D02*
X168647544Y-91600038D01*
X168028496Y-91552419D02*
X167838020Y-91552419D01*
X167838020Y-91552419D02*
X167742782Y-91600038D01*
X167742782Y-91600038D02*
X167647544Y-91695276D01*
X167647544Y-91695276D02*
X167599925Y-91885752D01*
X167599925Y-91885752D02*
X167599925Y-92219085D01*
X167599925Y-92219085D02*
X167647544Y-92409561D01*
X167647544Y-92409561D02*
X167742782Y-92504800D01*
X167742782Y-92504800D02*
X167838020Y-92552419D01*
X167838020Y-92552419D02*
X168028496Y-92552419D01*
X168028496Y-92552419D02*
X168123734Y-92504800D01*
X168123734Y-92504800D02*
X168218972Y-92409561D01*
X168218972Y-92409561D02*
X168266591Y-92219085D01*
X168266591Y-92219085D02*
X168266591Y-91885752D01*
X168266591Y-91885752D02*
X168218972Y-91695276D01*
X168218972Y-91695276D02*
X168123734Y-91600038D01*
X168123734Y-91600038D02*
X168028496Y-91552419D01*
X166599925Y-92552419D02*
X166933258Y-92076228D01*
X167171353Y-92552419D02*
X167171353Y-91552419D01*
X167171353Y-91552419D02*
X166790401Y-91552419D01*
X166790401Y-91552419D02*
X166695163Y-91600038D01*
X166695163Y-91600038D02*
X166647544Y-91647657D01*
X166647544Y-91647657D02*
X166599925Y-91742895D01*
X166599925Y-91742895D02*
X166599925Y-91885752D01*
X166599925Y-91885752D02*
X166647544Y-91980990D01*
X166647544Y-91980990D02*
X166695163Y-92028609D01*
X166695163Y-92028609D02*
X166790401Y-92076228D01*
X166790401Y-92076228D02*
X167171353Y-92076228D01*
X166409449Y-92647657D02*
X165647544Y-92647657D01*
X165552305Y-91552419D02*
X165218972Y-92552419D01*
X165218972Y-92552419D02*
X164885639Y-91552419D01*
X164552305Y-92552419D02*
X164552305Y-91552419D01*
X164552305Y-91552419D02*
X163980877Y-92552419D01*
X163980877Y-92552419D02*
X163980877Y-91552419D01*
X202846115Y-89922419D02*
X202846115Y-88922419D01*
X202179449Y-88922419D02*
X201988973Y-88922419D01*
X201988973Y-88922419D02*
X201893735Y-88970038D01*
X201893735Y-88970038D02*
X201798497Y-89065276D01*
X201798497Y-89065276D02*
X201750878Y-89255752D01*
X201750878Y-89255752D02*
X201750878Y-89589085D01*
X201750878Y-89589085D02*
X201798497Y-89779561D01*
X201798497Y-89779561D02*
X201893735Y-89874800D01*
X201893735Y-89874800D02*
X201988973Y-89922419D01*
X201988973Y-89922419D02*
X202179449Y-89922419D01*
X202179449Y-89922419D02*
X202274687Y-89874800D01*
X202274687Y-89874800D02*
X202369925Y-89779561D01*
X202369925Y-89779561D02*
X202417544Y-89589085D01*
X202417544Y-89589085D02*
X202417544Y-89255752D01*
X202417544Y-89255752D02*
X202369925Y-89065276D01*
X202369925Y-89065276D02*
X202274687Y-88970038D01*
X202274687Y-88970038D02*
X202179449Y-88922419D01*
X201369925Y-89017657D02*
X201322306Y-88970038D01*
X201322306Y-88970038D02*
X201227068Y-88922419D01*
X201227068Y-88922419D02*
X200988973Y-88922419D01*
X200988973Y-88922419D02*
X200893735Y-88970038D01*
X200893735Y-88970038D02*
X200846116Y-89017657D01*
X200846116Y-89017657D02*
X200798497Y-89112895D01*
X200798497Y-89112895D02*
X200798497Y-89208133D01*
X200798497Y-89208133D02*
X200846116Y-89350990D01*
X200846116Y-89350990D02*
X201417544Y-89922419D01*
X201417544Y-89922419D02*
X200798497Y-89922419D01*
X200417544Y-89017657D02*
X200369925Y-88970038D01*
X200369925Y-88970038D02*
X200274687Y-88922419D01*
X200274687Y-88922419D02*
X200036592Y-88922419D01*
X200036592Y-88922419D02*
X199941354Y-88970038D01*
X199941354Y-88970038D02*
X199893735Y-89017657D01*
X199893735Y-89017657D02*
X199846116Y-89112895D01*
X199846116Y-89112895D02*
X199846116Y-89208133D01*
X199846116Y-89208133D02*
X199893735Y-89350990D01*
X199893735Y-89350990D02*
X200465163Y-89922419D01*
X200465163Y-89922419D02*
X199846116Y-89922419D01*
X202923734Y-127834800D02*
X202780877Y-127882419D01*
X202780877Y-127882419D02*
X202542782Y-127882419D01*
X202542782Y-127882419D02*
X202447544Y-127834800D01*
X202447544Y-127834800D02*
X202399925Y-127787180D01*
X202399925Y-127787180D02*
X202352306Y-127691942D01*
X202352306Y-127691942D02*
X202352306Y-127596704D01*
X202352306Y-127596704D02*
X202399925Y-127501466D01*
X202399925Y-127501466D02*
X202447544Y-127453847D01*
X202447544Y-127453847D02*
X202542782Y-127406228D01*
X202542782Y-127406228D02*
X202733258Y-127358609D01*
X202733258Y-127358609D02*
X202828496Y-127310990D01*
X202828496Y-127310990D02*
X202876115Y-127263371D01*
X202876115Y-127263371D02*
X202923734Y-127168133D01*
X202923734Y-127168133D02*
X202923734Y-127072895D01*
X202923734Y-127072895D02*
X202876115Y-126977657D01*
X202876115Y-126977657D02*
X202828496Y-126930038D01*
X202828496Y-126930038D02*
X202733258Y-126882419D01*
X202733258Y-126882419D02*
X202495163Y-126882419D01*
X202495163Y-126882419D02*
X202352306Y-126930038D01*
X201923734Y-127882419D02*
X201923734Y-126882419D01*
X201923734Y-126882419D02*
X201685639Y-126882419D01*
X201685639Y-126882419D02*
X201542782Y-126930038D01*
X201542782Y-126930038D02*
X201447544Y-127025276D01*
X201447544Y-127025276D02*
X201399925Y-127120514D01*
X201399925Y-127120514D02*
X201352306Y-127310990D01*
X201352306Y-127310990D02*
X201352306Y-127453847D01*
X201352306Y-127453847D02*
X201399925Y-127644323D01*
X201399925Y-127644323D02*
X201447544Y-127739561D01*
X201447544Y-127739561D02*
X201542782Y-127834800D01*
X201542782Y-127834800D02*
X201685639Y-127882419D01*
X201685639Y-127882419D02*
X201923734Y-127882419D01*
X200733258Y-126882419D02*
X200638020Y-126882419D01*
X200638020Y-126882419D02*
X200542782Y-126930038D01*
X200542782Y-126930038D02*
X200495163Y-126977657D01*
X200495163Y-126977657D02*
X200447544Y-127072895D01*
X200447544Y-127072895D02*
X200399925Y-127263371D01*
X200399925Y-127263371D02*
X200399925Y-127501466D01*
X200399925Y-127501466D02*
X200447544Y-127691942D01*
X200447544Y-127691942D02*
X200495163Y-127787180D01*
X200495163Y-127787180D02*
X200542782Y-127834800D01*
X200542782Y-127834800D02*
X200638020Y-127882419D01*
X200638020Y-127882419D02*
X200733258Y-127882419D01*
X200733258Y-127882419D02*
X200828496Y-127834800D01*
X200828496Y-127834800D02*
X200876115Y-127787180D01*
X200876115Y-127787180D02*
X200923734Y-127691942D01*
X200923734Y-127691942D02*
X200971353Y-127501466D01*
X200971353Y-127501466D02*
X200971353Y-127263371D01*
X200971353Y-127263371D02*
X200923734Y-127072895D01*
X200923734Y-127072895D02*
X200876115Y-126977657D01*
X200876115Y-126977657D02*
X200828496Y-126930038D01*
X200828496Y-126930038D02*
X200733258Y-126882419D01*
X202394687Y-95042419D02*
X202728020Y-94566228D01*
X202966115Y-95042419D02*
X202966115Y-94042419D01*
X202966115Y-94042419D02*
X202585163Y-94042419D01*
X202585163Y-94042419D02*
X202489925Y-94090038D01*
X202489925Y-94090038D02*
X202442306Y-94137657D01*
X202442306Y-94137657D02*
X202394687Y-94232895D01*
X202394687Y-94232895D02*
X202394687Y-94375752D01*
X202394687Y-94375752D02*
X202442306Y-94470990D01*
X202442306Y-94470990D02*
X202489925Y-94518609D01*
X202489925Y-94518609D02*
X202585163Y-94566228D01*
X202585163Y-94566228D02*
X202966115Y-94566228D01*
X202061353Y-94042419D02*
X201394687Y-95042419D01*
X201394687Y-94042419D02*
X202061353Y-95042419D01*
X201013734Y-95042419D02*
X201013734Y-94042419D01*
X201013734Y-94042419D02*
X200775639Y-94042419D01*
X200775639Y-94042419D02*
X200632782Y-94090038D01*
X200632782Y-94090038D02*
X200537544Y-94185276D01*
X200537544Y-94185276D02*
X200489925Y-94280514D01*
X200489925Y-94280514D02*
X200442306Y-94470990D01*
X200442306Y-94470990D02*
X200442306Y-94613847D01*
X200442306Y-94613847D02*
X200489925Y-94804323D01*
X200489925Y-94804323D02*
X200537544Y-94899561D01*
X200537544Y-94899561D02*
X200632782Y-94994800D01*
X200632782Y-94994800D02*
X200775639Y-95042419D01*
X200775639Y-95042419D02*
X201013734Y-95042419D01*
X199823258Y-94042419D02*
X199632782Y-94042419D01*
X199632782Y-94042419D02*
X199537544Y-94090038D01*
X199537544Y-94090038D02*
X199442306Y-94185276D01*
X199442306Y-94185276D02*
X199394687Y-94375752D01*
X199394687Y-94375752D02*
X199394687Y-94709085D01*
X199394687Y-94709085D02*
X199442306Y-94899561D01*
X199442306Y-94899561D02*
X199537544Y-94994800D01*
X199537544Y-94994800D02*
X199632782Y-95042419D01*
X199632782Y-95042419D02*
X199823258Y-95042419D01*
X199823258Y-95042419D02*
X199918496Y-94994800D01*
X199918496Y-94994800D02*
X200013734Y-94899561D01*
X200013734Y-94899561D02*
X200061353Y-94709085D01*
X200061353Y-94709085D02*
X200061353Y-94375752D01*
X200061353Y-94375752D02*
X200013734Y-94185276D01*
X200013734Y-94185276D02*
X199918496Y-94090038D01*
X199918496Y-94090038D02*
X199823258Y-94042419D01*
X166986115Y-97842419D02*
X166986115Y-96842419D01*
X166319449Y-96842419D02*
X166128973Y-96842419D01*
X166128973Y-96842419D02*
X166033735Y-96890038D01*
X166033735Y-96890038D02*
X165938497Y-96985276D01*
X165938497Y-96985276D02*
X165890878Y-97175752D01*
X165890878Y-97175752D02*
X165890878Y-97509085D01*
X165890878Y-97509085D02*
X165938497Y-97699561D01*
X165938497Y-97699561D02*
X166033735Y-97794800D01*
X166033735Y-97794800D02*
X166128973Y-97842419D01*
X166128973Y-97842419D02*
X166319449Y-97842419D01*
X166319449Y-97842419D02*
X166414687Y-97794800D01*
X166414687Y-97794800D02*
X166509925Y-97699561D01*
X166509925Y-97699561D02*
X166557544Y-97509085D01*
X166557544Y-97509085D02*
X166557544Y-97175752D01*
X166557544Y-97175752D02*
X166509925Y-96985276D01*
X166509925Y-96985276D02*
X166414687Y-96890038D01*
X166414687Y-96890038D02*
X166319449Y-96842419D01*
X165557544Y-96842419D02*
X164938497Y-96842419D01*
X164938497Y-96842419D02*
X165271830Y-97223371D01*
X165271830Y-97223371D02*
X165128973Y-97223371D01*
X165128973Y-97223371D02*
X165033735Y-97270990D01*
X165033735Y-97270990D02*
X164986116Y-97318609D01*
X164986116Y-97318609D02*
X164938497Y-97413847D01*
X164938497Y-97413847D02*
X164938497Y-97651942D01*
X164938497Y-97651942D02*
X164986116Y-97747180D01*
X164986116Y-97747180D02*
X165033735Y-97794800D01*
X165033735Y-97794800D02*
X165128973Y-97842419D01*
X165128973Y-97842419D02*
X165414687Y-97842419D01*
X165414687Y-97842419D02*
X165509925Y-97794800D01*
X165509925Y-97794800D02*
X165557544Y-97747180D01*
X164033735Y-96842419D02*
X164509925Y-96842419D01*
X164509925Y-96842419D02*
X164557544Y-97318609D01*
X164557544Y-97318609D02*
X164509925Y-97270990D01*
X164509925Y-97270990D02*
X164414687Y-97223371D01*
X164414687Y-97223371D02*
X164176592Y-97223371D01*
X164176592Y-97223371D02*
X164081354Y-97270990D01*
X164081354Y-97270990D02*
X164033735Y-97318609D01*
X164033735Y-97318609D02*
X163986116Y-97413847D01*
X163986116Y-97413847D02*
X163986116Y-97651942D01*
X163986116Y-97651942D02*
X164033735Y-97747180D01*
X164033735Y-97747180D02*
X164081354Y-97794800D01*
X164081354Y-97794800D02*
X164176592Y-97842419D01*
X164176592Y-97842419D02*
X164414687Y-97842419D01*
X164414687Y-97842419D02*
X164509925Y-97794800D01*
X164509925Y-97794800D02*
X164557544Y-97747180D01*
X166876115Y-112912419D02*
X166876115Y-111912419D01*
X166209449Y-111912419D02*
X166018973Y-111912419D01*
X166018973Y-111912419D02*
X165923735Y-111960038D01*
X165923735Y-111960038D02*
X165828497Y-112055276D01*
X165828497Y-112055276D02*
X165780878Y-112245752D01*
X165780878Y-112245752D02*
X165780878Y-112579085D01*
X165780878Y-112579085D02*
X165828497Y-112769561D01*
X165828497Y-112769561D02*
X165923735Y-112864800D01*
X165923735Y-112864800D02*
X166018973Y-112912419D01*
X166018973Y-112912419D02*
X166209449Y-112912419D01*
X166209449Y-112912419D02*
X166304687Y-112864800D01*
X166304687Y-112864800D02*
X166399925Y-112769561D01*
X166399925Y-112769561D02*
X166447544Y-112579085D01*
X166447544Y-112579085D02*
X166447544Y-112245752D01*
X166447544Y-112245752D02*
X166399925Y-112055276D01*
X166399925Y-112055276D02*
X166304687Y-111960038D01*
X166304687Y-111960038D02*
X166209449Y-111912419D01*
X164828497Y-112912419D02*
X165399925Y-112912419D01*
X165114211Y-112912419D02*
X165114211Y-111912419D01*
X165114211Y-111912419D02*
X165209449Y-112055276D01*
X165209449Y-112055276D02*
X165304687Y-112150514D01*
X165304687Y-112150514D02*
X165399925Y-112198133D01*
X163971354Y-112245752D02*
X163971354Y-112912419D01*
X164209449Y-111864800D02*
X164447544Y-112579085D01*
X164447544Y-112579085D02*
X163828497Y-112579085D01*
X202906115Y-112652419D02*
X202906115Y-111652419D01*
X202239449Y-111652419D02*
X202048973Y-111652419D01*
X202048973Y-111652419D02*
X201953735Y-111700038D01*
X201953735Y-111700038D02*
X201858497Y-111795276D01*
X201858497Y-111795276D02*
X201810878Y-111985752D01*
X201810878Y-111985752D02*
X201810878Y-112319085D01*
X201810878Y-112319085D02*
X201858497Y-112509561D01*
X201858497Y-112509561D02*
X201953735Y-112604800D01*
X201953735Y-112604800D02*
X202048973Y-112652419D01*
X202048973Y-112652419D02*
X202239449Y-112652419D01*
X202239449Y-112652419D02*
X202334687Y-112604800D01*
X202334687Y-112604800D02*
X202429925Y-112509561D01*
X202429925Y-112509561D02*
X202477544Y-112319085D01*
X202477544Y-112319085D02*
X202477544Y-111985752D01*
X202477544Y-111985752D02*
X202429925Y-111795276D01*
X202429925Y-111795276D02*
X202334687Y-111700038D01*
X202334687Y-111700038D02*
X202239449Y-111652419D01*
X200858497Y-112652419D02*
X201429925Y-112652419D01*
X201144211Y-112652419D02*
X201144211Y-111652419D01*
X201144211Y-111652419D02*
X201239449Y-111795276D01*
X201239449Y-111795276D02*
X201334687Y-111890514D01*
X201334687Y-111890514D02*
X201429925Y-111938133D01*
X200001354Y-111652419D02*
X200191830Y-111652419D01*
X200191830Y-111652419D02*
X200287068Y-111700038D01*
X200287068Y-111700038D02*
X200334687Y-111747657D01*
X200334687Y-111747657D02*
X200429925Y-111890514D01*
X200429925Y-111890514D02*
X200477544Y-112080990D01*
X200477544Y-112080990D02*
X200477544Y-112461942D01*
X200477544Y-112461942D02*
X200429925Y-112557180D01*
X200429925Y-112557180D02*
X200382306Y-112604800D01*
X200382306Y-112604800D02*
X200287068Y-112652419D01*
X200287068Y-112652419D02*
X200096592Y-112652419D01*
X200096592Y-112652419D02*
X200001354Y-112604800D01*
X200001354Y-112604800D02*
X199953735Y-112557180D01*
X199953735Y-112557180D02*
X199906116Y-112461942D01*
X199906116Y-112461942D02*
X199906116Y-112223847D01*
X199906116Y-112223847D02*
X199953735Y-112128609D01*
X199953735Y-112128609D02*
X200001354Y-112080990D01*
X200001354Y-112080990D02*
X200096592Y-112033371D01*
X200096592Y-112033371D02*
X200287068Y-112033371D01*
X200287068Y-112033371D02*
X200382306Y-112080990D01*
X200382306Y-112080990D02*
X200429925Y-112128609D01*
X200429925Y-112128609D02*
X200477544Y-112223847D01*
X202948972Y-91482419D02*
X202377544Y-91482419D01*
X202663258Y-92482419D02*
X202663258Y-91482419D01*
X202139448Y-91482419D02*
X201472782Y-92482419D01*
X201472782Y-91482419D02*
X202139448Y-92482419D01*
X201091829Y-92482419D02*
X201091829Y-91482419D01*
X201091829Y-91482419D02*
X200853734Y-91482419D01*
X200853734Y-91482419D02*
X200710877Y-91530038D01*
X200710877Y-91530038D02*
X200615639Y-91625276D01*
X200615639Y-91625276D02*
X200568020Y-91720514D01*
X200568020Y-91720514D02*
X200520401Y-91910990D01*
X200520401Y-91910990D02*
X200520401Y-92053847D01*
X200520401Y-92053847D02*
X200568020Y-92244323D01*
X200568020Y-92244323D02*
X200615639Y-92339561D01*
X200615639Y-92339561D02*
X200710877Y-92434800D01*
X200710877Y-92434800D02*
X200853734Y-92482419D01*
X200853734Y-92482419D02*
X201091829Y-92482419D01*
X199901353Y-91482419D02*
X199710877Y-91482419D01*
X199710877Y-91482419D02*
X199615639Y-91530038D01*
X199615639Y-91530038D02*
X199520401Y-91625276D01*
X199520401Y-91625276D02*
X199472782Y-91815752D01*
X199472782Y-91815752D02*
X199472782Y-92149085D01*
X199472782Y-92149085D02*
X199520401Y-92339561D01*
X199520401Y-92339561D02*
X199615639Y-92434800D01*
X199615639Y-92434800D02*
X199710877Y-92482419D01*
X199710877Y-92482419D02*
X199901353Y-92482419D01*
X199901353Y-92482419D02*
X199996591Y-92434800D01*
X199996591Y-92434800D02*
X200091829Y-92339561D01*
X200091829Y-92339561D02*
X200139448Y-92149085D01*
X200139448Y-92149085D02*
X200139448Y-91815752D01*
X200139448Y-91815752D02*
X200091829Y-91625276D01*
X200091829Y-91625276D02*
X199996591Y-91530038D01*
X199996591Y-91530038D02*
X199901353Y-91482419D01*
X202896115Y-105222419D02*
X202896115Y-104222419D01*
X202229449Y-104222419D02*
X202038973Y-104222419D01*
X202038973Y-104222419D02*
X201943735Y-104270038D01*
X201943735Y-104270038D02*
X201848497Y-104365276D01*
X201848497Y-104365276D02*
X201800878Y-104555752D01*
X201800878Y-104555752D02*
X201800878Y-104889085D01*
X201800878Y-104889085D02*
X201848497Y-105079561D01*
X201848497Y-105079561D02*
X201943735Y-105174800D01*
X201943735Y-105174800D02*
X202038973Y-105222419D01*
X202038973Y-105222419D02*
X202229449Y-105222419D01*
X202229449Y-105222419D02*
X202324687Y-105174800D01*
X202324687Y-105174800D02*
X202419925Y-105079561D01*
X202419925Y-105079561D02*
X202467544Y-104889085D01*
X202467544Y-104889085D02*
X202467544Y-104555752D01*
X202467544Y-104555752D02*
X202419925Y-104365276D01*
X202419925Y-104365276D02*
X202324687Y-104270038D01*
X202324687Y-104270038D02*
X202229449Y-104222419D01*
X200848497Y-105222419D02*
X201419925Y-105222419D01*
X201134211Y-105222419D02*
X201134211Y-104222419D01*
X201134211Y-104222419D02*
X201229449Y-104365276D01*
X201229449Y-104365276D02*
X201324687Y-104460514D01*
X201324687Y-104460514D02*
X201419925Y-104508133D01*
X200277068Y-104650990D02*
X200372306Y-104603371D01*
X200372306Y-104603371D02*
X200419925Y-104555752D01*
X200419925Y-104555752D02*
X200467544Y-104460514D01*
X200467544Y-104460514D02*
X200467544Y-104412895D01*
X200467544Y-104412895D02*
X200419925Y-104317657D01*
X200419925Y-104317657D02*
X200372306Y-104270038D01*
X200372306Y-104270038D02*
X200277068Y-104222419D01*
X200277068Y-104222419D02*
X200086592Y-104222419D01*
X200086592Y-104222419D02*
X199991354Y-104270038D01*
X199991354Y-104270038D02*
X199943735Y-104317657D01*
X199943735Y-104317657D02*
X199896116Y-104412895D01*
X199896116Y-104412895D02*
X199896116Y-104460514D01*
X199896116Y-104460514D02*
X199943735Y-104555752D01*
X199943735Y-104555752D02*
X199991354Y-104603371D01*
X199991354Y-104603371D02*
X200086592Y-104650990D01*
X200086592Y-104650990D02*
X200277068Y-104650990D01*
X200277068Y-104650990D02*
X200372306Y-104698609D01*
X200372306Y-104698609D02*
X200419925Y-104746228D01*
X200419925Y-104746228D02*
X200467544Y-104841466D01*
X200467544Y-104841466D02*
X200467544Y-105031942D01*
X200467544Y-105031942D02*
X200419925Y-105127180D01*
X200419925Y-105127180D02*
X200372306Y-105174800D01*
X200372306Y-105174800D02*
X200277068Y-105222419D01*
X200277068Y-105222419D02*
X200086592Y-105222419D01*
X200086592Y-105222419D02*
X199991354Y-105174800D01*
X199991354Y-105174800D02*
X199943735Y-105127180D01*
X199943735Y-105127180D02*
X199896116Y-105031942D01*
X199896116Y-105031942D02*
X199896116Y-104841466D01*
X199896116Y-104841466D02*
X199943735Y-104746228D01*
X199943735Y-104746228D02*
X199991354Y-104698609D01*
X199991354Y-104698609D02*
X200086592Y-104650990D01*
X202926115Y-102652419D02*
X202926115Y-101652419D01*
X202259449Y-101652419D02*
X202068973Y-101652419D01*
X202068973Y-101652419D02*
X201973735Y-101700038D01*
X201973735Y-101700038D02*
X201878497Y-101795276D01*
X201878497Y-101795276D02*
X201830878Y-101985752D01*
X201830878Y-101985752D02*
X201830878Y-102319085D01*
X201830878Y-102319085D02*
X201878497Y-102509561D01*
X201878497Y-102509561D02*
X201973735Y-102604800D01*
X201973735Y-102604800D02*
X202068973Y-102652419D01*
X202068973Y-102652419D02*
X202259449Y-102652419D01*
X202259449Y-102652419D02*
X202354687Y-102604800D01*
X202354687Y-102604800D02*
X202449925Y-102509561D01*
X202449925Y-102509561D02*
X202497544Y-102319085D01*
X202497544Y-102319085D02*
X202497544Y-101985752D01*
X202497544Y-101985752D02*
X202449925Y-101795276D01*
X202449925Y-101795276D02*
X202354687Y-101700038D01*
X202354687Y-101700038D02*
X202259449Y-101652419D01*
X200878497Y-102652419D02*
X201449925Y-102652419D01*
X201164211Y-102652419D02*
X201164211Y-101652419D01*
X201164211Y-101652419D02*
X201259449Y-101795276D01*
X201259449Y-101795276D02*
X201354687Y-101890514D01*
X201354687Y-101890514D02*
X201449925Y-101938133D01*
X200402306Y-102652419D02*
X200211830Y-102652419D01*
X200211830Y-102652419D02*
X200116592Y-102604800D01*
X200116592Y-102604800D02*
X200068973Y-102557180D01*
X200068973Y-102557180D02*
X199973735Y-102414323D01*
X199973735Y-102414323D02*
X199926116Y-102223847D01*
X199926116Y-102223847D02*
X199926116Y-101842895D01*
X199926116Y-101842895D02*
X199973735Y-101747657D01*
X199973735Y-101747657D02*
X200021354Y-101700038D01*
X200021354Y-101700038D02*
X200116592Y-101652419D01*
X200116592Y-101652419D02*
X200307068Y-101652419D01*
X200307068Y-101652419D02*
X200402306Y-101700038D01*
X200402306Y-101700038D02*
X200449925Y-101747657D01*
X200449925Y-101747657D02*
X200497544Y-101842895D01*
X200497544Y-101842895D02*
X200497544Y-102080990D01*
X200497544Y-102080990D02*
X200449925Y-102176228D01*
X200449925Y-102176228D02*
X200402306Y-102223847D01*
X200402306Y-102223847D02*
X200307068Y-102271466D01*
X200307068Y-102271466D02*
X200116592Y-102271466D01*
X200116592Y-102271466D02*
X200021354Y-102223847D01*
X200021354Y-102223847D02*
X199973735Y-102176228D01*
X199973735Y-102176228D02*
X199926116Y-102080990D01*
X166064687Y-128007180D02*
X166112306Y-128054800D01*
X166112306Y-128054800D02*
X166255163Y-128102419D01*
X166255163Y-128102419D02*
X166350401Y-128102419D01*
X166350401Y-128102419D02*
X166493258Y-128054800D01*
X166493258Y-128054800D02*
X166588496Y-127959561D01*
X166588496Y-127959561D02*
X166636115Y-127864323D01*
X166636115Y-127864323D02*
X166683734Y-127673847D01*
X166683734Y-127673847D02*
X166683734Y-127530990D01*
X166683734Y-127530990D02*
X166636115Y-127340514D01*
X166636115Y-127340514D02*
X166588496Y-127245276D01*
X166588496Y-127245276D02*
X166493258Y-127150038D01*
X166493258Y-127150038D02*
X166350401Y-127102419D01*
X166350401Y-127102419D02*
X166255163Y-127102419D01*
X166255163Y-127102419D02*
X166112306Y-127150038D01*
X166112306Y-127150038D02*
X166064687Y-127197657D01*
X165636115Y-128102419D02*
X165636115Y-127102419D01*
X165636115Y-127102419D02*
X165302782Y-127816704D01*
X165302782Y-127816704D02*
X164969449Y-127102419D01*
X164969449Y-127102419D02*
X164969449Y-128102419D01*
X164493258Y-128102419D02*
X164493258Y-127102419D01*
X164493258Y-127102419D02*
X164255163Y-127102419D01*
X164255163Y-127102419D02*
X164112306Y-127150038D01*
X164112306Y-127150038D02*
X164017068Y-127245276D01*
X164017068Y-127245276D02*
X163969449Y-127340514D01*
X163969449Y-127340514D02*
X163921830Y-127530990D01*
X163921830Y-127530990D02*
X163921830Y-127673847D01*
X163921830Y-127673847D02*
X163969449Y-127864323D01*
X163969449Y-127864323D02*
X164017068Y-127959561D01*
X164017068Y-127959561D02*
X164112306Y-128054800D01*
X164112306Y-128054800D02*
X164255163Y-128102419D01*
X164255163Y-128102419D02*
X164493258Y-128102419D01*
X202873734Y-125444800D02*
X202730877Y-125492419D01*
X202730877Y-125492419D02*
X202492782Y-125492419D01*
X202492782Y-125492419D02*
X202397544Y-125444800D01*
X202397544Y-125444800D02*
X202349925Y-125397180D01*
X202349925Y-125397180D02*
X202302306Y-125301942D01*
X202302306Y-125301942D02*
X202302306Y-125206704D01*
X202302306Y-125206704D02*
X202349925Y-125111466D01*
X202349925Y-125111466D02*
X202397544Y-125063847D01*
X202397544Y-125063847D02*
X202492782Y-125016228D01*
X202492782Y-125016228D02*
X202683258Y-124968609D01*
X202683258Y-124968609D02*
X202778496Y-124920990D01*
X202778496Y-124920990D02*
X202826115Y-124873371D01*
X202826115Y-124873371D02*
X202873734Y-124778133D01*
X202873734Y-124778133D02*
X202873734Y-124682895D01*
X202873734Y-124682895D02*
X202826115Y-124587657D01*
X202826115Y-124587657D02*
X202778496Y-124540038D01*
X202778496Y-124540038D02*
X202683258Y-124492419D01*
X202683258Y-124492419D02*
X202445163Y-124492419D01*
X202445163Y-124492419D02*
X202302306Y-124540038D01*
X201873734Y-125492419D02*
X201873734Y-124492419D01*
X201873734Y-124492419D02*
X201635639Y-124492419D01*
X201635639Y-124492419D02*
X201492782Y-124540038D01*
X201492782Y-124540038D02*
X201397544Y-124635276D01*
X201397544Y-124635276D02*
X201349925Y-124730514D01*
X201349925Y-124730514D02*
X201302306Y-124920990D01*
X201302306Y-124920990D02*
X201302306Y-125063847D01*
X201302306Y-125063847D02*
X201349925Y-125254323D01*
X201349925Y-125254323D02*
X201397544Y-125349561D01*
X201397544Y-125349561D02*
X201492782Y-125444800D01*
X201492782Y-125444800D02*
X201635639Y-125492419D01*
X201635639Y-125492419D02*
X201873734Y-125492419D01*
X200349925Y-125492419D02*
X200921353Y-125492419D01*
X200635639Y-125492419D02*
X200635639Y-124492419D01*
X200635639Y-124492419D02*
X200730877Y-124635276D01*
X200730877Y-124635276D02*
X200826115Y-124730514D01*
X200826115Y-124730514D02*
X200921353Y-124778133D01*
X202302306Y-83880038D02*
X202397544Y-83832419D01*
X202397544Y-83832419D02*
X202540401Y-83832419D01*
X202540401Y-83832419D02*
X202683258Y-83880038D01*
X202683258Y-83880038D02*
X202778496Y-83975276D01*
X202778496Y-83975276D02*
X202826115Y-84070514D01*
X202826115Y-84070514D02*
X202873734Y-84260990D01*
X202873734Y-84260990D02*
X202873734Y-84403847D01*
X202873734Y-84403847D02*
X202826115Y-84594323D01*
X202826115Y-84594323D02*
X202778496Y-84689561D01*
X202778496Y-84689561D02*
X202683258Y-84784800D01*
X202683258Y-84784800D02*
X202540401Y-84832419D01*
X202540401Y-84832419D02*
X202445163Y-84832419D01*
X202445163Y-84832419D02*
X202302306Y-84784800D01*
X202302306Y-84784800D02*
X202254687Y-84737180D01*
X202254687Y-84737180D02*
X202254687Y-84403847D01*
X202254687Y-84403847D02*
X202445163Y-84403847D01*
X201826115Y-84832419D02*
X201826115Y-83832419D01*
X201826115Y-83832419D02*
X201254687Y-84832419D01*
X201254687Y-84832419D02*
X201254687Y-83832419D01*
X200778496Y-84832419D02*
X200778496Y-83832419D01*
X200778496Y-83832419D02*
X200540401Y-83832419D01*
X200540401Y-83832419D02*
X200397544Y-83880038D01*
X200397544Y-83880038D02*
X200302306Y-83975276D01*
X200302306Y-83975276D02*
X200254687Y-84070514D01*
X200254687Y-84070514D02*
X200207068Y-84260990D01*
X200207068Y-84260990D02*
X200207068Y-84403847D01*
X200207068Y-84403847D02*
X200254687Y-84594323D01*
X200254687Y-84594323D02*
X200302306Y-84689561D01*
X200302306Y-84689561D02*
X200397544Y-84784800D01*
X200397544Y-84784800D02*
X200540401Y-84832419D01*
X200540401Y-84832419D02*
X200778496Y-84832419D01*
X166946115Y-105492419D02*
X166946115Y-104492419D01*
X166279449Y-104492419D02*
X166088973Y-104492419D01*
X166088973Y-104492419D02*
X165993735Y-104540038D01*
X165993735Y-104540038D02*
X165898497Y-104635276D01*
X165898497Y-104635276D02*
X165850878Y-104825752D01*
X165850878Y-104825752D02*
X165850878Y-105159085D01*
X165850878Y-105159085D02*
X165898497Y-105349561D01*
X165898497Y-105349561D02*
X165993735Y-105444800D01*
X165993735Y-105444800D02*
X166088973Y-105492419D01*
X166088973Y-105492419D02*
X166279449Y-105492419D01*
X166279449Y-105492419D02*
X166374687Y-105444800D01*
X166374687Y-105444800D02*
X166469925Y-105349561D01*
X166469925Y-105349561D02*
X166517544Y-105159085D01*
X166517544Y-105159085D02*
X166517544Y-104825752D01*
X166517544Y-104825752D02*
X166469925Y-104635276D01*
X166469925Y-104635276D02*
X166374687Y-104540038D01*
X166374687Y-104540038D02*
X166279449Y-104492419D01*
X165469925Y-104587657D02*
X165422306Y-104540038D01*
X165422306Y-104540038D02*
X165327068Y-104492419D01*
X165327068Y-104492419D02*
X165088973Y-104492419D01*
X165088973Y-104492419D02*
X164993735Y-104540038D01*
X164993735Y-104540038D02*
X164946116Y-104587657D01*
X164946116Y-104587657D02*
X164898497Y-104682895D01*
X164898497Y-104682895D02*
X164898497Y-104778133D01*
X164898497Y-104778133D02*
X164946116Y-104920990D01*
X164946116Y-104920990D02*
X165517544Y-105492419D01*
X165517544Y-105492419D02*
X164898497Y-105492419D01*
X163993735Y-104492419D02*
X164469925Y-104492419D01*
X164469925Y-104492419D02*
X164517544Y-104968609D01*
X164517544Y-104968609D02*
X164469925Y-104920990D01*
X164469925Y-104920990D02*
X164374687Y-104873371D01*
X164374687Y-104873371D02*
X164136592Y-104873371D01*
X164136592Y-104873371D02*
X164041354Y-104920990D01*
X164041354Y-104920990D02*
X163993735Y-104968609D01*
X163993735Y-104968609D02*
X163946116Y-105063847D01*
X163946116Y-105063847D02*
X163946116Y-105301942D01*
X163946116Y-105301942D02*
X163993735Y-105397180D01*
X163993735Y-105397180D02*
X164041354Y-105444800D01*
X164041354Y-105444800D02*
X164136592Y-105492419D01*
X164136592Y-105492419D02*
X164374687Y-105492419D01*
X164374687Y-105492419D02*
X164469925Y-105444800D01*
X164469925Y-105444800D02*
X164517544Y-105397180D01*
X166543734Y-125764800D02*
X166400877Y-125812419D01*
X166400877Y-125812419D02*
X166162782Y-125812419D01*
X166162782Y-125812419D02*
X166067544Y-125764800D01*
X166067544Y-125764800D02*
X166019925Y-125717180D01*
X166019925Y-125717180D02*
X165972306Y-125621942D01*
X165972306Y-125621942D02*
X165972306Y-125526704D01*
X165972306Y-125526704D02*
X166019925Y-125431466D01*
X166019925Y-125431466D02*
X166067544Y-125383847D01*
X166067544Y-125383847D02*
X166162782Y-125336228D01*
X166162782Y-125336228D02*
X166353258Y-125288609D01*
X166353258Y-125288609D02*
X166448496Y-125240990D01*
X166448496Y-125240990D02*
X166496115Y-125193371D01*
X166496115Y-125193371D02*
X166543734Y-125098133D01*
X166543734Y-125098133D02*
X166543734Y-125002895D01*
X166543734Y-125002895D02*
X166496115Y-124907657D01*
X166496115Y-124907657D02*
X166448496Y-124860038D01*
X166448496Y-124860038D02*
X166353258Y-124812419D01*
X166353258Y-124812419D02*
X166115163Y-124812419D01*
X166115163Y-124812419D02*
X165972306Y-124860038D01*
X165543734Y-125812419D02*
X165543734Y-124812419D01*
X165543734Y-124812419D02*
X165305639Y-124812419D01*
X165305639Y-124812419D02*
X165162782Y-124860038D01*
X165162782Y-124860038D02*
X165067544Y-124955276D01*
X165067544Y-124955276D02*
X165019925Y-125050514D01*
X165019925Y-125050514D02*
X164972306Y-125240990D01*
X164972306Y-125240990D02*
X164972306Y-125383847D01*
X164972306Y-125383847D02*
X165019925Y-125574323D01*
X165019925Y-125574323D02*
X165067544Y-125669561D01*
X165067544Y-125669561D02*
X165162782Y-125764800D01*
X165162782Y-125764800D02*
X165305639Y-125812419D01*
X165305639Y-125812419D02*
X165543734Y-125812419D01*
X164638972Y-124812419D02*
X164019925Y-124812419D01*
X164019925Y-124812419D02*
X164353258Y-125193371D01*
X164353258Y-125193371D02*
X164210401Y-125193371D01*
X164210401Y-125193371D02*
X164115163Y-125240990D01*
X164115163Y-125240990D02*
X164067544Y-125288609D01*
X164067544Y-125288609D02*
X164019925Y-125383847D01*
X164019925Y-125383847D02*
X164019925Y-125621942D01*
X164019925Y-125621942D02*
X164067544Y-125717180D01*
X164067544Y-125717180D02*
X164115163Y-125764800D01*
X164115163Y-125764800D02*
X164210401Y-125812419D01*
X164210401Y-125812419D02*
X164496115Y-125812419D01*
X164496115Y-125812419D02*
X164591353Y-125764800D01*
X164591353Y-125764800D02*
X164638972Y-125717180D01*
X202916115Y-87472419D02*
X202916115Y-86472419D01*
X202249449Y-86472419D02*
X202058973Y-86472419D01*
X202058973Y-86472419D02*
X201963735Y-86520038D01*
X201963735Y-86520038D02*
X201868497Y-86615276D01*
X201868497Y-86615276D02*
X201820878Y-86805752D01*
X201820878Y-86805752D02*
X201820878Y-87139085D01*
X201820878Y-87139085D02*
X201868497Y-87329561D01*
X201868497Y-87329561D02*
X201963735Y-87424800D01*
X201963735Y-87424800D02*
X202058973Y-87472419D01*
X202058973Y-87472419D02*
X202249449Y-87472419D01*
X202249449Y-87472419D02*
X202344687Y-87424800D01*
X202344687Y-87424800D02*
X202439925Y-87329561D01*
X202439925Y-87329561D02*
X202487544Y-87139085D01*
X202487544Y-87139085D02*
X202487544Y-86805752D01*
X202487544Y-86805752D02*
X202439925Y-86615276D01*
X202439925Y-86615276D02*
X202344687Y-86520038D01*
X202344687Y-86520038D02*
X202249449Y-86472419D01*
X201439925Y-86567657D02*
X201392306Y-86520038D01*
X201392306Y-86520038D02*
X201297068Y-86472419D01*
X201297068Y-86472419D02*
X201058973Y-86472419D01*
X201058973Y-86472419D02*
X200963735Y-86520038D01*
X200963735Y-86520038D02*
X200916116Y-86567657D01*
X200916116Y-86567657D02*
X200868497Y-86662895D01*
X200868497Y-86662895D02*
X200868497Y-86758133D01*
X200868497Y-86758133D02*
X200916116Y-86900990D01*
X200916116Y-86900990D02*
X201487544Y-87472419D01*
X201487544Y-87472419D02*
X200868497Y-87472419D01*
X200535163Y-86472419D02*
X199916116Y-86472419D01*
X199916116Y-86472419D02*
X200249449Y-86853371D01*
X200249449Y-86853371D02*
X200106592Y-86853371D01*
X200106592Y-86853371D02*
X200011354Y-86900990D01*
X200011354Y-86900990D02*
X199963735Y-86948609D01*
X199963735Y-86948609D02*
X199916116Y-87043847D01*
X199916116Y-87043847D02*
X199916116Y-87281942D01*
X199916116Y-87281942D02*
X199963735Y-87377180D01*
X199963735Y-87377180D02*
X200011354Y-87424800D01*
X200011354Y-87424800D02*
X200106592Y-87472419D01*
X200106592Y-87472419D02*
X200392306Y-87472419D01*
X200392306Y-87472419D02*
X200487544Y-87424800D01*
X200487544Y-87424800D02*
X200535163Y-87377180D01*
X202786115Y-107792419D02*
X202786115Y-106792419D01*
X202119449Y-106792419D02*
X201928973Y-106792419D01*
X201928973Y-106792419D02*
X201833735Y-106840038D01*
X201833735Y-106840038D02*
X201738497Y-106935276D01*
X201738497Y-106935276D02*
X201690878Y-107125752D01*
X201690878Y-107125752D02*
X201690878Y-107459085D01*
X201690878Y-107459085D02*
X201738497Y-107649561D01*
X201738497Y-107649561D02*
X201833735Y-107744800D01*
X201833735Y-107744800D02*
X201928973Y-107792419D01*
X201928973Y-107792419D02*
X202119449Y-107792419D01*
X202119449Y-107792419D02*
X202214687Y-107744800D01*
X202214687Y-107744800D02*
X202309925Y-107649561D01*
X202309925Y-107649561D02*
X202357544Y-107459085D01*
X202357544Y-107459085D02*
X202357544Y-107125752D01*
X202357544Y-107125752D02*
X202309925Y-106935276D01*
X202309925Y-106935276D02*
X202214687Y-106840038D01*
X202214687Y-106840038D02*
X202119449Y-106792419D01*
X200786116Y-106792419D02*
X201262306Y-106792419D01*
X201262306Y-106792419D02*
X201309925Y-107268609D01*
X201309925Y-107268609D02*
X201262306Y-107220990D01*
X201262306Y-107220990D02*
X201167068Y-107173371D01*
X201167068Y-107173371D02*
X200928973Y-107173371D01*
X200928973Y-107173371D02*
X200833735Y-107220990D01*
X200833735Y-107220990D02*
X200786116Y-107268609D01*
X200786116Y-107268609D02*
X200738497Y-107363847D01*
X200738497Y-107363847D02*
X200738497Y-107601942D01*
X200738497Y-107601942D02*
X200786116Y-107697180D01*
X200786116Y-107697180D02*
X200833735Y-107744800D01*
X200833735Y-107744800D02*
X200928973Y-107792419D01*
X200928973Y-107792419D02*
X201167068Y-107792419D01*
X201167068Y-107792419D02*
X201262306Y-107744800D01*
X201262306Y-107744800D02*
X201309925Y-107697180D01*
M02*
