%TF.GenerationSoftware,KiCad,Pcbnew,9.0.2*%
%TF.CreationDate,2025-07-05T23:34:38+05:30*%
%TF.ProjectId,_autosave-esp32devkitclone,5f617574-6f73-4617-9665-2d6573703332,rev?*%
%TF.SameCoordinates,Original*%
%TF.FileFunction,Copper,L2,Inr*%
%TF.FilePolarity,Positive*%
%FSLAX46Y46*%
G04 Gerber Fmt 4.6, Leading zero omitted, Abs format (unit mm)*
G04 Created by KiCad (PCBNEW 9.0.2) date 2025-07-05 23:34:38*
%MOMM*%
%LPD*%
G01*
G04 APERTURE LIST*
%TA.AperFunction,ComponentPad*%
%ADD10R,1.700000X1.700000*%
%TD*%
%TA.AperFunction,ComponentPad*%
%ADD11C,1.700000*%
%TD*%
%TA.AperFunction,HeatsinkPad*%
%ADD12O,1.000000X1.900000*%
%TD*%
%TA.AperFunction,HeatsinkPad*%
%ADD13O,1.050000X1.250000*%
%TD*%
%TA.AperFunction,ViaPad*%
%ADD14C,0.600000*%
%TD*%
%TA.AperFunction,Conductor*%
%ADD15C,0.200000*%
%TD*%
G04 APERTURE END LIST*
D10*
%TO.N,/VDD33*%
%TO.C,J2*%
X161960000Y-84540000D03*
D11*
%TO.N,/EN*%
X161960000Y-87080000D03*
%TO.N,/SENSOR_VP*%
X161960000Y-89620000D03*
%TO.N,/SENSOR_VN*%
X161960000Y-92160000D03*
%TO.N,/IO34*%
X161960000Y-94700000D03*
%TO.N,/IO35*%
X161960000Y-97240000D03*
%TO.N,/IO32*%
X161960000Y-99780000D03*
%TO.N,/IO33*%
X161960000Y-102320000D03*
%TO.N,/IO25*%
X161960000Y-104860000D03*
%TO.N,/IO26*%
X161960000Y-107400000D03*
%TO.N,/IO27*%
X161960000Y-109940000D03*
%TO.N,/IO14*%
X161960000Y-112480000D03*
%TO.N,/IO12*%
X161960000Y-115020000D03*
%TO.N,GND*%
X161960000Y-117560000D03*
%TO.N,/IO13*%
X161960000Y-120100000D03*
%TO.N,/SD2*%
X161960000Y-122640000D03*
%TO.N,/SD3*%
X161960000Y-125180000D03*
%TO.N,/CMD*%
X161960000Y-127720000D03*
%TO.N,/EXT_5V*%
X161960000Y-130260000D03*
%TD*%
D12*
%TO.N,GND*%
%TO.C,J1*%
X178645000Y-129225000D03*
D13*
X180595000Y-126225000D03*
X185045000Y-126225000D03*
D12*
X186995000Y-129225000D03*
%TD*%
D10*
%TO.N,GND*%
%TO.C,J3*%
X204880000Y-84360000D03*
D11*
%TO.N,/IO23*%
X204880000Y-86900000D03*
%TO.N,/IO22*%
X204880000Y-89440000D03*
%TO.N,/TXDO*%
X204880000Y-91980000D03*
%TO.N,/RXDO*%
X204880000Y-94520000D03*
%TO.N,/IO21*%
X204880000Y-97060000D03*
%TO.N,GND*%
X204880000Y-99600000D03*
%TO.N,/IO19*%
X204880000Y-102140000D03*
%TO.N,/IO18*%
X204880000Y-104680000D03*
%TO.N,/IO5*%
X204880000Y-107220000D03*
%TO.N,/IO17*%
X204880000Y-109760000D03*
%TO.N,/IO16*%
X204880000Y-112300000D03*
%TO.N,/IO4*%
X204880000Y-114840000D03*
%TO.N,/IO0*%
X204880000Y-117380000D03*
%TO.N,/IO2*%
X204880000Y-119920000D03*
%TO.N,/IO15*%
X204880000Y-122460000D03*
%TO.N,/SD1*%
X204880000Y-125000000D03*
%TO.N,/SD0*%
X204880000Y-127540000D03*
%TO.N,/CLK*%
X204880000Y-130080000D03*
%TD*%
D14*
%TO.N,/EXT_5V*%
X193890000Y-104930000D03*
X189850000Y-129560000D03*
X187610000Y-106370000D03*
X189790000Y-108480000D03*
%TO.N,GND*%
X197280000Y-92180000D03*
X169300000Y-117470000D03*
X177640000Y-111020000D03*
X180620000Y-127330000D03*
X191390000Y-130880000D03*
X177620000Y-108810000D03*
%TO.N,/VDD33*%
X170790000Y-109990000D03*
X174720000Y-111740000D03*
X174950000Y-117620000D03*
X189230000Y-109710000D03*
X194820000Y-109780000D03*
X169320000Y-91650000D03*
X170990000Y-83420000D03*
X168000000Y-109890000D03*
%TO.N,/EN*%
X196630000Y-87310000D03*
X185090000Y-84160000D03*
X197640000Y-99190000D03*
X198880000Y-109760000D03*
X178540000Y-83930000D03*
X172010000Y-130690000D03*
X171080000Y-86370000D03*
X197000000Y-104820000D03*
X198150000Y-92750000D03*
X199780000Y-95430000D03*
X183060000Y-82380000D03*
%TO.N,Net-(C15-Pad2)*%
X171190000Y-120720000D03*
X169640000Y-104440000D03*
%TO.N,Net-(D1-A)*%
X194230000Y-127060000D03*
X185370000Y-103290000D03*
X193140000Y-115810000D03*
%TO.N,/VBUS*%
X167760000Y-131090000D03*
X198310000Y-104790000D03*
X169450000Y-101790000D03*
X184060000Y-127480000D03*
X166690000Y-127560000D03*
X168640000Y-104660000D03*
%TO.N,/USB_DN*%
X178450000Y-123600000D03*
X183390000Y-124020000D03*
X187030000Y-101640000D03*
X180070000Y-123040000D03*
%TO.N,/USB_DP*%
X182490000Y-124420000D03*
X178840000Y-120080000D03*
X176990000Y-104540000D03*
%TO.N,/SD2*%
X180710000Y-97520000D03*
%TO.N,/CMD*%
X169400000Y-82570000D03*
X183190000Y-97690000D03*
%TO.N,/IO34*%
X173600000Y-88490000D03*
%TO.N,/IO14*%
X173220000Y-97500000D03*
X167330000Y-100040000D03*
%TO.N,/IO25*%
X173630000Y-93330000D03*
%TO.N,/SENSOR_VN*%
X173330000Y-87010000D03*
%TO.N,/IO35*%
X172790000Y-89530000D03*
%TO.N,/IO13*%
X179290000Y-97490000D03*
%TO.N,/IO33*%
X173510000Y-92070000D03*
%TO.N,/IO27*%
X173340000Y-96080000D03*
%TO.N,/IO12*%
X172610000Y-102400000D03*
X167780000Y-113980000D03*
%TO.N,/SENSOR_VP*%
X173670000Y-85870000D03*
%TO.N,/SD3*%
X181780000Y-97610000D03*
%TO.N,/IO32*%
X173620000Y-90970000D03*
%TO.N,/IO26*%
X172670000Y-94560000D03*
%TO.N,/IO22*%
X195290000Y-84720000D03*
%TO.N,/IO19*%
X194410000Y-90980000D03*
X196750000Y-99850000D03*
%TO.N,/SD0*%
X185790000Y-97700000D03*
%TO.N,/RXDO*%
X194000000Y-87000000D03*
X198550000Y-106020000D03*
%TO.N,/IO2*%
X205510000Y-82470000D03*
X189200000Y-97750000D03*
%TO.N,/IO15*%
X188110000Y-97900000D03*
%TO.N,/IO21*%
X194060000Y-88240000D03*
%TO.N,/IO23*%
X193960000Y-83350000D03*
%TO.N,/SD1*%
X186750000Y-97440000D03*
%TO.N,/CLK*%
X188360000Y-126580000D03*
X186230000Y-106530000D03*
X184530000Y-101180000D03*
%TO.N,/IO16*%
X193980000Y-95890000D03*
X193940000Y-105890000D03*
%TO.N,/IO18*%
X193810000Y-92180000D03*
X202900000Y-105950000D03*
%TO.N,Net-(Q1-B)*%
X176750000Y-126800000D03*
X193200000Y-125390000D03*
%TO.N,/RTS*%
X172120000Y-125370000D03*
X169760000Y-97220000D03*
X184040000Y-116250000D03*
X180210000Y-121890000D03*
%TO.N,/DTR*%
X186950000Y-122320000D03*
X180860000Y-116540000D03*
%TO.N,Net-(Q2-B)*%
X189190000Y-114020000D03*
X170890000Y-96840000D03*
X189180000Y-123870000D03*
X171830000Y-103770000D03*
X186170000Y-108700000D03*
%TO.N,/RXD*%
X197170000Y-98400000D03*
X182820000Y-115870000D03*
%TO.N,/TXD*%
X198290000Y-108440000D03*
X195470000Y-113920000D03*
%TO.N,Net-(U1-~{SUSPEND})*%
X190870000Y-110150000D03*
X182500000Y-123310000D03*
%TO.N,Net-(U1-~{RST})*%
X181230000Y-123940000D03*
X174140000Y-129460000D03*
%TO.N,Net-(U1-VBUS)*%
X180220000Y-123920000D03*
X169830000Y-130570000D03*
X191050000Y-113970000D03*
%TD*%
D15*
%TO.N,/EN*%
X185360000Y-84160000D02*
X185630000Y-84430000D01*
X187680000Y-86200000D02*
X196590000Y-86200000D01*
X196630000Y-86240000D02*
X196630000Y-87310000D01*
X196590000Y-86200000D02*
X196630000Y-86240000D01*
X185090000Y-84160000D02*
X185360000Y-84160000D01*
X185630000Y-84430000D02*
X185910000Y-84430000D01*
X185910000Y-84430000D02*
X187680000Y-86200000D01*
%TO.N,Net-(D1-A)*%
X185400000Y-103320000D02*
X185370000Y-103290000D01*
X189250000Y-110840000D02*
X189000000Y-110590000D01*
X193140000Y-114730000D02*
X189250000Y-110840000D01*
X189000000Y-110590000D02*
X185400000Y-110590000D01*
X193140000Y-115810000D02*
X193140000Y-114730000D01*
X185400000Y-110590000D02*
X185400000Y-103320000D01*
%TO.N,/VBUS*%
X168060000Y-131390000D02*
X167760000Y-131090000D01*
X177890000Y-127890000D02*
X177760000Y-128020000D01*
X176400000Y-130790000D02*
X175800000Y-131390000D01*
X184060000Y-127780000D02*
X183950000Y-127890000D01*
X184060000Y-127480000D02*
X184060000Y-127780000D01*
X177540000Y-130790000D02*
X176400000Y-130790000D01*
X177760000Y-128020000D02*
X177540000Y-128240000D01*
X183950000Y-127890000D02*
X177890000Y-127890000D01*
X175800000Y-131390000D02*
X168060000Y-131390000D01*
X177540000Y-128240000D02*
X177540000Y-130790000D01*
%TO.N,/USB_DN*%
X179010000Y-123040000D02*
X178450000Y-123600000D01*
X180070000Y-123040000D02*
X179010000Y-123040000D01*
%TO.N,/IO34*%
X169190000Y-88490000D02*
X173600000Y-88490000D01*
X167360000Y-90320000D02*
X167730000Y-89950000D01*
X161960000Y-94700000D02*
X166650000Y-94700000D01*
X166650000Y-94700000D02*
X167120000Y-94230000D01*
X167360000Y-93990000D02*
X167360000Y-92240000D01*
X167730000Y-89950000D02*
X169190000Y-88490000D01*
X167360000Y-92240000D02*
X167360000Y-90320000D01*
X167120000Y-94230000D02*
X167360000Y-93990000D01*
%TO.N,/SENSOR_VN*%
X166440000Y-92160000D02*
X166470000Y-92190000D01*
X168690000Y-88030000D02*
X172870000Y-88030000D01*
X167890000Y-88830000D02*
X168690000Y-88030000D01*
X166470000Y-92190000D02*
X166740000Y-91920000D01*
X173330000Y-87570000D02*
X173330000Y-87010000D01*
X161960000Y-92160000D02*
X166440000Y-92160000D01*
X166740000Y-91920000D02*
X166740000Y-88830000D01*
X172870000Y-88030000D02*
X173050000Y-87850000D01*
X173050000Y-87850000D02*
X173330000Y-87570000D01*
X166740000Y-88830000D02*
X167890000Y-88830000D01*
%TO.N,/SENSOR_VP*%
X172750000Y-86270000D02*
X173150000Y-85870000D01*
X167190000Y-87120000D02*
X171760000Y-87120000D01*
X173150000Y-85870000D02*
X173670000Y-85870000D01*
X164690000Y-89620000D02*
X165630000Y-88680000D01*
X161960000Y-89620000D02*
X164690000Y-89620000D01*
X171900000Y-87120000D02*
X172750000Y-86270000D01*
X171760000Y-87120000D02*
X171900000Y-87120000D01*
X165630000Y-88680000D02*
X167190000Y-87120000D01*
%TO.N,/SD3*%
X168770000Y-83190000D02*
X169810000Y-84230000D01*
X170260000Y-84230000D02*
X172400000Y-84230000D01*
X177470000Y-91880000D02*
X178390000Y-92800000D01*
X172990000Y-81790000D02*
X174450000Y-80330000D01*
X161960000Y-125180000D02*
X160670000Y-125180000D01*
X160610000Y-82410000D02*
X160680000Y-82340000D01*
X160610000Y-125120000D02*
X160610000Y-82410000D01*
X181780000Y-96190000D02*
X181780000Y-97610000D01*
X177470000Y-79830000D02*
X177470000Y-91880000D01*
X174450000Y-80330000D02*
X176970000Y-80330000D01*
X169810000Y-84230000D02*
X170260000Y-84230000D01*
X176970000Y-80330000D02*
X177470000Y-79830000D01*
X178390000Y-92800000D02*
X181780000Y-96190000D01*
X167920000Y-82340000D02*
X168770000Y-83190000D01*
X172990000Y-83640000D02*
X172990000Y-81790000D01*
X160670000Y-125180000D02*
X160610000Y-125120000D01*
X172400000Y-84230000D02*
X172990000Y-83640000D01*
X160680000Y-82340000D02*
X167920000Y-82340000D01*
%TO.N,/IO19*%
X196750000Y-99850000D02*
X195440000Y-98540000D01*
X195440000Y-98540000D02*
X195440000Y-91080000D01*
X194510000Y-91080000D02*
X194410000Y-90980000D01*
X195440000Y-91080000D02*
X194510000Y-91080000D01*
%TO.N,/IO21*%
X196170000Y-95030000D02*
X196170000Y-88190000D01*
X194110000Y-88190000D02*
X194060000Y-88240000D01*
X198200000Y-97060000D02*
X196880000Y-95740000D01*
X196170000Y-88190000D02*
X194110000Y-88190000D01*
X204880000Y-97060000D02*
X198200000Y-97060000D01*
X196880000Y-95740000D02*
X196170000Y-95030000D01*
%TO.N,/SD1*%
X186670000Y-91010000D02*
X186670000Y-97360000D01*
X206230000Y-81670000D02*
X183730000Y-81670000D01*
X204880000Y-125000000D02*
X206130000Y-125000000D01*
X206130000Y-125000000D02*
X206250000Y-124880000D01*
X206250000Y-124880000D02*
X206250000Y-81690000D01*
X183690000Y-81710000D02*
X183690000Y-88030000D01*
X186670000Y-97360000D02*
X186750000Y-97440000D01*
X183730000Y-81670000D02*
X183690000Y-81710000D01*
X206250000Y-81690000D02*
X206230000Y-81670000D01*
X183690000Y-88030000D02*
X186670000Y-91010000D01*
%TO.N,/CLK*%
X204880000Y-130080000D02*
X191730000Y-130080000D01*
X189560000Y-127910000D02*
X189370000Y-127910000D01*
X189370000Y-127910000D02*
X189370000Y-127590000D01*
X186230000Y-106530000D02*
X186230000Y-102740000D01*
X191070000Y-129420000D02*
X189560000Y-127910000D01*
X184750000Y-101260000D02*
X184670000Y-101180000D01*
X184670000Y-101180000D02*
X184530000Y-101180000D01*
X186230000Y-102740000D02*
X184750000Y-101260000D01*
X191730000Y-130080000D02*
X191070000Y-129420000D01*
X189370000Y-127590000D02*
X188360000Y-126580000D01*
%TO.N,/IO16*%
X193040000Y-105820000D02*
X193040000Y-99510000D01*
X193980000Y-98570000D02*
X193980000Y-95890000D01*
X193110000Y-105890000D02*
X193040000Y-105820000D01*
X193940000Y-105890000D02*
X193110000Y-105890000D01*
X193740000Y-98810000D02*
X193980000Y-98570000D01*
X193040000Y-99510000D02*
X193740000Y-98810000D01*
%TO.N,/RTS*%
X170970000Y-98550000D02*
X169940000Y-97520000D01*
X172120000Y-125370000D02*
X172120000Y-105980000D01*
X170970000Y-104830000D02*
X170970000Y-101370000D01*
X172120000Y-105980000D02*
X171350000Y-105210000D01*
X169940000Y-97520000D02*
X169760000Y-97340000D01*
X171350000Y-105210000D02*
X170970000Y-104830000D01*
X169760000Y-97340000D02*
X169760000Y-97220000D01*
X170970000Y-101370000D02*
X170970000Y-98550000D01*
%TO.N,/DTR*%
X180860000Y-116540000D02*
X180860000Y-115130000D01*
X186490000Y-116430000D02*
X186810000Y-116750000D01*
X186490000Y-114960000D02*
X186490000Y-116430000D01*
X181060000Y-114930000D02*
X186460000Y-114930000D01*
X186810000Y-116750000D02*
X186810000Y-122180000D01*
X186460000Y-114930000D02*
X186490000Y-114960000D01*
X180860000Y-115130000D02*
X181060000Y-114930000D01*
X186810000Y-122180000D02*
X186950000Y-122320000D01*
%TO.N,Net-(U1-VBUS)*%
X181920000Y-122910000D02*
X181550000Y-123280000D01*
X181550000Y-123280000D02*
X181800000Y-123530000D01*
X182510000Y-125730000D02*
X183660000Y-125730000D01*
X181800000Y-123680000D02*
X181860001Y-123680000D01*
X180220000Y-123920000D02*
X181020000Y-123120000D01*
X173160000Y-128790000D02*
X173160000Y-129950000D01*
X190840000Y-123120000D02*
X191500000Y-123120000D01*
X181760000Y-124301471D02*
X181760000Y-124440000D01*
X180300000Y-124750000D02*
X179670000Y-124750000D01*
X181020000Y-123120000D02*
X181020000Y-122920000D01*
X183660000Y-125730000D02*
X183660000Y-125600000D01*
X191500000Y-123120000D02*
X191710000Y-122910000D01*
X181760000Y-124440000D02*
X181760000Y-124980000D01*
X179230000Y-126120000D02*
X176560000Y-128790000D01*
X179670000Y-124750000D02*
X179230000Y-125190000D01*
X170350000Y-130050000D02*
X169830000Y-130570000D01*
X180300000Y-124000000D02*
X180300000Y-124750000D01*
X182120736Y-123940735D02*
X181760000Y-124301471D01*
X176560000Y-128790000D02*
X173160000Y-128790000D01*
X181020000Y-122920000D02*
X181810000Y-122920000D01*
X184380000Y-124880000D02*
X185030000Y-124230000D01*
X181800000Y-123530000D02*
X181800000Y-123680000D01*
X181920000Y-125140000D02*
X182510000Y-125730000D01*
X185640000Y-123120000D02*
X190840000Y-123120000D01*
X181920000Y-122810000D02*
X181920000Y-122910000D01*
X183660000Y-125600000D02*
X184380000Y-124880000D01*
X181860001Y-123680000D02*
X182120736Y-123940735D01*
X191710000Y-122910000D02*
X191710000Y-114630000D01*
X173060000Y-130050000D02*
X170350000Y-130050000D01*
X181810000Y-122920000D02*
X181920000Y-122810000D01*
X191710000Y-114630000D02*
X191050000Y-113970000D01*
X181760000Y-124980000D02*
X181920000Y-125140000D01*
X179230000Y-125190000D02*
X179230000Y-126120000D01*
X173160000Y-129950000D02*
X173060000Y-130050000D01*
X180220000Y-123920000D02*
X180300000Y-124000000D01*
X185030000Y-124230000D02*
X185030000Y-123730000D01*
X185030000Y-123730000D02*
X185640000Y-123120000D01*
%TD*%
M02*
