%TF.GenerationSoftware,KiCad,Pcbnew,9.0.2*%
%TF.CreationDate,2025-07-05T23:34:38+05:30*%
%TF.ProjectId,_autosave-esp32devkitclone,5f617574-6f73-4617-9665-2d6573703332,rev?*%
%TF.SameCoordinates,Original*%
%TF.FileFunction,Soldermask,Top*%
%TF.FilePolarity,Negative*%
%FSLAX46Y46*%
G04 Gerber Fmt 4.6, Leading zero omitted, Abs format (unit mm)*
G04 Created by KiCad (PCBNEW 9.0.2) date 2025-07-05 23:34:38*
%MOMM*%
%LPD*%
G01*
G04 APERTURE LIST*
G04 Aperture macros list*
%AMRoundRect*
0 Rectangle with rounded corners*
0 $1 Rounding radius*
0 $2 $3 $4 $5 $6 $7 $8 $9 X,Y pos of 4 corners*
0 Add a 4 corners polygon primitive as box body*
4,1,4,$2,$3,$4,$5,$6,$7,$8,$9,$2,$3,0*
0 Add four circle primitives for the rounded corners*
1,1,$1+$1,$2,$3*
1,1,$1+$1,$4,$5*
1,1,$1+$1,$6,$7*
1,1,$1+$1,$8,$9*
0 Add four rect primitives between the rounded corners*
20,1,$1+$1,$2,$3,$4,$5,0*
20,1,$1+$1,$4,$5,$6,$7,0*
20,1,$1+$1,$6,$7,$8,$9,0*
20,1,$1+$1,$8,$9,$2,$3,0*%
G04 Aperture macros list end*
%ADD10R,1.700000X1.700000*%
%ADD11C,1.700000*%
%ADD12RoundRect,0.070000X-0.650000X-0.300000X0.650000X-0.300000X0.650000X0.300000X-0.650000X0.300000X0*%
%ADD13RoundRect,0.075000X-0.125000X-0.075000X0.125000X-0.075000X0.125000X0.075000X-0.125000X0.075000X0*%
%ADD14RoundRect,0.218750X-0.218750X-0.256250X0.218750X-0.256250X0.218750X0.256250X-0.218750X0.256250X0*%
%ADD15R,1.550000X1.300000*%
%ADD16RoundRect,0.100000X-0.130000X-0.100000X0.130000X-0.100000X0.130000X0.100000X-0.130000X0.100000X0*%
%ADD17RoundRect,0.100000X-0.100000X-0.575000X0.100000X-0.575000X0.100000X0.575000X-0.100000X0.575000X0*%
%ADD18O,1.000000X1.900000*%
%ADD19R,0.875000X1.900000*%
%ADD20O,1.050000X1.250000*%
%ADD21RoundRect,0.250000X-1.200000X-0.700000X1.200000X-0.700000X1.200000X0.700000X-1.200000X0.700000X0*%
%ADD22RoundRect,0.150000X0.150000X0.200000X-0.150000X0.200000X-0.150000X-0.200000X0.150000X-0.200000X0*%
%ADD23R,2.000000X0.900000*%
%ADD24R,0.900000X2.000000*%
%ADD25R,5.000000X5.000000*%
%ADD26RoundRect,0.062500X-0.425000X-0.062500X0.425000X-0.062500X0.425000X0.062500X-0.425000X0.062500X0*%
%ADD27RoundRect,0.062500X-0.062500X-0.425000X0.062500X-0.425000X0.062500X0.425000X-0.062500X0.425000X0*%
%ADD28R,2.700000X2.700000*%
%ADD29RoundRect,0.375000X0.625000X0.375000X-0.625000X0.375000X-0.625000X-0.375000X0.625000X-0.375000X0*%
%ADD30RoundRect,0.500000X0.500000X1.400000X-0.500000X1.400000X-0.500000X-1.400000X0.500000X-1.400000X0*%
%ADD31RoundRect,0.112500X-0.187500X-0.112500X0.187500X-0.112500X0.187500X0.112500X-0.187500X0.112500X0*%
G04 APERTURE END LIST*
D10*
%TO.C,J2*%
X161960000Y-84540000D03*
D11*
X161960000Y-87080000D03*
X161960000Y-89620000D03*
X161960000Y-92160000D03*
X161960000Y-94700000D03*
X161960000Y-97240000D03*
X161960000Y-99780000D03*
X161960000Y-102320000D03*
X161960000Y-104860000D03*
X161960000Y-107400000D03*
X161960000Y-109940000D03*
X161960000Y-112480000D03*
X161960000Y-115020000D03*
X161960000Y-117560000D03*
X161960000Y-120100000D03*
X161960000Y-122640000D03*
X161960000Y-125180000D03*
X161960000Y-127720000D03*
X161960000Y-130260000D03*
%TD*%
D12*
%TO.C,Q2*%
X197190000Y-125180000D03*
X197190000Y-127080000D03*
X199290000Y-126130000D03*
%TD*%
D13*
%TO.C,R21*%
X191835000Y-125370000D03*
X192335000Y-125370000D03*
%TD*%
%TO.C,R17*%
X196905000Y-95160000D03*
X197405000Y-95160000D03*
%TD*%
D14*
%TO.C,D1*%
X182605000Y-103080000D03*
X184180000Y-103080000D03*
%TD*%
D13*
%TO.C,C15*%
X169865000Y-90920000D03*
X170365000Y-90920000D03*
%TD*%
%TO.C,R25*%
X167665000Y-127540000D03*
X168165000Y-127540000D03*
%TD*%
D15*
%TO.C,SW1*%
X169450000Y-116280000D03*
X177400000Y-116280000D03*
X169450000Y-120780000D03*
X177400000Y-120780000D03*
%TD*%
D13*
%TO.C,C14*%
X199220000Y-117020000D03*
X199720000Y-117020000D03*
%TD*%
D16*
%TO.C,C21*%
X168780000Y-111720000D03*
X169420000Y-111720000D03*
%TD*%
D17*
%TO.C,J1*%
X184120000Y-126550000D03*
X183470000Y-126550000D03*
X182820000Y-126550000D03*
X182170000Y-126550000D03*
X181520000Y-126550000D03*
D18*
X178645000Y-129225000D03*
D19*
X179082500Y-129225000D03*
D20*
X180595000Y-126225000D03*
D21*
X182820000Y-129225000D03*
D20*
X185045000Y-126225000D03*
D19*
X186557500Y-129225000D03*
D18*
X186995000Y-129225000D03*
%TD*%
D15*
%TO.C,SW2*%
X188350000Y-116710000D03*
X196300000Y-116710000D03*
X188350000Y-121210000D03*
X196300000Y-121210000D03*
%TD*%
D10*
%TO.C,J3*%
X204880000Y-84360000D03*
D11*
X204880000Y-86900000D03*
X204880000Y-89440000D03*
X204880000Y-91980000D03*
X204880000Y-94520000D03*
X204880000Y-97060000D03*
X204880000Y-99600000D03*
X204880000Y-102140000D03*
X204880000Y-104680000D03*
X204880000Y-107220000D03*
X204880000Y-109760000D03*
X204880000Y-112300000D03*
X204880000Y-114840000D03*
X204880000Y-117380000D03*
X204880000Y-119920000D03*
X204880000Y-122460000D03*
X204880000Y-125000000D03*
X204880000Y-127540000D03*
X204880000Y-130080000D03*
%TD*%
D22*
%TO.C,D4*%
X188210000Y-102890000D03*
X189610000Y-102890000D03*
%TD*%
D13*
%TO.C,R24*%
X173350000Y-130540000D03*
X173850000Y-130540000D03*
%TD*%
D16*
%TO.C,C3*%
X191785000Y-128710000D03*
X192425000Y-128710000D03*
%TD*%
D22*
%TO.C,D6*%
X168870000Y-103060000D03*
X170270000Y-103060000D03*
%TD*%
D13*
%TO.C,R22*%
X170000000Y-96140000D03*
X170500000Y-96140000D03*
%TD*%
%TO.C,R26*%
X191355000Y-112260000D03*
X191855000Y-112260000D03*
%TD*%
D16*
%TO.C,C1*%
X167400000Y-124750000D03*
X168040000Y-124750000D03*
%TD*%
D23*
%TO.C,MOD1*%
X175280000Y-81780000D03*
X175280000Y-83050000D03*
X175280000Y-84320000D03*
X175280000Y-85590000D03*
X175280000Y-86860000D03*
X175280000Y-88130000D03*
X175280000Y-89400000D03*
X175280000Y-90670000D03*
X175280000Y-91940000D03*
X175280000Y-93210000D03*
X175280000Y-94480000D03*
X175280000Y-95750000D03*
X175280000Y-97020000D03*
X175280000Y-98290000D03*
D24*
X178065000Y-99290000D03*
X179335000Y-99290000D03*
X180605000Y-99290000D03*
X181875000Y-99290000D03*
X183145000Y-99290000D03*
X184415000Y-99290000D03*
X185685000Y-99290000D03*
X186955000Y-99290000D03*
X188225000Y-99290000D03*
X189495000Y-99290000D03*
D23*
X192280000Y-98290000D03*
X192280000Y-97020000D03*
X192280000Y-95750000D03*
X192280000Y-94480000D03*
X192280000Y-93210000D03*
X192280000Y-91940000D03*
X192280000Y-90670000D03*
X192280000Y-89400000D03*
X192280000Y-88130000D03*
X192280000Y-86860000D03*
X192280000Y-85590000D03*
X192280000Y-84320000D03*
X192280000Y-83050000D03*
X192280000Y-81780000D03*
D25*
X182780000Y-88280000D03*
%TD*%
D13*
%TO.C,R11*%
X197460000Y-109800000D03*
X197960000Y-109800000D03*
%TD*%
D26*
%TO.C,U1*%
X180155000Y-118240000D03*
X180155000Y-118740000D03*
X180155000Y-119240000D03*
X180155000Y-119740000D03*
X180155000Y-120240000D03*
X180155000Y-120740000D03*
X180155000Y-121240000D03*
D27*
X181017500Y-122102500D03*
X181517500Y-122102500D03*
X182017500Y-122102500D03*
X182517500Y-122102500D03*
X183017500Y-122102500D03*
X183517500Y-122102500D03*
X184017500Y-122102500D03*
D26*
X184880000Y-121240000D03*
X184880000Y-120740000D03*
X184880000Y-120240000D03*
X184880000Y-119740000D03*
X184880000Y-119240000D03*
X184880000Y-118740000D03*
X184880000Y-118240000D03*
D27*
X184017500Y-117377500D03*
X183517500Y-117377500D03*
X183017500Y-117377500D03*
X182517500Y-117377500D03*
X182017500Y-117377500D03*
X181517500Y-117377500D03*
X181017500Y-117377500D03*
D28*
X182517500Y-119740000D03*
%TD*%
D13*
%TO.C,C9*%
X196740000Y-91600000D03*
X197240000Y-91600000D03*
%TD*%
%TO.C,C19*%
X175530000Y-111660000D03*
X176030000Y-111660000D03*
%TD*%
%TO.C,R18*%
X197700000Y-107080000D03*
X198200000Y-107080000D03*
%TD*%
D29*
%TO.C,U2*%
X187780000Y-113060000D03*
X187780000Y-110760000D03*
D30*
X181480000Y-110760000D03*
D29*
X187780000Y-108460000D03*
%TD*%
D31*
%TO.C,D3*%
X196390000Y-103090000D03*
X198490000Y-103090000D03*
%TD*%
D12*
%TO.C,Q1*%
X170170000Y-125410000D03*
X170170000Y-127310000D03*
X172270000Y-126360000D03*
%TD*%
D13*
%TO.C,C22*%
X168675000Y-107950000D03*
X169175000Y-107950000D03*
%TD*%
%TO.C,R23*%
X191030000Y-108270000D03*
X191530000Y-108270000D03*
%TD*%
%TO.C,C20*%
X176115000Y-108680000D03*
X176615000Y-108680000D03*
%TD*%
D22*
%TO.C,D5*%
X175560000Y-103130000D03*
X176960000Y-103130000D03*
%TD*%
D13*
%TO.C,R2*%
X195740000Y-130560000D03*
X196240000Y-130560000D03*
%TD*%
M02*
